<svg id="Layer_2" data-name="Layer 2" xmlns="http://www.w3.org/2000/svg" xmlns:xlink="http://www.w3.org/1999/xlink" viewBox="0 0 1280 800"><defs><style>.cls-1,.cls-26,.cls-37,.cls-39,.cls-40{fill:none;}.cls-2{fill:#202230;}.cls-3{opacity:0.4;}.cls-4{fill:#2f414f;}.cls-5{fill:#154241;}.cls-6{fill:#a88558;}.cls-7{clip-path:url(#clip-path);}.cls-8{clip-path:url(#clip-path-2);}.cls-9{fill:#c79348;}.cls-10{fill:#a8732c;}.cls-11{fill:#369ca7;}.cls-12{fill:#29868e;}.cls-13{clip-path:url(#clip-path-3);}.cls-14{fill:#b0b8c0;}.cls-15{fill:#828f99;}.cls-16{clip-path:url(#clip-path-4);}.cls-17{fill:#dee6ed;}.cls-18{fill:#b1b9c0;}.cls-19{fill:#47474f;}.cls-20{clip-path:url(#clip-path-5);}.cls-21{fill:#202028;}.cls-22{clip-path:url(#clip-path-6);}.cls-23{fill:#3c3c87;}.cls-24{fill:#a0b4f8;}.cls-25{fill:#242463;}.cls-26{stroke:#ddd;}.cls-26,.cls-35,.cls-37,.cls-38,.cls-39,.cls-40{stroke-miterlimit:10;}.cls-27{clip-path:url(#clip-path-7);}.cls-28{clip-path:url(#clip-path-8);}.cls-29{clip-path:url(#clip-path-9);}.cls-30{fill:#585c70;}.cls-31{fill:#343949;}.cls-32{fill:#e0e8f0;}.cls-33{clip-path:url(#clip-path-10);}.cls-34{fill:#fff;opacity:0.49;}.cls-35,.cls-38{fill:#d5dae2;}.cls-35,.cls-38,.cls-39{stroke:#a4adbc;}.cls-36{fill:#768389;}.cls-37{stroke:#768389;}.cls-38{opacity:0.3;}.cls-40{stroke:#fff;}</style><clipPath id="clip-path"><path class="cls-1" d="M1289,457.33s-58.67-4.33-111.5,11.33c-7.86,2.33-89.58,20.67-105.92,20.33s-22.12,6.33-22.12,6.33L1289,496.67V457.33Z"/></clipPath><clipPath id="clip-path-2"><path class="cls-1" d="M663.43,664.27s2.9-3.91-1.43,34.08c0,0-120.05,27.13-150.19,10.23s7.29-34.24,7.29-34.24S634.53,656.54,663.43,664.27Z"/></clipPath><clipPath id="clip-path-3"><path class="cls-1" d="M145.5,686.91c-1.14-2.84-22.74-8.28-27.28-9.42s-4.52-6.49-4.52-6.49H101.2l-10.07,3s-0.89,2.35-5.44,3.49-26.15,6.66-27.29,9.5,0,10.72,0,10.72,8.1,9.63,13,11.33,20.82,1.87,28,2.14c8.52,0.13,27.41-.44,32.32-2.15s13.77-11.36,13.77-11.36S146.63,689.75,145.5,686.91Z"/></clipPath><clipPath id="clip-path-4"><circle class="cls-1" cx="116.53" cy="345.66" r="261.81"/></clipPath><clipPath id="clip-path-5"><path class="cls-1" d="M-164.19,503.62s152.46,16.82,280.72,16.82c117.68,0,280.72-16.82,280.72-16.82V396.19S254.21,415,116.53,415c-146.37,0-280.72-18.81-280.72-18.81V503.62Z"/></clipPath><clipPath id="clip-path-6"><circle class="cls-1" cx="108.99" cy="466.86" r="39.77"/></clipPath><clipPath id="clip-path-7"><path class="cls-1" d="M266.66,470.93c3.55,17.22,16.51,26.23,28.54,24.5,10.85-1.56,21.26-11.88,24.92-26,4.85-18.74-2.62-41.38-21-44.71C277,420.68,261.57,446.26,266.66,470.93Z"/></clipPath><clipPath id="clip-path-8"><path class="cls-1" d="M335.5,659.91c-1.14-2.84-22.74-8.28-27.28-9.42s-4.52-6.49-4.52-6.49H291.2l-10.07,3s-0.89,2.35-5.44,3.49-26.15,6.66-27.29,9.5,0,10.72,0,10.72,8.1,9.63,13,11.33,20.82,1.87,28,2.14c8.52,0.13,27.41-.44,32.32-2.15s13.77-11.36,13.77-11.36S336.63,662.75,335.5,659.91Z"/></clipPath><clipPath id="clip-path-9"><polygon class="cls-1" points="264.26 590.01 281.14 647 303.07 647 314.54 581.12 264.26 590.01"/></clipPath><clipPath id="clip-path-10"><polyline class="cls-1" points="71.44 609.7 90.24 676 114.97 676 138.11 606 71 606"/></clipPath></defs><title>404</title><rect class="cls-2" x="-47.97" y="-0.72" width="1343.63" height="785.27"/><g class="cls-3"><rect class="cls-4" x="-61.1" y="494.02" width="1383.49" height="241.32"/><path class="cls-5" d="M357,486.17s36.74-14.49,53-8.66,38.27,7.42,53.45,7.29,35.18,5.62,40.51,9.91S326.7,496,326.7,496Z"/><path class="cls-6" d="M377.81,477.51s12.3-6.93,21.19-5.26,20.67,4.09,12,7.42-23.45,7.28-29.56,6.81S365.95,487,377.81,477.51Z"/><g class="cls-7"><path class="cls-6" d="M1289,465.33s-104.17-.33-111.5,3.33-89.58,20.67-105.92,20.33-22.12,6.33-22.12,6.33L1289,496.67V465.33Z"/><path class="cls-5" d="M1053.7,492.38c-0.33,1.33,7,1.75,22,.29s109-12.44,134.67-7,75.67,4.67,88.33-9,16.17-22.28,0-28.67C1206.67,411.67,1053.7,492.38,1053.7,492.38Z"/></g></g><g class="cls-8"><path class="cls-9" d="M662.75,664.32s3.58-4-.75,34c0,0-120.05,27.13-150.19,10.23s7.29-34.24,7.29-34.24S633.85,656.59,662.75,664.32Z"/><path class="cls-10" d="M576.23,666.86s-15,8.39-5.73,41.14-80.22-1.48-80.22-1.48S486.73,658.11,576.23,666.86Z"/></g><path class="cls-11" d="M1295.67,664.44s-151.38-14.84-408,8.86S529,717.11,519.09,699.23c-8.61-15.57,6.46-21,14.56-21.61,27.58-2.12,107.85-2.89,124.6-8.42S648,657.6,648,657.6c-29.81-7.75-85.87-29.95-356.77-40.94s-279.94-12-308.42-7.84,0.91,223.37.91,223.37l1305.94,8.13Z"/><path class="cls-12" d="M-8.5,434.5l126.66,10.76s16.39-1.36,18.62,8.19-14,12.18-20.77,13.65S17.67,483.48-8.5,499.71c-19.55,12.13,0-62.65,0-62.65"/><g class="cls-13"><path class="cls-14" d="M145.5,686.91c-1.14-2.84-22.74-8.28-27.28-9.42s-5.14-3.49-5.14-3.49l-11.87-3-10.07,3s-0.89,2.35-5.44,3.49-26.15,6.66-27.29,9.5,0,10.72,0,10.72,8.1,9.63,13,11.33,21.41,2.7,28,2.14c7.65,0.57,27.41-.44,32.32-2.15s13.77-11.36,13.77-11.36S146.63,689.75,145.5,686.91Z"/><rect class="cls-15" x="51.85" y="659.35" width="50.1" height="63.32"/><rect class="cls-15" x="76" y="686.33" width="73" height="34.67"/></g><g class="cls-16"><circle class="cls-17" cx="116.53" cy="345.66" r="261.81"/><path class="cls-18" d="M40.27,139.69S-46.9,240.89-36.45,353.95,100.76,575.14,265.38,561.07,140.7,625.65,140.7,625.65s-150.22,63.11-239-95.77-145.05-155.27-83.4-244.57S-96.45,86.37,40.27,139.69Z"/><path class="cls-19" d="M-164.19,503.62s152.46,16.82,280.72,16.82c117.68,0,280.72-16.82,280.72-16.82V396.19S254.21,415,116.53,415c-146.37,0-280.72-18.81-280.72-18.81V503.62Z"/><path class="cls-19" d="M-164.19,168.34s157.4-22.42,280.72-22.42c106.68,0,280.72,22.42,280.72,22.42V39H-164.19V168.34Z"/><g class="cls-20"><path class="cls-21" d="M-28,394S21.67,567.67,269.38,568.07C547.46,568.52,157,660.7,81,635.35s-234.26-77.72-239.63-173.53S-96.67,381.66-28,394Z"/></g><path class="cls-21" d="M33.74,147.87S71.37,99.5,127.94,58.5s-189.44,0-189.44,0S-127,164-99.45,160.73C-44,154.17,33.74,147.87,33.74,147.87Z"/><g class="cls-22"><circle class="cls-23" cx="108.89" cy="466.97" r="38.97"/><circle class="cls-24" cx="116.29" cy="448.37" r="8.57"/><path class="cls-25" d="M72.65,441.3s2.32,67.41,71.06,53.3L121,511.21s-39.2,15-47.69-3.27S49.78,449.14,72.65,441.3Z"/><circle class="cls-26" cx="108.89" cy="466.97" r="38.97"/></g><g class="cls-27"><path class="cls-23" d="M267.28,471c3.39,16.86,16.05,25.76,27.89,24.07,10.68-1.52,20.91-11.69,24.46-25.6,4.67-18.33-2.76-40.25-20.64-43.38C277.55,422.37,262.47,447.06,267.28,471Z"/><path class="cls-24" d="M309,453.24c-0.67,4.67-3.67,8.19-6.83,8.16s-5.8-3.83-5.55-8.79c0.26-5.37,3.6-9.75,7.31-9.38S309.72,448.21,309,453.24Z"/><path class="cls-25" d="M264.26,441.51s11.89,57.76,49,45.47L301,496.73s-19.84,10-25.93,2.29C267.15,489,241.3,450.8,264.26,441.51Z"/><path class="cls-26" d="M267.28,471c3.39,16.86,16.05,25.76,27.89,24.07,10.68-1.52,20.91-11.69,24.46-25.6,4.67-18.33-2.76-40.25-20.64-43.38C277.55,422.37,262.47,447.06,267.28,471Z"/></g></g><g class="cls-28"><path class="cls-14" d="M335.5,659.91c-1.14-2.84-22.74-8.28-27.28-9.42s-5.14-3.49-5.14-3.49l-11.87-3-10.07,3s-0.89,2.35-5.44,3.49-26.15,6.66-27.29,9.5,0,10.72,0,10.72,8.1,9.63,13,11.33,21.41,2.7,28,2.14c7.65,0.57,27.41-.44,32.32-2.15s13.77-11.36,13.77-11.36S336.63,662.75,335.5,659.91Z"/><rect class="cls-15" x="239.3" y="632.35" width="50.1" height="63.32"/><rect class="cls-15" x="229.45" y="658.5" width="119.22" height="35"/></g><g class="cls-29"><polygon class="cls-30" points="264.26 590.01 281.14 647 303.07 647 314.54 581.12 264.26 590.01"/><rect class="cls-31" x="260.53" y="574.09" width="28.87" height="76.58"/></g><polygon class="cls-14" points="226.3 561.5 225 577 270.67 593 309.05 593 318 583.39 318 568.93 226.3 561.5 226.3 561.5"/><polygon class="cls-32" points="267.16 547.59 314.54 560.8 318.03 568.98 309.05 578 271.17 578 226.3 561.5 267.16 547.59"/><g class="cls-33"><polyline class="cls-30" points="71.44 609.7 90.24 676 114.97 676 138.11 606 71 606"/><rect class="cls-31" x="72.3" y="610.71" width="28.87" height="76.58"/></g><polygon class="cls-32" points="60 566.71 55 578.94 77.09 601 130.75 601 153 580.51 153 569.47 60 566.71"/><polygon class="cls-14" points="55 578.94 55 594.72 78.67 616 133.9 616 153 593.93 153 578.94 131.54 601 80.25 601 55 578.94"/><ellipse class="cls-34" cx="277.08" cy="221.39" rx="23.02" ry="36.75" transform="translate(-67.12 135.87) rotate(-24.67)"/><path class="cls-35" d="M1019.29,687.38s-42.59,15.2-50.85,5.65-17.83-4.93-14.56.12,12.78,13.8,16.88,14,49-8.25,54.77-12.35"/><circle class="cls-35" cx="1041" cy="655.67" r="56.67"/><ellipse class="cls-36" cx="1003.27" cy="647.62" rx="2.33" ry="3.5"/><ellipse class="cls-36" cx="1031.51" cy="657.48" rx="2.33" ry="3.5"/><path class="cls-37" d="M1004.25,669.25s-0.37,6.81,4.75,7.31,8.25-5.93,8.25-5.93"/><circle class="cls-38" cx="1041" cy="654.67" r="72.73"/><circle class="cls-39" cx="1041" cy="654.67" r="72.73"/><path class="cls-40" d="M1104.5,654.67s5.5,13.83-6.83,32.33"/><path class="cls-35" d="M1063,686.75s15.5,15.72,19.5,28.88,10.5,9.63,10.5,9.63,0.5-20.54-20-40.75"/><path class="cls-35" d="M1029.89,697.27s-40.12,20.86-49.6,12.53-18.34-2.45-14.41,2.11,14.55,11.93,18.63,11.57,47.39-14.85,52.58-19.7"/></svg>