<?xml version="1.0" encoding="UTF-8" standalone="no"?>
<svg
   xmlns:dc="http://purl.org/dc/elements/1.1/"
   xmlns:cc="http://creativecommons.org/ns#"
   xmlns:rdf="http://www.w3.org/1999/02/22-rdf-syntax-ns#"
   xmlns:svg="http://www.w3.org/2000/svg"
   xmlns="http://www.w3.org/2000/svg"
   xmlns:sodipodi="http://sodipodi.sourceforge.net/DTD/sodipodi-0.dtd"
   xmlns:inkscape="http://www.inkscape.org/namespaces/inkscape"
   viewBox="0 0 1158 165"
   version="1.1"
   id="svg316"
   sodipodi:docname="codacy-quality-docs-logo.svg"
   inkscape:version="0.92.5 (2060ec1f9f, 2020-04-08)">
  <metadata
     id="metadata320">
    <rdf:RDF>
      <cc:Work
         rdf:about="">
        <dc:format>image/svg+xml</dc:format>
        <dc:type
           rdf:resource="http://purl.org/dc/dcmitype/StillImage" />
        <dc:title></dc:title>
      </cc:Work>
    </rdf:RDF>
  </metadata>
  <sodipodi:namedview
     pagecolor="#ffffff"
     bordercolor="#666666"
     borderopacity="1"
     objecttolerance="10"
     gridtolerance="10"
     guidetolerance="10"
     inkscape:pageopacity="0"
     inkscape:pageshadow="2"
     inkscape:window-width="1807"
     inkscape:window-height="854"
     id="namedview318"
     showgrid="false"
     inkscape:pagecheckerboard="true"
     inkscape:zoom="0.96027634"
     inkscape:cx="459.12833"
     inkscape:cy="17.469078"
     inkscape:window-x="1003"
     inkscape:window-y="314"
     inkscape:window-maximized="0"
     inkscape:current-layer="g314" />
  <defs
     id="defs266">
    <style
       id="style264">
      .a {
        fill: #fff;
      }

      .b {
        isolation: isolate;
      }

      .c {
        fill: #6695ff;
      }
    </style>
  </defs>
  <g
     id="g314">
    <g
       class="b"
       id="g312">
      <g
         class="b"
         id="g310">
        <path
           class="c"
           d="M966.20332,83.81024q0,9.72192-2.68671,15.639a17.11018,17.11018,0,0,1-8.0929,8.59666q-5.40618,2.6908-15.211,2.68671H923.79344V56.8858H940.057q9.5284,0,15.1537,2.76043a17.35718,17.35718,0,0,1,8.30587,8.62123Q966.20126,74.12211,966.20332,83.81024ZM954.879,83.73242q0-7.04033-1.38022-10.44786a8.767,8.767,0,0,0-4.68945-4.882q-3.30515-1.48056-9.80486-1.47851h-4.20208v33.77023h4.20208q6.49971,0,9.78438-1.499a8.8746,8.8746,0,0,0,4.68946-5.00072Q954.879,90.69288,954.879,83.73242Z"
           id="path302" />
        <path
           class="c"
           d="M1032.26116,83.81024q0,14.04072-5.93452,21.0493-5.92838,7.00347-17.25474,7.00347-11.94275,0-17.566-7.37616-5.62121-7.37208-5.62325-20.67661,0-13.38645,5.62325-20.71961,5.62121-7.32907,17.566-7.33521,12.02262,0,17.607,7.33521T1032.26116,83.81024Zm-11.32022,0q0-9.57141-2.70719-13.9496-2.70309-4.37409-9.16185-4.37409-6.45671,0-9.16184,4.37409-2.70309,4.38024-2.70309,13.9496,0,9.56834,2.74,13.94754,2.7461,4.37411,9.125,4.3741,6.4567,0,9.16185-4.3741Q1020.943,93.37756,1020.94094,83.81024Z"
           id="path304" />
        <path
           class="c"
           d="M1098.24118,101.82061a21.37593,21.37593,0,0,1-8.50245,7.60962,28.40286,28.40286,0,0,1-12.38917,2.43278q-25.022,0-25.02-28.05277,0-14.35711,6.34408-21.207,6.34-6.84374,18.28682-6.84783,7.89426,0,12.87655,2.66623a19.2113,19.2113,0,0,1,7.58914,6.983l-8.52293,6.61848a18.0577,18.0577,0,0,0-3.42392-4.04645,10.69665,10.69665,0,0,0-3.53859-1.86759,15.88289,15.88289,0,0,0-4.7468-.62253q-6.61642,0-10.07925,4.21846-3.46488,4.22665-3.46078,14.10523,0,9.21816,3.2478,13.77143,3.24986,4.55226,10.37,4.55021,4.78571,0,7.44989-1.82664a19.87387,19.87387,0,0,0,4.84508-4.86556Z"
           id="path306" />
        <path
           class="c"
           d="M1158,95.12841q0,8.097-5.312,12.41375-5.314,4.3188-15.66155,4.32085a30.08823,30.08823,0,0,1-12.43013-2.37544,19.39489,19.39489,0,0,1-8.58027-7.667l8.44512-6.45465a19.14739,19.14739,0,0,0,3.53859,3.96453,12.4056,12.4056,0,0,0,3.96863,2.06418,17.31264,17.31264,0,0,0,5.29151.73721,13.33884,13.33884,0,0,0,6.983-1.53585,5.11673,5.11673,0,0,0,2.5106-4.68945,4.94579,4.94579,0,0,0-.87646-2.99388,7.02948,7.02948,0,0,0-2.62528-2.08057,34.44634,34.44634,0,0,0-6.06967-2.00274q-4.20207-1.13039-7.91678-2.2751a24.11663,24.11663,0,0,1-6.42189-2.9775,13.45884,13.45884,0,0,1-4.25942-4.59116,14.0574,14.0574,0,0,1-1.55633-6.96251q0-7.66695,5.17684-11.96733,5.17274-4.29423,14.822-4.30037,13.97007,0,19.76534,9.5755l-8.3632,6.53656a13.98756,13.98756,0,0,0-4.98025-4.90652,13.7891,13.7891,0,0,0-6.57752-1.47441,12.3,12.3,0,0,0-6.20483,1.38021,4.648,4.648,0,0,0-2.39182,4.33724,4.34382,4.34382,0,0,0,2.49012,3.98911,36.07894,36.07894,0,0,0,8.67447,2.78091q3.42186.89692,6.77,1.92493a21.3324,21.3324,0,0,1,5.97138,2.86282,13.57566,13.57566,0,0,1,4.22256,4.7816A15.88086,15.88086,0,0,1,1158,95.12841Z"
           id="path308" />
      </g>
    </g>
    <path
       inkscape:connector-curvature="0"
       style="fill:#ffffff;stroke-width:1.35694742"
       d="m 357.65108,74.933741 c 0,-6.236674 1.11054,-11.796982 3.33151,-16.68107 2.28642,-4.884088 5.324,-8.678718 9.11275,-11.383745 3.85419,-2.780227 8.03485,-4.17034 12.54224,-4.17034 3.46228,0 6.56518,0.713893 9.30883,2.141534 2.74352,1.352441 4.96461,3.268519 6.66303,5.748236 v -7.21355 h 16.75569 V 136.24825 H 398.60944 V 98.377309 c -1.89437,2.629821 -4.21345,4.733691 -6.9571,6.311591 -2.6782,1.57788 -5.74844,2.36755 -9.21072,2.36755 -4.44206,0 -8.55741,-1.3533 -12.34628,-4.05847 -3.78875,-2.70372 -6.82633,-6.498501 -9.11275,-11.382878 -2.22097,-4.884378 -3.33151,-10.444687 -3.33151,-16.681361 z m 40.95836,-0.112727 c 0,-3.381248 -0.58787,-6.199002 -1.76374,-8.453263 -1.11054,-2.329317 -2.58035,-4.057468 -4.4094,-5.184598 -1.82906,-1.202331 -3.75622,-1.803352 -5.78123,-1.803352 -1.95969,0 -3.85407,0.601021 -5.68325,1.803352 -1.82906,1.12713 -3.33152,2.855281 -4.50738,5.184598 -1.17574,2.329316 -1.76374,5.184743 -1.76374,8.56599 0,3.381392 0.588,6.236674 1.76374,8.565846 1.17586,2.254551 2.67832,3.983137 4.50738,5.184308 1.82918,1.127276 3.72356,1.690914 5.68325,1.690914 1.95969,0 3.85419,-0.563638 5.68325,-1.690914 1.89437,-1.201171 3.39684,-2.96743 4.50738,-5.297326 1.17587,-2.328881 1.76374,-5.184163 1.76374,-8.565555 z"
       id="path664" />
    <path
       inkscape:connector-curvature="0"
       style="fill:#ffffff;stroke-width:1.35694742"
       d="m 475.12339,43.374806 v 62.891974 h -16.75544 v -8.566131 c -1.69778,2.780521 -4.01698,5.035071 -6.9576,6.763661 -2.87327,1.65323 -6.0744,2.47912 -9.60213,2.47912 -4.18092,0 -7.87131,-1.05191 -11.07244,-3.15578 -3.20113,-2.1792 -5.683,-5.297331 -7.44686,-9.354361 -1.76386,-4.05848 -2.6458,-8.829841 -2.6458,-14.314805 V 43.374806 h 16.65759 v 34.151379 c 0,4.207723 0.94801,7.475953 2.8415,9.805849 1.89475,2.329896 4.4427,3.493395 7.64383,3.493395 3.26594,0 5.84566,-1.163499 7.74041,-3.493395 1.89476,-2.329896 2.8415,-5.598126 2.8415,-9.805849 V 43.374806 Z"
       id="path666" />
    <path
       inkscape:connector-curvature="0"
       style="fill:#ffffff;stroke-width:1.35694742"
       d="m 477.47309,74.708431 c 0,-6.462129 1.04586,-12.135165 3.13632,-17.019398 2.15527,-4.884088 5.06285,-8.641046 8.72019,-11.271017 3.65862,-2.629827 7.74169,-3.944885 12.2492,-3.944885 3.85432,0 7.21812,0.901675 10.09266,2.705027 2.93935,1.803496 5.19246,4.17034 6.76063,7.100821 v -8.904173 h 16.75543 v 62.891974 h -16.75543 v -8.903731 c -1.63298,2.931211 -3.91914,5.297331 -6.85849,7.101261 -2.87453,1.80247 -6.2396,2.70516 -10.09265,2.70516 -4.4427,0 -8.49273,-1.31563 -12.15135,-3.94545 -3.65734,-2.70518 -6.56492,-6.499951 -8.72019,-11.384333 -2.09046,-4.958274 -3.13632,-10.669272 -3.13632,-17.131256 z m 40.959,0.112583 c 0,-4.808888 -1.17549,-8.603518 -3.52773,-11.383745 -2.28616,-2.780082 -5.09462,-4.170195 -8.42664,-4.170195 -3.33203,0 -6.17353,1.390113 -8.5245,4.170195 -2.28616,2.705027 -3.42988,6.462129 -3.42988,11.271162 0,4.808888 1.14372,8.640466 3.42988,11.496327 2.35097,2.780517 5.19247,4.170051 8.5245,4.170051 3.33202,0 6.14048,-1.389534 8.42664,-4.170051 2.35224,-2.780516 3.52773,-6.574711 3.52773,-11.383744 z"
       id="path668" />
    <path
       inkscape:connector-curvature="0"
       style="fill:#ffffff;stroke-width:1.35694742"
       d="M 557.0757,22.861578 V 106.26678 H 540.32026 V 22.861578 Z"
       id="path670" />
    <path
       inkscape:connector-curvature="0"
       style="fill:#ffffff;stroke-width:1.35694742"
       d="m 572.56288,36.837622 c -2.94062,0 -5.35767,-0.97673 -7.25116,-2.930482 -1.82994,-2.028806 -2.74365,-4.508377 -2.74365,-7.438859 0,-3.005537 0.91371,-5.485254 2.74365,-7.43886 1.89349,-2.028806 4.31054,-3.043209 7.25116,-3.043209 2.87327,0 5.22551,1.014403 7.05418,3.043209 1.89476,1.953606 2.8415,4.433323 2.8415,7.43886 0,2.930482 -0.94674,5.410053 -2.8415,7.438859 -1.82867,1.953752 -4.18091,2.930482 -7.05418,2.930482 z m 8.32879,6.537184 v 62.891974 h -16.7567 V 43.374806 Z"
       id="path672" />
    <path
       inkscape:connector-curvature="0"
       style="fill:#ffffff;stroke-width:1.35694742"
       d="m 622.23699,89.924188 v 16.342592 h -8.52449 c -6.07567,0 -10.81193,-1.68945 -14.20876,-5.07128 -3.39684,-3.457181 -5.09462,-9.054433 -5.09462,-16.794672 V 59.379801 h -6.66405 V 43.374806 h 6.66405 V 28.046177 h 16.75543 v 15.328629 h 10.97459 v 16.004995 h -10.97459 v 25.247061 c 0,1.877827 0.39141,3.231137 1.17549,4.057033 0.78408,0.827345 2.09046,1.240293 3.91913,1.240293 z"
       id="path674" />
    <path
       inkscape:connector-curvature="0"
       style="fill:#ffffff;stroke-width:1.35694742"
       d="m 689.96402,43.374806 -36.83654,92.760424 h -18.03004 l 12.54275,-32.00997 -22.24273,-60.750454 h 18.715 l 12.6406,39.336557 12.54148,-39.336557 z"
       id="path676" />
    <path
       inkscape:connector-curvature="0"
       style="fill:#ffffff;stroke-width:1.35694742"
       d="m 442.46776,136.98141 c -4.79852,0 -8.56897,-4.07442 -8.56897,-9.07906 0,-5.00464 3.80857,-9.03993 8.56897,-9.03993 2.51236,-0.0391 4.8735,1.0867 6.43531,3.10363 l -2.55176,2.32844 c -1.0662,-1.1635 -2.36114,-1.97925 -3.92167,-1.97925 -2.85675,0 -5.06539,2.44436 -5.06539,5.58711 0,3.14276 2.20864,5.62624 5.06539,5.62624 1.59866,0 2.8936,-0.85343 3.99792,-2.09517 l 2.628,2.21108 c -1.5618,2.01693 -3.6942,3.33691 -6.5878,3.33691 z"
       id="path678" />
    <path
       inkscape:connector-curvature="0"
       style="fill:#ffffff;stroke-width:1.35694742"
       d="m 468.93461,127.90235 c 0,-4.96551 3.88482,-9.03993 8.64522,-9.03993 4.7604,0 8.64395,4.07442 8.64395,9.03993 0,4.96552 -3.88355,9.07906 -8.64395,9.07906 -4.7604,0 -8.64522,-4.07442 -8.64522,-9.07906 z m 13.71061,0 c 0,-3.33691 -2.17179,-5.6639 -5.06539,-5.6639 -2.89487,0 -5.10351,2.36612 -5.10351,5.6639 0,3.29779 2.17052,5.70303 5.10351,5.70303 2.93173,0 5.06539,-2.36612 5.06539,-5.70303 z"
       id="path680" />
    <path
       inkscape:connector-curvature="0"
       style="fill:#ffffff;stroke-width:1.35694742"
       d="m 507.20842,136.74958 v -17.65389 h 5.29286 c 5.33099,0 8.68335,2.56028 8.68335,8.61396 0,5.77982 -3.31424,9.03993 -7.99839,9.03993 z m 10.50948,-9.07906 c 0,-3.91938 -1.78928,-5.23792 -5.21662,-5.23792 h -1.8274 v 11.01775 h 2.39799 c 3.04737,0 4.64603,-2.21109 4.64603,-5.77983 z"
       id="path682" />
    <path
       inkscape:connector-curvature="0"
       style="fill:#ffffff;stroke-width:1.35694742"
       d="m 550.42817,132.55925 h -5.06539 l -1.18057,4.19033 h -3.65608 l 5.44663,-17.65389 h 3.8073 l 5.44663,17.65389 h -3.65608 z m -4.26606,-2.83268 h 3.46546 l -0.49434,-1.90101 c -0.45749,-1.74597 -1.02808,-3.80202 -1.21869,-4.92785 -0.305,1.66918 -0.72309,3.33691 -1.2187,4.92785 z"
       id="path684" />
    <path
       inkscape:connector-curvature="0"
       style="fill:#ffffff;stroke-width:1.35694742"
       d="m 582.88047,136.97997 c -4.79853,0 -8.56898,-4.07298 -8.56898,-9.07762 0,-5.00608 3.80858,-9.03993 8.56898,-9.03993 2.51363,-0.0391 4.87477,1.12437 6.4353,3.10363 l -2.55175,2.32699 c -1.0662,-1.1635 -2.36114,-1.9778 -3.92168,-1.9778 -2.85675,0 -5.06539,2.44436 -5.06539,5.58711 0,3.14276 2.20864,5.62479 5.06539,5.62479 1.59866,0 2.8936,-0.85343 3.99792,-2.09517 l 2.66613,2.21253 c -1.59993,2.01693 -3.73232,3.33547 -6.62592,3.33547 z"
       id="path686" />
    <path
       inkscape:connector-curvature="0"
       style="fill:#ffffff;stroke-width:1.35694742"
       d="m 613.87516,136.74958 v -7.45045 l -4.7604,-10.20344 h 3.80858 l 2.09427,5.31617 c 0.22874,0.50423 0.38123,1.00846 0.57058,1.55181 0.1525,-0.54335 0.34312,-1.04758 0.57186,-1.55181 l 2.32301,-5.31617 h 3.8467 l -5.06539,10.24256 v 7.41133 z"
       id="path688" />
  </g>
</svg>
