<?xml version="1.0" encoding="UTF-8" standalone="no"?>
<svg
   xmlns:dc="http://purl.org/dc/elements/1.1/"
   xmlns:cc="http://creativecommons.org/ns#"
   xmlns:rdf="http://www.w3.org/1999/02/22-rdf-syntax-ns#"
   xmlns:svg="http://www.w3.org/2000/svg"
   xmlns="http://www.w3.org/2000/svg"
   xmlns:sodipodi="http://sodipodi.sourceforge.net/DTD/sodipodi-0.dtd"
   xmlns:inkscape="http://www.inkscape.org/namespaces/inkscape"
   viewBox="0 0 1158 165"
   version="1.1"
   id="svg316"
   sodipodi:docname="codacy-quality-docs-logo.svg"
   inkscape:version="0.92.5 (2060ec1f9f, 2020-04-08)">
  <metadata
     id="metadata320">
    <rdf:RDF>
      <cc:Work
         rdf:about="">
        <dc:format>image/svg+xml</dc:format>
        <dc:type
           rdf:resource="http://purl.org/dc/dcmitype/StillImage" />
        <dc:title />
      </cc:Work>
    </rdf:RDF>
  </metadata>
  <sodipodi:namedview
     pagecolor="#ffffff"
     bordercolor="#666666"
     borderopacity="1"
     objecttolerance="10"
     gridtolerance="10"
     guidetolerance="10"
     inkscape:pageopacity="0"
     inkscape:pageshadow="2"
     inkscape:window-width="2590"
     inkscape:window-height="1237"
     id="namedview318"
     showgrid="false"
     inkscape:pagecheckerboard="true"
     inkscape:zoom="5.6568542"
     inkscape:cx="301.52638"
     inkscape:cy="89.287098"
     inkscape:window-x="582"
     inkscape:window-y="102"
     inkscape:window-maximized="0"
     inkscape:current-layer="g314" />
  <defs
     id="defs266">
    <style
       id="style264">
      .a {
        fill: #fff;
      }

      .b {
        isolation: isolate;
      }

      .c {
        fill: #6695ff;
      }
    </style>
  </defs>
  <g
     id="g314">
    <g
       class="b"
       id="g312"
       transform="matrix(1.5805262,0,0,1.5805262,-808.76842,-52.206929)"
       style="isolation:isolate">
      <g
         class="b"
         id="g310"
         style="isolation:isolate">
        <path
           class="c"
           d="m 966.20332,83.81024 q 0,9.72192 -2.68671,15.639 a 17.11018,17.11018 0 0 1 -8.0929,8.59666 q -5.40618,2.6908 -15.211,2.68671 H 923.79344 V 56.8858 H 940.057 q 9.5284,0 15.1537,2.76043 a 17.35718,17.35718 0 0 1 8.30587,8.62123 q 2.68469,5.85465 2.68675,15.54278 z M 954.879,83.73242 q 0,-7.04033 -1.38022,-10.44786 a 8.767,8.767 0 0 0 -4.68945,-4.882 q -3.30515,-1.48056 -9.80486,-1.47851 h -4.20208 v 33.77023 h 4.20208 q 6.49971,0 9.78438,-1.499 a 8.8746,8.8746 0 0 0 4.68946,-5.00072 Q 954.879,90.69288 954.879,83.73242 Z"
           id="path302"
           inkscape:connector-curvature="0"
           style="fill:#6695ff" />
        <path
           class="c"
           d="m 1032.2612,83.81024 q 0,14.04072 -5.9346,21.0493 -5.9283,7.00347 -17.2547,7.00347 -11.94275,0 -17.566,-7.37616 -5.62121,-7.37208 -5.62325,-20.67661 0,-13.38645 5.62325,-20.71961 5.62121,-7.32907 17.566,-7.33521 12.0226,0 17.607,7.33521 5.5844,7.33521 5.5823,20.71961 z m -11.3203,0 q 0,-9.57141 -2.7071,-13.9496 -2.7031,-4.37409 -9.1619,-4.37409 -6.4567,0 -9.16184,4.37409 -2.70309,4.38024 -2.70309,13.9496 0,9.56834 2.74,13.94754 2.74613,4.37411 9.12503,4.3741 6.4567,0 9.1618,-4.3741 2.7092,-4.38022 2.7071,-13.94754 z"
           id="path304"
           inkscape:connector-curvature="0"
           style="fill:#6695ff" />
        <path
           class="c"
           d="m 1098.2412,101.82061 a 21.37593,21.37593 0 0 1 -8.5025,7.60962 28.40286,28.40286 0 0 1 -12.3891,2.43278 q -25.022,0 -25.02,-28.05277 0,-14.35711 6.344,-21.207 6.34,-6.84374 18.2869,-6.84783 7.8942,0 12.8765,2.66623 a 19.2113,19.2113 0 0 1 7.5892,6.983 l -8.523,6.61848 a 18.0577,18.0577 0 0 0 -3.4239,-4.04645 10.69665,10.69665 0 0 0 -3.5386,-1.86759 15.88289,15.88289 0 0 0 -4.7468,-0.62253 q -6.6164,0 -10.0792,4.21846 -3.4649,4.22665 -3.4608,14.10523 0,9.21816 3.2478,13.77143 3.2498,4.55226 10.37,4.55021 4.7857,0 7.4499,-1.82664 a 19.87387,19.87387 0 0 0 4.8451,-4.86556 z"
           id="path306"
           inkscape:connector-curvature="0"
           style="fill:#6695ff" />
        <path
           class="c"
           d="m 1158,95.12841 q 0,8.097 -5.312,12.41375 -5.314,4.3188 -15.6615,4.32085 a 30.08823,30.08823 0 0 1 -12.4302,-2.37544 19.39489,19.39489 0 0 1 -8.5802,-7.667 l 8.4451,-6.45465 a 19.14739,19.14739 0 0 0 3.5386,3.96453 12.4056,12.4056 0 0 0 3.9686,2.06418 17.31264,17.31264 0 0 0 5.2915,0.73721 13.33884,13.33884 0 0 0 6.983,-1.53585 5.11673,5.11673 0 0 0 2.5106,-4.68945 4.94579,4.94579 0 0 0 -0.8765,-2.99388 7.02948,7.02948 0 0 0 -2.6252,-2.08057 34.44634,34.44634 0 0 0 -6.0697,-2.00274 q -4.2021,-1.13039 -7.9168,-2.2751 a 24.11663,24.11663 0 0 1 -6.4219,-2.9775 13.45884,13.45884 0 0 1 -4.2594,-4.59116 14.0574,14.0574 0 0 1 -1.5563,-6.96251 q 0,-7.66695 5.1768,-11.96733 5.1728,-4.29423 14.822,-4.30037 13.9701,0 19.7654,9.5755 l -8.3632,6.53656 a 13.98756,13.98756 0 0 0 -4.9803,-4.90652 13.7891,13.7891 0 0 0 -6.5775,-1.47441 12.3,12.3 0 0 0 -6.2048,1.38021 4.648,4.648 0 0 0 -2.3919,4.33724 4.34382,4.34382 0 0 0 2.4902,3.98911 36.07894,36.07894 0 0 0 8.6744,2.78091 q 3.4219,0.89692 6.77,1.92493 a 21.3324,21.3324 0 0 1 5.9714,2.86282 13.57566,13.57566 0 0 1 4.2226,4.7816 15.88086,15.88086 0 0 1 1.5972,7.58508 z"
           id="path308"
           inkscape:connector-curvature="0"
           style="fill:#6695ff" />
      </g>
    </g>
    <path
       inkscape:connector-curvature="0"
       style="fill:#ffffff;stroke-width:1.83598876"
       d="m 136.5,80.402723 c 0,-8.438403 1.50257,-15.96166 4.5076,-22.569975 3.09361,-6.608311 7.20355,-11.742556 12.32983,-15.402534 5.21483,-3.761727 10.87139,-5.642589 16.97,-5.642589 4.68458,0 8.88289,0.965917 12.59513,2.897558 3.71204,1.829887 6.71727,4.422398 9.01528,7.777528 v -9.760143 h 22.67093 V 163.36298 h -22.67093 v -51.24043 c -2.56318,3.55819 -5.70093,6.40482 -9.41318,8.53976 -3.62368,2.13491 -7.77779,3.20336 -12.46234,3.20336 -6.01026,0 -11.57845,-1.83105 -16.70489,-5.49125 -5.12628,-3.6582 -9.23622,-8.79262 -12.32983,-15.40135 C 138.00257,96.364378 136.5,88.841121 136.5,80.402723 Z M 191.91784,80.2502 c 0,-4.574925 -0.79543,-8.387431 -2.38642,-11.437507 -1.50256,-3.151636 -3.49128,-5.489871 -5.96603,-7.014913 -2.47477,-1.626787 -5.08227,-2.439988 -7.82217,-2.439988 -2.65152,0 -5.21467,0.813201 -7.68961,2.439988 -2.47478,1.525042 -4.50764,3.863277 -6.0986,7.014913 -1.59081,3.151632 -2.38639,7.015105 -2.38639,11.590033 0,4.575119 0.79558,8.438398 2.38639,11.589832 1.59096,3.050474 3.62382,5.389301 6.0986,7.014521 2.47494,1.525231 5.03809,2.287871 7.68961,2.287871 2.6515,0 5.21485,-0.76264 7.68961,-2.287871 2.56312,-1.62522 4.59603,-4.015019 6.09859,-7.167435 1.59099,-3.151047 2.38642,-7.014323 2.38642,-11.589444 z"
       id="path664" />
    <path
       inkscape:connector-curvature="0"
       style="fill:#ffffff;stroke-width:1.83598876"
       d="M 295.44342,37.702568 V 122.79722 H 272.77281 V 111.207 c -2.29715,3.76212 -5.43509,6.8126 -9.41383,9.15143 -3.88761,2.23686 -8.21884,3.35431 -12.99196,3.35431 -5.65688,0 -10.65008,-1.42325 -14.98132,-4.26987 -4.33121,-2.94852 -7.68929,-7.16743 -10.07583,-12.6567 -2.38655,-5.49123 -3.57982,-11.947027 -3.57982,-19.368345 V 37.702568 h 22.53816 v 46.207801 c 0,5.693173 1.2827,10.115181 3.84465,13.267599 2.56364,3.152412 6.0111,4.726662 10.34233,4.726662 4.41889,0 7.90936,-1.57425 10.47297,-4.726662 2.56368,-3.152418 3.84465,-7.574426 3.84465,-13.267599 V 37.702568 Z"
       id="path666" />
    <path
       inkscape:connector-curvature="0"
       style="fill:#ffffff;stroke-width:1.83598876"
       d="m 298.62264,80.097868 c 0,-8.743448 1.41507,-16.419225 4.24353,-23.027737 2.91613,-6.608311 6.85018,-11.691582 11.79866,-15.250012 4.95022,-3.55823 10.47473,-5.337544 16.5735,-5.337544 5.21504,0 9.76635,1.219993 13.65565,3.659983 3.97704,2.440181 7.02558,5.642588 9.14736,9.607615 V 37.702568 h 22.67056 v 85.094652 h -22.67056 v -12.047 c -2.20948,3.966 -5.30271,7.16744 -9.27977,9.60821 -3.88929,2.43879 -8.44235,3.66014 -13.65562,3.66014 -6.0111,0 -11.4909,-1.78007 -16.44112,-5.3383 -4.94848,-3.66017 -8.88253,-8.7946 -11.79866,-15.40333 -2.82846,-6.708675 -4.24353,-14.435819 -4.24353,-23.179072 z m 55.4187,0.152326 c 0,-6.506568 -1.59046,-11.640807 -4.77313,-15.402538 -3.09327,-3.761531 -6.89318,-5.642394 -11.40148,-5.642394 -4.50834,0 -8.35296,1.880863 -11.5339,5.642394 -3.09323,3.65998 -4.64073,8.743447 -4.64073,15.250206 0,6.506565 1.5475,11.690803 4.64073,15.554865 3.18094,3.762122 7.02556,5.642213 11.5339,5.642213 4.5083,0 8.30821,-1.880091 11.40148,-5.642213 3.18267,-3.762121 4.77313,-8.895774 4.77313,-15.402533 z"
       id="path668" />
    <path
       inkscape:connector-curvature="0"
       style="fill:#ffffff;stroke-width:1.83598876"
       d="M 406.32726,9.9475807 V 122.79722 H 383.65664 V 9.9475807 Z"
       id="path670" />
    <path
       inkscape:connector-curvature="0"
       style="fill:#ffffff;stroke-width:1.83598876"
       d="m 427.28186,28.85757 c -3.97875,0 -7.2491,-1.321543 -9.81105,-3.965023 -2.47595,-2.745036 -3.71221,-6.099968 -3.71221,-10.064995 0,-4.066577 1.23626,-7.4217065 3.71221,-10.0649906 2.56195,-2.7450331 5.8323,-4.11755128 9.81105,-4.11755128 3.88762,0 7.07025,1.37251818 9.5445,4.11755128 2.56367,2.6432841 3.84466,5.9984136 3.84466,10.0649906 0,3.965027 -1.28099,7.319959 -3.84466,10.064995 -2.47425,2.64348 -5.65688,3.965023 -9.5445,3.965023 z m 11.26909,8.844998 v 85.094652 h -22.6723 V 37.702568 Z"
       id="path672" />
    <path
       inkscape:connector-curvature="0"
       style="fill:#ffffff;stroke-width:1.83598876"
       d="m 494.49235,100.68522 v 22.112 h -11.53387 c -8.22056,0 -14.62884,-2.28588 -19.22488,-6.86159 -4.59603,-4.67765 -6.89316,-12.2509 -6.89316,-22.723668 V 59.35779 h -9.01666 V 37.702568 h 9.01666 V 16.962491 h 22.6706 v 20.740077 h 14.84893 V 59.35779 h -14.84893 v 34.160003 c 0,2.54075 0.52957,4.371821 1.59044,5.489282 1.06094,1.119425 2.82846,1.678145 5.30275,1.678145 z"
       id="path674" />
    <path
       inkscape:connector-curvature="0"
       style="fill:#ffffff;stroke-width:1.83598876"
       d="M 586.12898,37.702568 536.28809,163.2101 h -24.39516 l 16.9707,-43.31041 -30.09504,-82.197122 h 25.32193 l 17.10308,53.223499 16.96899,-53.223499 z"
       id="path676" />
    <path
       inkscape:connector-curvature="0"
       style="fill:#ffffff;stroke-width:1.83598876"
       d="m 251.25941,164.35499 c -6.49254,0 -11.59406,-5.51277 -11.59406,-12.28424 0,-6.7714 5.15311,-12.23129 11.59406,-12.23129 3.39926,-0.053 6.59398,1.47036 8.70715,4.19934 l -3.4526,3.15044 c -1.44261,-1.57425 -3.1947,-2.678 -5.30613,-2.678 -3.86526,0 -6.85363,3.3073 -6.85363,7.55951 0,4.25225 2.98837,7.6125 6.85363,7.6125 2.16304,0 3.91511,-1.15474 5.40929,-2.83484 l 3.55575,2.99165 c -2.11315,2.72897 -4.99835,4.51493 -8.91346,4.51493 z"
       id="path678" />
    <path
       inkscape:connector-curvature="0"
       style="fill:#ffffff;stroke-width:1.83598876"
       d="m 287.06984,152.07075 c 0,-6.71848 5.25625,-12.23129 11.6972,-12.23129 6.44095,0 11.69551,5.51281 11.69551,12.23129 0,6.71851 -5.25456,12.28424 -11.69551,12.28424 -6.44095,0 -11.6972,-5.51277 -11.6972,-12.28424 z m 18.55084,0 c 0,-4.5149 -2.93849,-7.6634 -6.85364,-7.6634 -3.91682,0 -6.90517,3.20142 -6.90517,7.6634 0,4.46203 2.93675,7.7164 6.90517,7.7164 3.96673,0 6.85364,-3.20144 6.85364,-7.7164 z"
       id="path680" />
    <path
       inkscape:connector-curvature="0"
       style="fill:#ffffff;stroke-width:1.83598876"
       d="m 338.85537,164.04133 v -23.88624 h 7.16142 c 7.21297,0 11.74882,3.46415 11.74882,11.65496 0,7.82024 -4.48429,12.23128 -10.82204,12.23128 z m 14.21964,-12.28422 c 0,-5.30304 -2.42093,-7.08708 -7.05822,-7.08708 h -2.47253 v 14.90736 h 3.24452 c 4.12319,0 6.28623,-2.99168 6.28623,-7.82028 z"
       id="path682" />
    <path
       inkscape:connector-curvature="0"
       style="fill:#ffffff;stroke-width:1.83598876"
       d="m 397.33295,158.37168 h -6.85361 l -1.59735,5.66965 h -4.9468 l 7.36946,-23.88624 h 5.15138 l 7.36945,23.88624 h -4.94677 z m -5.77209,-3.8327 h 4.68886 l -0.66887,-2.5721 c -0.61897,-2.36237 -1.39102,-5.14425 -1.64889,-6.66753 -0.41268,2.25844 -0.9784,4.51492 -1.64897,6.66753 z"
       id="path684" />
    <path
       inkscape:connector-curvature="0"
       style="fill:#ffffff;stroke-width:1.83598876"
       d="m 441.24185,164.35305 c -6.49255,0 -11.59408,-5.51083 -11.59408,-12.2823 0,-6.77335 5.15314,-12.23129 11.59408,-12.23129 3.40101,-0.053 6.5957,1.52132 8.70715,4.19934 l -3.45258,3.14849 c -1.4426,-1.57428 -3.1947,-2.67605 -5.30614,-2.67605 -3.86531,0 -6.85363,3.3073 -6.85363,7.55951 0,4.25225 2.98832,7.61053 6.85363,7.61053 2.16301,0 3.91512,-1.15471 5.40928,-2.83483 l 3.60737,2.99361 c -2.16481,2.72897 -5.04997,4.51299 -8.96508,4.51299 z"
       id="path686" />
    <path
       inkscape:connector-curvature="0"
       style="fill:#ffffff;stroke-width:1.83598876"
       d="m 483.17855,164.04133 v -10.08067 l -6.44095,-13.80557 h 5.15314 l 2.83358,7.19294 c 0.30948,0.68224 0.51585,1.3645 0.77201,2.09967 0.20642,-0.73517 0.46425,-1.41743 0.77374,-2.09967 l 3.1431,-7.19294 h 5.20475 l -6.85367,13.85849 v 10.02775 z"
       id="path688" />
  </g>
</svg>
