<svg width="150" height="150" viewBox="0 0 150 150" fill="none" xmlns="http://www.w3.org/2000/svg">
<rect width="150" height="149.831" rx="16" fill="#172B4D"/>
<path d="M40 61.9446C40 56.3446 41.1545 51.3518 43.4635 46.9663C45.8404 42.5807 48.9983 39.1735 52.9372 36.7446C56.944 34.2482 61.2903 33 65.9762 33C69.5755 33 72.8014 33.641 75.6536 34.9229C78.5059 36.1373 80.8149 37.8578 82.5806 40.0843V33.6072H100V117H82.5806V82.9952C80.6112 85.3566 78.2003 87.2458 75.348 88.6626C72.5637 90.0795 69.3718 90.7879 65.7725 90.7879C61.1545 90.7879 56.8761 89.5735 52.9372 87.1446C48.9983 84.7157 45.8404 81.3084 43.4635 76.9229C41.1545 72.5374 40 67.5446 40 61.9446ZM82.5806 61.8434C82.5806 58.8072 81.9694 56.2771 80.747 54.253C79.5925 52.1614 78.0645 50.6096 76.163 49.5976C74.2615 48.5181 72.2581 47.9783 70.1528 47.9783C68.1154 47.9783 66.146 48.5181 64.2445 49.5976C62.343 50.6096 60.781 52.1614 59.5586 54.253C58.3362 56.3446 57.725 58.9084 57.725 61.9446C57.725 64.9807 58.3362 67.5446 59.5586 69.6361C60.781 71.6602 62.343 73.212 64.2445 74.2916C66.146 75.3036 68.1154 75.8096 70.1528 75.8096C72.1901 75.8096 74.1596 75.3036 76.0611 74.2916C78.0306 73.212 79.5925 71.6265 80.747 69.5349C81.9694 67.4434 82.5806 64.8795 82.5806 61.8434Z" fill="white"/>
</svg>
