<svg xmlns="http://www.w3.org/2000/svg" width="1556" height="684" fill="none"><path fill="#fff" d="M0 0h1556v684H0z"/><g filter="url(#a)"><path fill="#fff" d="M1289 297h201v83h-201z"/><path stroke="#000" stroke-width="4" d="M1291 299h197v79h-197z"/></g><path fill="#000" d="M1315.78 313.52v6.42h8.13v3.225h-8.13V332h-4.05v-21.69h13.68v3.21h-9.63Zm24.56 3.09V332h-2.26c-.49 0-.8-.225-.93-.675l-.26-1.23c-.63.64-1.32 1.16-2.08 1.56-.76.39-1.66.585-2.69.585-.84 0-1.58-.14-2.23-.42a4.553 4.553 0 0 1-1.62-1.215 5.403 5.403 0 0 1-1.01-1.845c-.22-.72-.33-1.51-.33-2.37v-9.78h3.71v9.78c0 .94.21 1.67.64 2.19.44.51 1.1.765 1.97.765.64 0 1.24-.14 1.8-.42a6.45 6.45 0 0 0 1.59-1.185v-11.13h3.7Zm7.42-6.9V332h-3.7v-22.29h3.7Zm7.45 0V332h-3.71v-22.29h3.71Zm19.11 15.72c-1.07.05-1.97.145-2.7.285-.73.13-1.31.3-1.75.51-.44.21-.76.455-.95.735-.19.28-.28.585-.28.915 0 .65.19 1.115.57 1.395.39.28.89.42 1.51.42.76 0 1.42-.135 1.97-.405.56-.28 1.1-.7 1.63-1.26v-2.595Zm-8.49-6.675c1.77-1.62 3.9-2.43 6.39-2.43.9 0 1.71.15 2.42.45.71.29 1.31.7 1.8 1.23.49.52.86 1.145 1.11 1.875.26.73.39 1.53.39 2.4V332h-1.68c-.35 0-.62-.05-.81-.15-.19-.11-.34-.325-.45-.645l-.33-1.11c-.39.35-.77.66-1.14.93-.37.26-.76.48-1.16.66-.4.18-.83.315-1.29.405-.45.1-.95.15-1.5.15a6.07 6.07 0 0 1-1.8-.255 4.023 4.023 0 0 1-1.42-.795c-.4-.35-.71-.785-.93-1.305-.22-.52-.33-1.125-.33-1.815 0-.39.06-.775.19-1.155.13-.39.34-.76.63-1.11.3-.35.69-.68 1.16-.99.47-.31 1.04-.58 1.72-.81.69-.23 1.49-.415 2.4-.555.91-.15 1.95-.24 3.12-.27v-.9c0-1.03-.22-1.79-.66-2.28-.44-.5-1.07-.75-1.9-.75-.6 0-1.1.07-1.5.21-.39.14-.74.3-1.04.48-.3.17-.57.325-.82.465-.24.14-.51.21-.81.21-.26 0-.48-.065-.66-.195-.18-.14-.33-.3-.44-.48l-.66-1.185Zm19.06-.255c.31-.31.64-.595.98-.855a5.952 5.952 0 0 1 2.34-1.11c.44-.11.92-.165 1.44-.165.84 0 1.58.145 2.23.435.65.28 1.19.68 1.62 1.2.44.51.77 1.125.99 1.845.23.71.35 1.495.35 2.355V332h-3.71v-9.795c0-.94-.21-1.665-.64-2.175-.43-.52-1.09-.78-1.97-.78-.64 0-1.24.145-1.8.435a6.45 6.45 0 0 0-1.59 1.185V332h-3.7v-15.39h2.26c.48 0 .8.225.95.675l.25 1.215Zm21.6 6.93c-1.07.05-1.97.145-2.7.285-.73.13-1.32.3-1.76.51-.44.21-.75.455-.94.735-.19.28-.29.585-.29.915 0 .65.19 1.115.57 1.395.39.28.9.42 1.52.42.76 0 1.41-.135 1.96-.405.56-.28 1.11-.7 1.64-1.26v-2.595Zm-8.49-6.675c1.77-1.62 3.9-2.43 6.39-2.43.9 0 1.7.15 2.41.45.71.29 1.31.7 1.8 1.23.49.52.86 1.145 1.11 1.875.26.73.39 1.53.39 2.4V332h-1.68c-.35 0-.62-.05-.81-.15-.19-.11-.34-.325-.45-.645l-.33-1.11c-.39.35-.77.66-1.14.93-.37.26-.75.48-1.15.66-.4.18-.83.315-1.29.405-.45.1-.95.15-1.5.15a6.07 6.07 0 0 1-1.8-.255 4.069 4.069 0 0 1-1.43-.795c-.4-.35-.71-.785-.93-1.305-.22-.52-.33-1.125-.33-1.815 0-.39.07-.775.2-1.155.13-.39.34-.76.63-1.11.3-.35.68-.68 1.15-.99.47-.31 1.05-.58 1.73-.81.69-.23 1.49-.415 2.4-.555.91-.15 1.95-.24 3.12-.27v-.9c0-1.03-.22-1.79-.66-2.28-.44-.5-1.08-.75-1.91-.75-.6 0-1.1.07-1.5.21-.39.14-.73.3-1.03.48-.3.17-.58.325-.83.465-.24.14-.51.21-.81.21-.26 0-.48-.065-.66-.195-.18-.14-.32-.3-.43-.48l-.66-1.185Zm19.34-9.045V332h-3.7v-22.29h3.7Zm17.68 6.9-8.39 19.62c-.11.26-.25.455-.43.585-.17.14-.44.21-.8.21h-2.76l2.88-6.18-6.22-14.235h3.25c.29 0 .52.07.68.21.17.14.29.3.37.48l3.27 7.98c.11.27.2.54.27.81.08.27.16.545.23.825.09-.28.18-.555.27-.825.09-.28.19-.555.3-.825l3.09-7.965a1.091 1.091 0 0 1 1.02-.69h2.97Zm10.9 3c-.1.16-.2.275-.31.345-.11.06-.25.09-.42.09-.18 0-.38-.05-.59-.15-.2-.1-.43-.21-.7-.33-.27-.13-.58-.245-.93-.345-.34-.1-.75-.15-1.22-.15-.73 0-1.3.155-1.72.465-.41.31-.62.715-.62 1.215 0 .33.11.61.32.84.22.22.5.415.85.585.36.17.77.325 1.22.465.45.13.9.275 1.36.435.47.16.93.345 1.38.555.45.2.85.46 1.2.78.36.31.65.685.86 1.125.22.44.33.97.33 1.59 0 .74-.14 1.425-.41 2.055-.26.62-.65 1.16-1.17 1.62-.52.45-1.16.805-1.93 1.065-.76.25-1.64.375-2.64.375-.53 0-1.05-.05-1.56-.15-.5-.09-.99-.22-1.46-.39-.46-.17-.89-.37-1.29-.6-.39-.23-.73-.48-1.03-.75l.85-1.41c.11-.17.24-.3.39-.39.15-.09.34-.135.57-.135.23 0 .45.065.65.195.21.13.45.27.72.42.27.15.58.29.94.42.37.13.84.195 1.4.195.44 0 .81-.05 1.12-.15.32-.11.58-.25.78-.42.21-.17.36-.365.45-.585.1-.23.15-.465.15-.705 0-.36-.11-.655-.33-.885-.21-.23-.49-.43-.85-.6a7.45 7.45 0 0 0-1.22-.45c-.45-.14-.91-.29-1.39-.45-.47-.16-.94-.345-1.4-.555-.45-.22-.85-.495-1.21-.825-.35-.33-.64-.735-.86-1.215-.21-.48-.31-1.06-.31-1.74 0-.63.12-1.23.37-1.8.25-.57.62-1.065 1.1-1.485.49-.43 1.09-.77 1.81-1.02.73-.26 1.57-.39 2.52-.39 1.06 0 2.03.175 2.9.525.87.35 1.59.81 2.17 1.38l-.84 1.335Zm7.64-3V332h-3.72v-15.39h3.72Zm.51-4.485c0 .32-.07.62-.2.9s-.3.525-.52.735c-.21.21-.46.38-.75.51-.29.12-.6.18-.93.18-.32 0-.63-.06-.92-.18a2.521 2.521 0 0 1-1.24-1.245 2.26 2.26 0 0 1-.18-.9c0-.33.06-.64.18-.93.13-.29.3-.54.51-.75a2.3 2.3 0 0 1 .73-.495c.29-.13.6-.195.92-.195.33 0 .64.065.93.195.29.12.54.285.75.495.22.21.39.46.52.75s.2.6.2.93Zm12.65 7.485c-.1.16-.2.275-.31.345-.11.06-.25.09-.42.09-.18 0-.38-.05-.59-.15-.2-.1-.43-.21-.7-.33-.27-.13-.58-.245-.93-.345-.34-.1-.75-.15-1.22-.15-.73 0-1.3.155-1.72.465-.41.31-.62.715-.62 1.215 0 .33.11.61.32.84.22.22.5.415.85.585.36.17.77.325 1.22.465.45.13.9.275 1.36.435.47.16.93.345 1.38.555.45.2.85.46 1.2.78.36.31.65.685.86 1.125.22.44.33.97.33 1.59 0 .74-.14 1.425-.41 2.055-.26.62-.65 1.16-1.17 1.62-.52.45-1.16.805-1.93 1.065-.76.25-1.64.375-2.64.375-.53 0-1.05-.05-1.56-.15-.5-.09-.99-.22-1.46-.39-.46-.17-.89-.37-1.29-.6-.39-.23-.73-.48-1.03-.75l.85-1.41c.11-.17.24-.3.39-.39.15-.09.34-.135.57-.135.23 0 .45.065.65.195.21.13.45.27.72.42.27.15.58.29.94.42.37.13.84.195 1.4.195.44 0 .81-.05 1.12-.15.32-.11.58-.25.78-.42.21-.17.36-.365.45-.585.1-.23.15-.465.15-.705 0-.36-.11-.655-.33-.885-.21-.23-.49-.43-.85-.6a7.45 7.45 0 0 0-1.22-.45c-.45-.14-.91-.29-1.39-.45-.47-.16-.94-.345-1.4-.555-.45-.22-.85-.495-1.21-.825-.35-.33-.64-.735-.86-1.215-.21-.48-.31-1.06-.31-1.74 0-.63.12-1.23.37-1.8.25-.57.62-1.065 1.1-1.485.49-.43 1.09-.77 1.81-1.02.73-.26 1.57-.39 2.52-.39 1.06 0 2.03.175 2.9.525.87.35 1.59.81 2.17 1.38l-.84 1.335Zm-116.74 35.67c.48-.92 1.05-1.64 1.71-2.16.66-.53 1.44-.795 2.34-.795.71 0 1.28.155 1.71.465l-.24 2.775c-.05.18-.12.31-.22.39a.613.613 0 0 1-.38.105c-.15 0-.37-.025-.67-.075-.29-.05-.58-.075-.86-.075-.41 0-.77.06-1.09.18-.32.12-.61.295-.87.525-.25.22-.48.49-.68.81-.19.32-.37.685-.54 1.095V368h-3.7v-15.39h2.17c.38 0 .65.07.8.21.15.13.25.37.3.72l.22 1.74Zm17.18 3.255c0-.48-.07-.93-.21-1.35-.13-.43-.33-.805-.6-1.125-.27-.32-.62-.57-1.04-.75-.41-.19-.89-.285-1.44-.285-1.07 0-1.91.305-2.53.915-.61.61-1 1.475-1.17 2.595h6.99Zm-7.07 2.235c.06.79.2 1.475.42 2.055.22.57.51 1.045.87 1.425.36.37.79.65 1.28.84.5.18 1.05.27 1.65.27.6 0 1.11-.07 1.54-.21a6.9 6.9 0 0 0 1.14-.465c.33-.17.62-.325.86-.465.25-.14.49-.21.72-.21.31 0 .54.115.69.345l1.06 1.35c-.41.48-.87.885-1.38 1.215-.51.32-1.04.58-1.6.78-.55.19-1.12.325-1.7.405-.57.08-1.12.12-1.66.12-1.07 0-2.07-.175-2.99-.525a6.816 6.816 0 0 1-2.4-1.575c-.68-.7-1.21-1.56-1.6-2.58-.39-1.03-.59-2.22-.59-3.57 0-1.05.17-2.035.51-2.955a7.1 7.1 0 0 1 1.46-2.415 6.912 6.912 0 0 1 2.32-1.635c.92-.4 1.96-.6 3.11-.6.97 0 1.86.155 2.68.465.82.31 1.53.765 2.12 1.365.59.59 1.05 1.32 1.38 2.19.34.86.51 1.845.51 2.955 0 .56-.06.94-.18 1.14-.12.19-.35.285-.69.285h-9.53Zm22.57-5.16c-.1.16-.21.275-.32.345-.11.06-.25.09-.42.09-.18 0-.37-.05-.58-.15-.2-.1-.44-.21-.71-.33-.27-.13-.58-.245-.93-.345a4.3 4.3 0 0 0-1.21-.15c-.73 0-1.31.155-1.73.465-.41.31-.61.715-.61 1.215 0 .33.1.61.31.84.22.22.51.415.86.585.36.17.76.325 1.21.465.45.13.91.275 1.37.435.47.16.93.345 1.38.555.45.2.85.46 1.2.78.36.31.64.685.85 1.125.22.44.33.97.33 1.59 0 .74-.13 1.425-.4 2.055-.26.62-.65 1.16-1.17 1.62-.52.45-1.17.805-1.94 1.065-.76.25-1.64.375-2.64.375-.53 0-1.05-.05-1.56-.15a8.478 8.478 0 0 1-2.74-.99c-.39-.23-.74-.48-1.04-.75l.86-1.41c.11-.17.24-.3.39-.39.15-.09.34-.135.57-.135.23 0 .44.065.64.195.21.13.45.27.72.42.27.15.59.29.95.42.37.13.83.195 1.39.195.44 0 .82-.05 1.13-.15.32-.11.58-.25.78-.42.21-.17.36-.365.45-.585.1-.23.15-.465.15-.705 0-.36-.11-.655-.33-.885-.21-.23-.5-.43-.86-.6a7.32 7.32 0 0 0-1.21-.45c-.45-.14-.92-.29-1.4-.45a14.9 14.9 0 0 1-1.39-.555c-.45-.22-.86-.495-1.22-.825-.35-.33-.63-.735-.85-1.215-.21-.48-.32-1.06-.32-1.74 0-.63.13-1.23.38-1.8.25-.57.61-1.065 1.09-1.485.49-.43 1.1-.77 1.82-1.02.73-.26 1.57-.39 2.52-.39 1.06 0 2.02.175 2.89.525.87.35 1.6.81 2.18 1.38l-.84 1.335Zm17.05-3V368h-2.26c-.49 0-.8-.225-.93-.675l-.26-1.23c-.63.64-1.32 1.16-2.08 1.56-.76.39-1.66.585-2.69.585-.84 0-1.58-.14-2.23-.42a4.553 4.553 0 0 1-1.62-1.215 5.403 5.403 0 0 1-1.01-1.845c-.22-.72-.33-1.51-.33-2.37v-9.78h3.71v9.78c0 .94.21 1.67.64 2.19.44.51 1.1.765 1.97.765.64 0 1.24-.14 1.8-.42a6.45 6.45 0 0 0 1.59-1.185v-11.13h3.7Zm7.42-6.9V368h-3.7v-22.29h3.7Zm8.83 22.53c-1.34 0-2.37-.375-3.09-1.125-.71-.76-1.07-1.805-1.07-3.135v-8.595h-1.57c-.2 0-.37-.065-.51-.195s-.21-.325-.21-.585v-1.47l2.47-.405.78-4.2a.83.83 0 0 1 .29-.465c.14-.11.32-.165.54-.165h1.92v4.845h4.11v2.64h-4.11v8.34c0 .48.11.855.34 1.125.24.27.57.405.98.405.23 0 .42-.025.57-.075.16-.06.29-.12.4-.18.12-.06.23-.115.32-.165.09-.06.18-.09.27-.09.11 0 .2.03.27.09.07.05.14.13.22.24l1.11 1.8c-.54.45-1.16.79-1.86 1.02-.7.23-1.42.345-2.17.345Zm15.42-12.63c-.1.16-.21.275-.32.345-.11.06-.25.09-.42.09-.18 0-.37-.05-.58-.15-.2-.1-.44-.21-.71-.33-.27-.13-.58-.245-.93-.345a4.3 4.3 0 0 0-1.21-.15c-.73 0-1.31.155-1.73.465-.41.31-.61.715-.61 1.215 0 .33.1.61.31.84.22.22.51.415.86.585.36.17.76.325 1.21.465.45.13.91.275 1.37.435.47.16.93.345 1.38.555.45.2.85.46 1.2.78.36.31.64.685.85 1.125.22.44.33.97.33 1.59 0 .74-.13 1.425-.4 2.055-.26.62-.65 1.16-1.17 1.62-.52.45-1.17.805-1.94 1.065-.76.25-1.64.375-2.64.375-.53 0-1.05-.05-1.56-.15a8.478 8.478 0 0 1-2.74-.99c-.39-.23-.74-.48-1.04-.75l.86-1.41c.11-.17.24-.3.39-.39.15-.09.34-.135.57-.135.23 0 .44.065.64.195.21.13.45.27.72.42.27.15.59.29.95.42.37.13.83.195 1.39.195.44 0 .82-.05 1.13-.15.32-.11.58-.25.78-.42.21-.17.36-.365.45-.585.1-.23.15-.465.15-.705 0-.36-.11-.655-.33-.885-.21-.23-.5-.43-.86-.6a7.32 7.32 0 0 0-1.21-.45c-.45-.14-.92-.29-1.4-.45a14.9 14.9 0 0 1-1.39-.555c-.45-.22-.86-.495-1.22-.825-.35-.33-.63-.735-.85-1.215-.21-.48-.32-1.06-.32-1.74 0-.63.13-1.23.38-1.8.25-.57.61-1.065 1.09-1.485.49-.43 1.1-.77 1.82-1.02.73-.26 1.57-.39 2.52-.39 1.06 0 2.02.175 2.89.525.87.35 1.6.81 2.18 1.38l-.84 1.335Z"/><path stroke="#000" stroke-width="4" d="M1226 502V339"/><path fill="#000" d="m1289 339-20-11.547v23.094L1289 339Zm-65 2h47v-4h-47v4ZM872.425 610.737c.183 0 .346.071.488.213l1.325 1.437a7.263 7.263 0 0 1-2.713 2.088c-1.067.483-2.35.725-3.85.725-1.342 0-2.55-.229-3.625-.688a7.972 7.972 0 0 1-2.737-1.912c-.759-.817-1.342-1.792-1.751-2.925-.399-1.133-.599-2.371-.599-3.713 0-1.358.216-2.6.65-3.725.433-1.133 1.041-2.108 1.825-2.925a8.279 8.279 0 0 1 2.825-1.9c1.091-.458 2.3-.687 3.625-.687 1.316 0 2.483.217 3.5.65 1.025.433 1.895 1 2.612 1.7l-1.125 1.562a.992.992 0 0 1-.262.263c-.1.075-.242.112-.425.112a.861.861 0 0 1-.388-.1 10.054 10.054 0 0 1-.437-.262 11.803 11.803 0 0 0-.55-.35 4.22 4.22 0 0 0-.725-.338 5.205 5.205 0 0 0-.963-.262 6.15 6.15 0 0 0-1.25-.113c-.808 0-1.55.146-2.225.438-.667.283-1.242.7-1.725 1.25-.483.542-.858 1.208-1.125 2-.267.783-.4 1.679-.4 2.687 0 1.017.142 1.921.425 2.713.292.792.683 1.458 1.175 2a5.064 5.064 0 0 0 1.738 1.25 5.441 5.441 0 0 0 2.15.425c.458 0 .87-.025 1.237-.075.375-.05.717-.129 1.025-.238a4.5 4.5 0 0 0 .888-.412c.283-.175.562-.388.837-.638a1.03 1.03 0 0 1 .263-.175.589.589 0 0 1 .287-.075Zm9.035-8.762c.95 0 1.812.154 2.587.463.784.308 1.45.745 2 1.312.559.567.988 1.258 1.288 2.075.3.817.45 1.729.45 2.737 0 1.017-.15 1.934-.45 2.75a5.836 5.836 0 0 1-1.288 2.088 5.518 5.518 0 0 1-2 1.325c-.775.308-1.637.463-2.587.463-.959 0-1.829-.155-2.613-.463a5.644 5.644 0 0 1-2.012-1.325c-.55-.575-.979-1.271-1.288-2.088-.3-.816-.45-1.733-.45-2.75 0-1.008.15-1.92.45-2.737.309-.817.738-1.508 1.288-2.075a5.721 5.721 0 0 1 2.012-1.312c.784-.309 1.654-.463 2.613-.463Zm0 10.837c1.066 0 1.854-.358 2.362-1.075.517-.716.775-1.766.775-3.15 0-1.383-.258-2.437-.775-3.162-.508-.725-1.296-1.088-2.362-1.088-1.084 0-1.888.367-2.413 1.1-.516.725-.775 1.775-.775 3.15s.259 2.425.775 3.15c.525.717 1.329 1.075 2.413 1.075Zm16.73-7.362c-.35-.425-.733-.725-1.15-.9a3.327 3.327 0 0 0-1.325-.263 2.95 2.95 0 0 0-1.262.263 2.529 2.529 0 0 0-.963.8c-.266.35-.471.8-.612 1.35-.142.542-.213 1.183-.213 1.925 0 .75.059 1.387.175 1.912.125.517.3.942.525 1.275.225.325.5.563.825.713a2.69 2.69 0 0 0 1.088.212c.641 0 1.187-.133 1.637-.4.45-.266.875-.645 1.275-1.137v-5.75Zm3.088-9.025V615h-1.888c-.408 0-.666-.188-.775-.563l-.262-1.237a6.426 6.426 0 0 1-1.788 1.437c-.666.367-1.446.551-2.337.551-.7 0-1.342-.146-1.925-.438a4.372 4.372 0 0 1-1.513-1.263c-.416-.558-.741-1.245-.975-2.062-.225-.817-.337-1.75-.337-2.8 0-.95.129-1.833.387-2.65.259-.817.629-1.525 1.113-2.125a5.114 5.114 0 0 1 1.737-1.4c.675-.342 1.434-.513 2.275-.513.717 0 1.329.113 1.838.338.508.225.962.529 1.362.912v-6.762h3.088Zm9.822 13.1c-.892.042-1.642.121-2.25.237-.609.109-1.096.25-1.463.425-.366.175-.629.38-.787.613a1.324 1.324 0 0 0-.238.762c0 .542.159.93.475 1.163.325.233.746.35 1.263.35.633 0 1.179-.113 1.637-.338.467-.233.921-.583 1.363-1.05v-2.162Zm-7.075-5.563c1.475-1.35 3.25-2.025 5.325-2.025.75 0 1.421.125 2.012.375a4.153 4.153 0 0 1 1.5 1.025c.409.434.717.955.925 1.563.217.608.325 1.275.325 2v8.1h-1.4c-.291 0-.516-.042-.675-.125-.158-.092-.283-.271-.375-.538l-.275-.925c-.325.292-.641.55-.95.775-.308.217-.629.4-.962.55-.334.15-.692.263-1.075.338a5.796 5.796 0 0 1-1.25.125 5.044 5.044 0 0 1-1.5-.213 3.368 3.368 0 0 1-1.188-.662 2.957 2.957 0 0 1-.775-1.088c-.183-.433-.275-.937-.275-1.512a2.943 2.943 0 0 1 .688-1.888c.25-.291.571-.566.962-.825a6.274 6.274 0 0 1 1.438-.675 12.35 12.35 0 0 1 2-.462c.758-.125 1.625-.2 2.6-.225v-.75c0-.858-.184-1.492-.55-1.9-.367-.417-.896-.625-1.588-.625-.5 0-.916.058-1.25.175-.325.117-.612.25-.862.4-.25.142-.479.271-.688.387-.2.117-.425.175-.675.175a.918.918 0 0 1-.55-.162 1.484 1.484 0 0 1-.362-.4l-.55-.988Zm22.183.925a1.426 1.426 0 0 1-.275.275c-.084.067-.209.1-.375.1a.873.873 0 0 1-.463-.137c-.15-.1-.329-.208-.537-.325a3.542 3.542 0 0 0-.75-.325c-.284-.1-.638-.15-1.063-.15-.542 0-1.017.1-1.425.3-.408.192-.75.471-1.025.837-.267.367-.467.813-.6 1.338a7.088 7.088 0 0 0-.2 1.762c0 .684.071 1.292.213 1.825.15.534.362.984.637 1.35.275.359.608.634 1 .825.392.184.833.275 1.325.275s.888-.058 1.188-.175c.308-.125.566-.258.775-.4.208-.15.387-.283.537-.4a.826.826 0 0 1 .525-.187c.25 0 .438.096.563.287l.887 1.125a5.76 5.76 0 0 1-1.112 1.013c-.4.267-.817.483-1.25.65a6.488 6.488 0 0 1-1.325.338c-.45.066-.9.1-1.35.1a5.754 5.754 0 0 1-2.238-.438c-.7-.3-1.312-.733-1.837-1.3-.525-.567-.942-1.258-1.25-2.075-.3-.825-.45-1.763-.45-2.813 0-.941.133-1.812.4-2.612a5.946 5.946 0 0 1 1.2-2.088 5.44 5.44 0 0 1 1.95-1.387c.775-.333 1.666-.5 2.675-.5.958 0 1.795.154 2.512.463a6.125 6.125 0 0 1 1.95 1.324l-.812 1.125Zm14.523-2.712-6.988 16.35a1.126 1.126 0 0 1-.362.488c-.142.116-.363.175-.663.175h-2.3l2.4-5.151-5.187-11.862h2.712c.242 0 .429.058.563.175.141.117.245.25.312.4l2.725 6.65c.092.225.167.45.225.675.067.225.129.454.188.687.075-.233.15-.462.225-.687a9.55 9.55 0 0 1 .25-.688l2.575-6.637a.923.923 0 0 1 .325-.413.91.91 0 0 1 .525-.162h2.475Zm16.165 2.712a1.398 1.398 0 0 1-.275.275c-.083.067-.208.1-.375.1a.872.872 0 0 1-.462-.137c-.15-.1-.33-.208-.538-.325a3.497 3.497 0 0 0-.75-.325c-.283-.1-.637-.15-1.062-.15-.542 0-1.017.1-1.425.3a2.7 2.7 0 0 0-1.025.837c-.267.367-.467.813-.6 1.338a7.041 7.041 0 0 0-.2 1.762c0 .684.07 1.292.212 1.825.15.534.363.984.638 1.35.275.359.608.634 1 .825.391.184.833.275 1.325.275.491 0 .887-.058 1.187-.175a4.15 4.15 0 0 0 .775-.4c.208-.15.388-.283.538-.4a.826.826 0 0 1 .525-.187c.25 0 .437.096.562.287l.888 1.125c-.342.4-.713.738-1.113 1.013-.4.267-.817.483-1.25.65a6.488 6.488 0 0 1-1.325.338c-.45.066-.9.1-1.35.1a5.75 5.75 0 0 1-2.237-.438c-.7-.3-1.313-.733-1.838-1.3-.525-.567-.942-1.258-1.25-2.075-.3-.825-.45-1.763-.45-2.813 0-.941.133-1.812.4-2.612a5.946 5.946 0 0 1 1.2-2.088 5.44 5.44 0 0 1 1.95-1.387c.775-.333 1.667-.5 2.675-.5.958 0 1.796.154 2.513.463a6.125 6.125 0 0 1 1.95 1.324l-.813 1.125Zm5.998-8.462V615h-3.087v-18.575h3.087Zm8.751 5.55c.95 0 1.813.154 2.588.463.783.308 1.45.745 2 1.312.558.567.987 1.258 1.287 2.075.3.817.45 1.729.45 2.737 0 1.017-.15 1.934-.45 2.75a5.848 5.848 0 0 1-1.287 2.088 5.526 5.526 0 0 1-2 1.325c-.775.308-1.638.463-2.588.463-.958 0-1.829-.155-2.612-.463a5.648 5.648 0 0 1-2.013-1.325 6.081 6.081 0 0 1-1.287-2.088c-.3-.816-.45-1.733-.45-2.75 0-1.008.15-1.92.45-2.737.308-.817.737-1.508 1.287-2.075a5.726 5.726 0 0 1 2.013-1.312c.783-.309 1.654-.463 2.612-.463Zm0 10.837c1.067 0 1.854-.358 2.363-1.075.516-.716.775-1.766.775-3.15 0-1.383-.259-2.437-.775-3.162-.509-.725-1.296-1.088-2.363-1.088-1.083 0-1.887.367-2.412 1.1-.517.725-.775 1.775-.775 3.15s.258 2.425.775 3.15c.525.717 1.329 1.075 2.412 1.075Zm19.731-10.637V615h-1.888c-.408 0-.666-.188-.775-.563l-.212-1.025a6.982 6.982 0 0 1-1.738 1.3c-.633.325-1.379.488-2.237.488-.7 0-1.321-.117-1.863-.35a3.797 3.797 0 0 1-1.35-1.013 4.485 4.485 0 0 1-.837-1.537 6.71 6.71 0 0 1-.275-1.975v-8.15h3.087v8.15c0 .783.179 1.392.538 1.825.366.425.912.637 1.637.637.534 0 1.034-.116 1.5-.35a5.33 5.33 0 0 0 1.325-.987v-9.275h3.088Zm11.114 3.275c-.35-.425-.74-.725-1.15-.9a3.34 3.34 0 0 0-1.33-.263c-.465 0-.885.088-1.26.263a2.529 2.529 0 0 0-.963.8c-.267.35-.471.8-.612 1.35-.142.542-.213 1.183-.213 1.925 0 .75.058 1.387.175 1.912.125.517.3.942.525 1.275.225.325.5.563.825.713a2.69 2.69 0 0 0 1.088.212c.645 0 1.185-.133 1.635-.4.45-.266.88-.645 1.28-1.137v-5.75Zm3.08-9.025V615h-1.88c-.41 0-.67-.188-.78-.563l-.26-1.237a6.406 6.406 0 0 1-1.79 1.437c-.66.367-1.444.551-2.335.551-.7 0-1.342-.146-1.925-.438a4.372 4.372 0 0 1-1.513-1.263c-.417-.558-.742-1.245-.975-2.062-.225-.817-.337-1.75-.337-2.8 0-.95.129-1.833.387-2.65a6.427 6.427 0 0 1 1.113-2.125 5.114 5.114 0 0 1 1.737-1.4c.675-.342 1.433-.513 2.275-.513.713 0 1.333.113 1.833.338.51.225.97.529 1.37.912v-6.762h3.08ZM844.288 331.287c.65 0 1.229-.108 1.737-.325.517-.216.95-.52 1.3-.912.35-.392.617-.867.8-1.425.192-.558.288-1.183.288-1.875v-10.825h3.362v10.825c0 1.075-.175 2.071-.525 2.987a6.742 6.742 0 0 1-1.487 2.363c-.642.658-1.425 1.175-2.35 1.55-.925.367-1.967.55-3.125.55-1.167 0-2.213-.183-3.138-.55a6.936 6.936 0 0 1-2.362-1.55 6.982 6.982 0 0 1-1.488-2.363c-.342-.916-.512-1.912-.512-2.987v-10.825h3.362v10.812c0 .692.092 1.317.275 1.875.192.559.463 1.038.813 1.438.358.392.791.696 1.3.912.516.217 1.1.325 1.75.325Zm13.464-.612c.35.425.729.725 1.138.9.416.175.866.262 1.35.262a2.95 2.95 0 0 0 1.262-.262c.375-.175.692-.442.95-.8.267-.358.471-.808.613-1.35.141-.55.212-1.196.212-1.938 0-.75-.062-1.383-.187-1.9-.117-.525-.288-.95-.513-1.275a2.037 2.037 0 0 0-.825-.712 2.511 2.511 0 0 0-1.087-.225c-.642 0-1.188.137-1.638.412-.45.267-.875.646-1.275 1.138v5.75Zm-.162-7.75a6.684 6.684 0 0 1 1.787-1.438c.667-.366 1.45-.55 2.35-.55.7 0 1.338.146 1.913.438a4.222 4.222 0 0 1 1.5 1.275c.425.55.75 1.233.975 2.05.233.808.35 1.737.35 2.787 0 .959-.13 1.846-.388 2.663a6.444 6.444 0 0 1-1.112 2.125 5.094 5.094 0 0 1-1.738 1.412c-.675.334-1.433.501-2.275.501-.717 0-1.329-.109-1.837-.326a4.573 4.573 0 0 1-1.363-.925v5.251h-3.087v-17.013h1.887c.4 0 .663.187.788.562l.25 1.188Zm14.409-7.5V334h-3.088v-18.575h3.088Zm8.751 5.55c.95 0 1.812.154 2.587.463.784.308 1.45.745 2 1.312.559.567.988 1.258 1.288 2.075.3.817.45 1.729.45 2.737 0 1.017-.15 1.934-.45 2.75a5.836 5.836 0 0 1-1.288 2.088 5.518 5.518 0 0 1-2 1.325c-.775.308-1.637.463-2.587.463-.959 0-1.829-.155-2.613-.463a5.644 5.644 0 0 1-2.012-1.325c-.55-.575-.979-1.271-1.288-2.088-.3-.816-.45-1.733-.45-2.75 0-1.008.15-1.92.45-2.737.309-.817.738-1.508 1.288-2.075a5.721 5.721 0 0 1 2.012-1.312c.784-.309 1.654-.463 2.613-.463Zm0 10.837c1.066 0 1.854-.358 2.362-1.075.517-.716.775-1.766.775-3.15 0-1.383-.258-2.437-.775-3.162-.508-.725-1.296-1.088-2.362-1.088-1.084 0-1.888.367-2.413 1.1-.516.725-.775 1.775-.775 3.15s.259 2.425.775 3.15c.525.717 1.329 1.075 2.413 1.075Zm15.455-3.287c-.891.042-1.641.121-2.25.237-.608.109-1.096.25-1.462.425-.367.175-.629.38-.788.613a1.33 1.33 0 0 0-.237.762c0 .542.158.93.475 1.163.325.233.746.35 1.262.35.634 0 1.179-.113 1.638-.338.466-.233.921-.583 1.362-1.05v-2.162Zm-7.075-5.563c1.475-1.35 3.25-2.025 5.325-2.025.75 0 1.421.125 2.013.375a4.17 4.17 0 0 1 1.5 1.025c.408.434.716.955.925 1.563.216.608.325 1.275.325 2v8.1h-1.4c-.292 0-.517-.042-.675-.125-.159-.092-.284-.271-.375-.538l-.275-.925c-.325.292-.642.55-.95.775-.309.217-.629.4-.963.55-.333.15-.691.263-1.075.338a5.79 5.79 0 0 1-1.25.125 5.054 5.054 0 0 1-1.5-.213 3.363 3.363 0 0 1-1.187-.662 2.934 2.934 0 0 1-.775-1.088c-.184-.433-.275-.937-.275-1.512 0-.325.054-.646.162-.963a2.9 2.9 0 0 1 .525-.925c.25-.291.571-.566.963-.825a6.265 6.265 0 0 1 1.437-.675 12.375 12.375 0 0 1 2-.462c.759-.125 1.625-.2 2.6-.225v-.75c0-.858-.183-1.492-.55-1.9-.366-.417-.896-.625-1.587-.625-.5 0-.917.058-1.25.175-.325.117-.613.25-.863.4-.25.142-.479.271-.687.387-.2.117-.425.175-.675.175a.916.916 0 0 1-.55-.162 1.505 1.505 0 0 1-.363-.4l-.55-.988Zm21.046 1.488c-.35-.425-.734-.725-1.15-.9a3.33 3.33 0 0 0-1.325-.263c-.467 0-.888.088-1.263.263a2.519 2.519 0 0 0-.962.8c-.267.35-.471.8-.613 1.35-.142.542-.212 1.183-.212 1.925 0 .75.058 1.387.175 1.912.125.517.3.942.525 1.275.225.325.5.563.825.713.325.142.687.212 1.087.212.642 0 1.188-.133 1.638-.4.45-.266.875-.645 1.275-1.137v-5.75Zm3.087-9.025V334h-1.887c-.409 0-.667-.188-.775-.563l-.263-1.237a6.422 6.422 0 0 1-1.787 1.437c-.667.367-1.446.551-2.338.551-.7 0-1.342-.146-1.925-.438a4.378 4.378 0 0 1-1.512-1.263c-.417-.558-.742-1.245-.975-2.062-.225-.817-.338-1.75-.338-2.8 0-.95.129-1.833.388-2.65a6.444 6.444 0 0 1 1.112-2.125 5.117 5.117 0 0 1 1.738-1.4c.675-.342 1.433-.513 2.275-.513.716 0 1.329.113 1.837.338a4.72 4.72 0 0 1 1.363.912v-6.762h3.087Zm13.401 18.775c-1.116 0-1.975-.313-2.575-.938-.591-.633-.887-1.504-.887-2.612v-7.163h-1.313a.605.605 0 0 1-.425-.162c-.116-.108-.175-.271-.175-.488v-1.225l2.063-.337.65-3.5a.687.687 0 0 1 .237-.388.712.712 0 0 1 .45-.137h1.6v4.037h3.425v2.2h-3.425v6.95c0 .4.096.713.288.938.2.225.471.337.812.337.192 0 .35-.02.475-.062.134-.05.246-.1.338-.15.1-.05.187-.096.262-.138a.403.403 0 0 1 .225-.075c.092 0 .167.025.225.075a.9.9 0 0 1 .188.2l.925 1.5c-.45.375-.967.659-1.55.85a5.766 5.766 0 0 1-1.813.288Zm10.604-13.225c.95 0 1.813.154 2.588.463.783.308 1.45.745 2 1.312.558.567.987 1.258 1.287 2.075.3.817.45 1.729.45 2.737 0 1.017-.15 1.934-.45 2.75a5.848 5.848 0 0 1-1.287 2.088 5.526 5.526 0 0 1-2 1.325c-.775.308-1.638.463-2.588.463-.958 0-1.829-.155-2.612-.463a5.656 5.656 0 0 1-2.013-1.325 6.081 6.081 0 0 1-1.287-2.088c-.3-.816-.45-1.733-.45-2.75 0-1.008.15-1.92.45-2.737.308-.817.737-1.508 1.287-2.075a5.735 5.735 0 0 1 2.013-1.312c.783-.309 1.654-.463 2.612-.463Zm0 10.837c1.067 0 1.855-.358 2.363-1.075.517-.716.775-1.766.775-3.15 0-1.383-.258-2.437-.775-3.162-.508-.725-1.296-1.088-2.363-1.088-1.083 0-1.887.367-2.412 1.1-.517.725-.775 1.775-.775 3.15s.258 2.425.775 3.15c.525.717 1.329 1.075 2.412 1.075Zm27.66-2.075c.183 0 .346.071.487.213l1.325 1.437a7.252 7.252 0 0 1-2.712 2.088c-1.067.483-2.35.725-3.85.725-1.342 0-2.55-.229-3.625-.688a7.985 7.985 0 0 1-2.738-1.912c-.758-.817-1.341-1.792-1.75-2.925-.4-1.133-.6-2.371-.6-3.713 0-1.358.217-2.6.65-3.725.434-1.133 1.042-2.108 1.825-2.925a8.298 8.298 0 0 1 2.825-1.9c1.092-.458 2.3-.687 3.625-.687 1.317 0 2.484.217 3.5.65 1.025.433 1.896 1 2.613 1.7l-1.125 1.562a.982.982 0 0 1-.263.263c-.1.075-.241.112-.425.112a.857.857 0 0 1-.387-.1 10.682 10.682 0 0 1-.438-.262 10.829 10.829 0 0 0-.55-.35 4.185 4.185 0 0 0-.725-.338 5.193 5.193 0 0 0-.962-.262 6.15 6.15 0 0 0-1.25-.113c-.808 0-1.55.146-2.225.438-.667.283-1.242.7-1.725 1.25-.483.542-.858 1.208-1.125 2-.267.783-.4 1.679-.4 2.687 0 1.017.142 1.921.425 2.713.292.792.683 1.458 1.175 2a5.07 5.07 0 0 0 1.737 1.25 5.448 5.448 0 0 0 2.15.425c.459 0 .871-.025 1.238-.075.375-.05.717-.129 1.025-.238a4.49 4.49 0 0 0 .887-.412c.284-.175.563-.388.838-.638.083-.075.171-.133.262-.175a.595.595 0 0 1 .288-.075Zm9.035-8.762c.95 0 1.812.154 2.587.463.784.308 1.45.745 2 1.312.559.567.988 1.258 1.288 2.075.3.817.45 1.729.45 2.737 0 1.017-.15 1.934-.45 2.75a5.836 5.836 0 0 1-1.288 2.088 5.518 5.518 0 0 1-2 1.325c-.775.308-1.637.463-2.587.463-.959 0-1.829-.155-2.613-.463a5.644 5.644 0 0 1-2.012-1.325c-.55-.575-.979-1.271-1.288-2.088-.3-.816-.45-1.733-.45-2.75 0-1.008.15-1.92.45-2.737.309-.817.738-1.508 1.288-2.075a5.721 5.721 0 0 1 2.012-1.312c.784-.309 1.654-.463 2.613-.463Zm0 10.837c1.066 0 1.854-.358 2.362-1.075.517-.716.775-1.766.775-3.15 0-1.383-.258-2.437-.775-3.162-.508-.725-1.296-1.088-2.362-1.088-1.084 0-1.888.367-2.413 1.1-.516.725-.775 1.775-.775 3.15s.259 2.425.775 3.15c.525.717 1.329 1.075 2.413 1.075Zm16.73-7.362c-.35-.425-.733-.725-1.15-.9a3.327 3.327 0 0 0-1.325-.263c-.467 0-.887.088-1.262.263a2.529 2.529 0 0 0-.963.8c-.267.35-.471.8-.612 1.35-.142.542-.213 1.183-.213 1.925 0 .75.058 1.387.175 1.912.125.517.3.942.525 1.275.225.325.5.563.825.713a2.69 2.69 0 0 0 1.088.212c.641 0 1.187-.133 1.637-.4.45-.266.875-.645 1.275-1.137v-5.75Zm3.088-9.025V334h-1.888c-.408 0-.667-.188-.775-.563l-.262-1.237a6.426 6.426 0 0 1-1.788 1.437c-.667.367-1.446.551-2.337.551-.7 0-1.342-.146-1.925-.438a4.372 4.372 0 0 1-1.513-1.263c-.417-.558-.742-1.245-.975-2.062-.225-.817-.337-1.75-.337-2.8 0-.95.129-1.833.387-2.65a6.427 6.427 0 0 1 1.113-2.125 5.114 5.114 0 0 1 1.737-1.4c.675-.342 1.433-.513 2.275-.513.717 0 1.329.113 1.838.338.508.225.962.529 1.362.912v-6.762h3.088Zm9.819 13.1c-.89.042-1.64.121-2.25.237-.61.109-1.09.25-1.46.425-.366.175-.629.38-.787.613a1.324 1.324 0 0 0-.238.762c0 .542.159.93.475 1.163.325.233.75.35 1.26.35.64 0 1.18-.113 1.64-.338.47-.233.92-.583 1.36-1.05v-2.162Zm-7.072-5.563c1.475-1.35 3.25-2.025 5.322-2.025.75 0 1.42.125 2.02.375.59.242 1.09.584 1.5 1.025.4.434.71.955.92 1.563.22.608.33 1.275.33 2v8.1h-1.4c-.3 0-.52-.042-.68-.125-.16-.092-.28-.271-.37-.538l-.28-.925c-.32.292-.64.55-.95.775-.31.217-.63.4-.96.55-.34.15-.69.263-1.08.338-.37.083-.79.125-1.247.125a5.044 5.044 0 0 1-1.5-.213 3.368 3.368 0 0 1-1.188-.662 2.957 2.957 0 0 1-.775-1.088c-.183-.433-.275-.937-.275-1.512a2.943 2.943 0 0 1 .688-1.888c.25-.291.571-.566.962-.825a6.274 6.274 0 0 1 1.438-.675 12.285 12.285 0 0 1 1.997-.462c.76-.125 1.63-.2 2.6-.225v-.75c0-.858-.18-1.492-.55-1.9-.36-.417-.89-.625-1.58-.625-.5 0-.92.058-1.25.175a4.79 4.79 0 0 0-.867.4c-.25.142-.479.271-.688.387-.2.117-.425.175-.675.175a.918.918 0 0 1-.55-.162 1.484 1.484 0 0 1-.362-.4l-.55-.988Zm22.182.925c-.09.117-.18.209-.27.275-.09.067-.21.1-.38.1a.86.86 0 0 1-.46-.137c-.15-.1-.33-.208-.54-.325a3.588 3.588 0 0 0-.75-.325c-.28-.1-.64-.15-1.06-.15-.54 0-1.02.1-1.43.3a2.64 2.64 0 0 0-1.02.837c-.27.367-.47.813-.6 1.338-.14.517-.2 1.104-.2 1.762 0 .684.07 1.292.21 1.825.15.534.36.984.64 1.35.27.359.61.634 1 .825.39.184.83.275 1.32.275.49 0 .89-.058 1.19-.175.31-.125.57-.258.78-.4.2-.15.38-.283.53-.4a.847.847 0 0 1 .53-.187c.25 0 .44.096.56.287l.89 1.125c-.34.4-.71.738-1.11 1.013-.4.267-.82.483-1.25.65-.43.158-.87.271-1.33.338-.45.066-.9.1-1.35.1-.79 0-1.54-.146-2.24-.438-.7-.3-1.31-.733-1.83-1.3a6.056 6.056 0 0 1-1.25-2.075c-.3-.825-.45-1.763-.45-2.813 0-.941.13-1.812.4-2.612.27-.808.67-1.504 1.2-2.088a5.354 5.354 0 0 1 1.95-1.387c.77-.333 1.66-.5 2.67-.5.96 0 1.8.154 2.51.463.73.308 1.38.749 1.95 1.324l-.81 1.125Zm14.52-2.712-6.98 16.35c-.1.217-.22.379-.37.488-.14.116-.36.175-.66.175h-2.3l2.4-5.151-5.19-11.862h2.72c.24 0 .43.058.56.175.14.117.24.25.31.4l2.73 6.65c.09.225.16.45.22.675.07.225.13.454.19.687.07-.233.15-.462.22-.687.08-.233.16-.463.25-.688l2.58-6.637a.94.94 0 0 1 .32-.413.935.935 0 0 1 .53-.162h2.47Z"/><g filter="url(#b)"><path fill="#fff" d="M943.748 443h212.505v115.473H943.748z"/><path stroke="#000" stroke-width="4" d="M945.748 445h208.505v111.473H945.748z"/></g><path fill="#000" d="M1017.67 489.414c.22 0 .41.085.58.255l1.59 1.725a8.701 8.701 0 0 1-3.25 2.505c-1.28.58-2.82.87-4.62.87-1.61 0-3.06-.275-4.35-.825a9.609 9.609 0 0 1-3.29-2.295c-.91-.98-1.61-2.15-2.1-3.51-.48-1.36-.72-2.845-.72-4.455 0-1.63.26-3.12.78-4.47.52-1.36 1.25-2.53 2.19-3.51.95-.98 2.08-1.74 3.39-2.28 1.31-.55 2.76-.825 4.35-.825 1.58 0 2.98.26 4.2.78 1.23.52 2.28 1.2 3.14 2.04l-1.35 1.875a1.2 1.2 0 0 1-.32.315c-.12.09-.29.135-.51.135-.15 0-.3-.04-.46-.12-.16-.09-.34-.195-.53-.315-.19-.13-.41-.27-.66-.42-.25-.15-.54-.285-.87-.405-.33-.13-.71-.235-1.15-.315-.43-.09-.93-.135-1.5-.135-.97 0-1.86.175-2.67.525-.8.34-1.49.84-2.07 1.5-.58.65-1.03 1.45-1.35 2.4-.32.94-.48 2.015-.48 3.225 0 1.22.17 2.305.51 3.255.35.95.82 1.75 1.41 2.4.59.65 1.28 1.15 2.08 1.5.8.34 1.66.51 2.58.51.55 0 1.05-.03 1.49-.09.45-.06.86-.155 1.23-.285.38-.13.73-.295 1.06-.495.34-.21.68-.465 1.01-.765.1-.09.2-.16.31-.21a.73.73 0 0 1 .35-.09Zm10.84-10.515c1.14 0 2.17.185 3.1.555.94.37 1.74.895 2.4 1.575.67.68 1.19 1.51 1.55 2.49.36.98.54 2.075.54 3.285 0 1.22-.18 2.32-.54 3.3-.36.98-.88 1.815-1.55 2.505-.66.69-1.46 1.22-2.4 1.59-.93.37-1.96.555-3.1.555-1.15 0-2.2-.185-3.14-.555a6.76 6.76 0 0 1-2.41-1.59c-.66-.69-1.18-1.525-1.55-2.505-.36-.98-.54-2.08-.54-3.3 0-1.21.18-2.305.54-3.285.37-.98.89-1.81 1.55-2.49a6.86 6.86 0 0 1 2.41-1.575c.94-.37 1.99-.555 3.14-.555Zm0 13.005c1.28 0 2.22-.43 2.83-1.29.62-.86.93-2.12.93-3.78 0-1.66-.31-2.925-.93-3.795-.61-.87-1.55-1.305-2.83-1.305-1.3 0-2.27.44-2.9 1.32-.62.87-.93 2.13-.93 3.78s.31 2.91.93 3.78c.63.86 1.6 1.29 2.9 1.29Zm20.07-8.835c-.42-.51-.88-.87-1.38-1.08a3.993 3.993 0 0 0-1.59-.315c-.56 0-1.06.105-1.51.315-.45.21-.84.53-1.16.96-.32.42-.56.96-.73 1.62-.17.65-.26 1.42-.26 2.31 0 .9.07 1.665.21 2.295.15.62.36 1.13.63 1.53.27.39.6.675.99.855.39.17.83.255 1.31.255.77 0 1.42-.16 1.96-.48.54-.32 1.05-.775 1.53-1.365v-6.9Zm3.71-10.83v22.29h-2.27c-.49 0-.8-.225-.93-.675l-.31-1.485a7.748 7.748 0 0 1-2.15 1.725c-.8.44-1.73.66-2.8.66-.84 0-1.61-.175-2.31-.525-.7-.35-1.31-.855-1.82-1.515-.5-.67-.89-1.495-1.17-2.475-.27-.98-.4-2.1-.4-3.36 0-1.14.15-2.2.46-3.18.31-.98.76-1.83 1.34-2.55a6.13 6.13 0 0 1 2.08-1.68c.81-.41 1.72-.615 2.73-.615.86 0 1.6.135 2.21.405.61.27 1.15.635 1.63 1.095v-8.115h3.71Zm11.79 15.72c-1.07.05-1.97.145-2.7.285-.73.13-1.32.3-1.76.51-.44.21-.75.455-.94.735-.19.28-.29.585-.29.915 0 .65.19 1.115.57 1.395.39.28.9.42 1.52.42.76 0 1.41-.135 1.96-.405.56-.28 1.11-.7 1.64-1.26v-2.595Zm-8.49-6.675c1.77-1.62 3.9-2.43 6.39-2.43.9 0 1.7.15 2.41.45.71.29 1.31.7 1.8 1.23.49.52.86 1.145 1.11 1.875.26.73.39 1.53.39 2.4v9.72h-1.68c-.35 0-.62-.05-.81-.15-.19-.11-.34-.325-.45-.645l-.33-1.11c-.39.35-.77.66-1.14.93-.37.26-.75.48-1.15.66-.4.18-.83.315-1.29.405-.45.1-.95.15-1.5.15a6.07 6.07 0 0 1-1.8-.255 4.069 4.069 0 0 1-1.43-.795c-.4-.35-.71-.785-.93-1.305-.22-.52-.33-1.125-.33-1.815 0-.39.07-.775.2-1.155.13-.39.34-.76.63-1.11.3-.35.68-.68 1.15-.99.47-.31 1.05-.58 1.73-.81.69-.23 1.49-.415 2.4-.555.91-.15 1.95-.24 3.12-.27v-.9c0-1.03-.22-1.79-.66-2.28-.44-.5-1.08-.75-1.91-.75-.6 0-1.1.07-1.5.21-.39.14-.73.3-1.03.48-.3.17-.58.325-.83.465-.24.14-.51.21-.81.21-.26 0-.48-.065-.66-.195-.18-.14-.32-.3-.43-.48l-.66-1.185Zm26.62 1.11c-.11.14-.22.25-.33.33-.1.08-.25.12-.45.12-.19 0-.38-.055-.56-.165-.18-.12-.39-.25-.64-.39-.25-.15-.55-.28-.9-.39-.34-.12-.77-.18-1.28-.18-.65 0-1.22.12-1.71.36-.49.23-.9.565-1.23 1.005-.32.44-.56.975-.72 1.605-.16.62-.24 1.325-.24 2.115 0 .82.09 1.55.26 2.19.18.64.43 1.18.76 1.62.33.43.73.76 1.2.99.47.22 1 .33 1.59.33.59 0 1.07-.07 1.43-.21.37-.15.68-.31.93-.48.25-.18.46-.34.64-.48.19-.15.4-.225.63-.225.3 0 .53.115.68.345l1.06 1.35c-.41.48-.85.885-1.33 1.215-.48.32-.98.58-1.5.78-.51.19-1.04.325-1.59.405-.54.08-1.08.12-1.62.12-.95 0-1.85-.175-2.69-.525a6.41 6.41 0 0 1-2.2-1.56c-.63-.68-1.13-1.51-1.5-2.49-.36-.99-.54-2.115-.54-3.375 0-1.13.16-2.175.48-3.135.33-.97.81-1.805 1.44-2.505a6.524 6.524 0 0 1 2.34-1.665c.93-.4 2-.6 3.21-.6 1.15 0 2.15.185 3.01.555.87.37 1.65.9 2.34 1.59l-.97 1.35Zm17.42-3.255-8.38 19.62c-.11.26-.26.455-.44.585-.17.14-.43.21-.79.21h-2.76l2.88-6.18-6.23-14.235h3.26c.29 0 .51.07.67.21.17.14.3.3.38.48l3.27 7.98c.11.27.2.54.27.81.08.27.15.545.22.825.09-.28.18-.555.27-.825.09-.28.19-.555.3-.825l3.09-7.965a1.091 1.091 0 0 1 1.02-.69h2.97Zm-91.83 44.82c-1.07.05-1.97.145-2.7.285-.73.13-1.32.3-1.76.51-.44.21-.75.455-.94.735-.19.28-.29.585-.29.915 0 .65.19 1.115.57 1.395.39.28.9.42 1.52.42.76 0 1.41-.135 1.96-.405.56-.28 1.11-.7 1.64-1.26v-2.595Zm-8.493-6.675c1.773-1.62 3.903-2.43 6.393-2.43.9 0 1.7.15 2.41.45.71.29 1.31.7 1.8 1.23.49.52.86 1.145 1.11 1.875.26.73.39 1.53.39 2.4v9.72h-1.68c-.35 0-.62-.05-.81-.15-.19-.11-.34-.325-.45-.645l-.33-1.11c-.39.35-.77.66-1.14.93-.37.26-.75.48-1.15.66-.4.18-.83.315-1.29.405-.45.1-.95.15-1.5.15a6.07 6.07 0 0 1-1.8-.255 4.042 4.042 0 0 1-1.428-.795c-.4-.35-.71-.785-.93-1.305-.22-.52-.33-1.125-.33-1.815 0-.39.065-.775.195-1.155.13-.39.34-.76.63-1.11.3-.35.683-.68 1.153-.99.47-.31 1.05-.58 1.73-.81.69-.23 1.49-.415 2.4-.555.91-.15 1.95-.24 3.12-.27v-.9c0-1.03-.22-1.79-.66-2.28-.44-.5-1.08-.75-1.91-.75-.6 0-1.1.07-1.5.21-.39.14-.73.3-1.03.48-.3.17-.58.325-.83.465-.24.14-.51.21-.81.21-.26 0-.48-.065-.66-.195-.18-.14-.32-.3-.433-.48l-.66-1.185Zm19.063-.255c.31-.31.63-.595.97-.855.35-.27.72-.495 1.1-.675.39-.19.8-.335 1.24-.435.44-.11.92-.165 1.44-.165.84 0 1.59.145 2.24.435.65.28 1.19.68 1.62 1.2.44.51.77 1.125.99 1.845.23.71.34 1.495.34 2.355v9.795h-3.7v-9.795c0-.94-.22-1.665-.65-2.175-.43-.52-1.08-.78-1.96-.78-.64 0-1.24.145-1.8.435a6.45 6.45 0 0 0-1.59 1.185v11.13h-3.71v-15.39h2.27c.48 0 .79.225.94.675l.26 1.215Zm21.59 6.93c-1.07.05-1.97.145-2.7.285-.73.13-1.31.3-1.75.51-.44.21-.76.455-.95.735-.19.28-.28.585-.28.915 0 .65.19 1.115.57 1.395.39.28.89.42 1.51.42.76 0 1.42-.135 1.97-.405.56-.28 1.1-.7 1.63-1.26v-2.595Zm-8.49-6.675c1.77-1.62 3.9-2.43 6.39-2.43.9 0 1.71.15 2.42.45.71.29 1.31.7 1.8 1.23.49.52.86 1.145 1.11 1.875.26.73.39 1.53.39 2.4v9.72h-1.68c-.35 0-.62-.05-.81-.15-.19-.11-.34-.325-.45-.645l-.33-1.11c-.39.35-.77.66-1.14.93-.37.26-.76.48-1.16.66-.4.18-.83.315-1.29.405-.45.1-.95.15-1.5.15a6.07 6.07 0 0 1-1.8-.255 4.023 4.023 0 0 1-1.42-.795c-.4-.35-.71-.785-.93-1.305-.22-.52-.33-1.125-.33-1.815 0-.39.06-.775.19-1.155.13-.39.34-.76.63-1.11.3-.35.69-.68 1.16-.99.47-.31 1.04-.58 1.72-.81.69-.23 1.49-.415 2.4-.555.91-.15 1.95-.24 3.12-.27v-.9c0-1.03-.22-1.79-.66-2.28-.44-.5-1.07-.75-1.9-.75-.6 0-1.1.07-1.5.21-.39.14-.74.3-1.04.48-.3.17-.57.325-.82.465-.24.14-.51.21-.81.21-.26 0-.48-.065-.66-.195-.18-.14-.33-.3-.44-.48l-.66-1.185Zm19.35-9.045v22.29h-3.71v-22.29h3.71Zm17.67 6.9-8.38 19.62c-.11.26-.26.455-.44.585-.17.14-.43.21-.79.21h-2.76l2.88-6.18-6.23-14.235h3.26c.29 0 .51.07.67.21.17.14.3.3.38.48l3.27 7.98c.11.27.2.54.27.81.08.27.15.545.22.825.09-.28.18-.555.27-.825.09-.28.19-.555.3-.825l3.09-7.965a1.091 1.091 0 0 1 1.02-.69h2.97Zm10.91 3c-.1.16-.21.275-.32.345-.11.06-.25.09-.42.09-.18 0-.37-.05-.58-.15-.2-.1-.44-.21-.71-.33-.27-.13-.58-.245-.93-.345a4.3 4.3 0 0 0-1.21-.15c-.73 0-1.31.155-1.73.465-.41.31-.61.715-.61 1.215 0 .33.1.61.31.84.22.22.51.415.86.585.36.17.76.325 1.21.465.45.13.91.275 1.37.435.47.16.93.345 1.38.555.45.2.85.46 1.2.78.36.31.64.685.85 1.125.22.44.33.97.33 1.59 0 .74-.13 1.425-.4 2.055-.26.62-.65 1.16-1.17 1.62-.52.45-1.17.805-1.94 1.065-.76.25-1.64.375-2.64.375-.53 0-1.05-.05-1.56-.15a8.478 8.478 0 0 1-2.74-.99c-.39-.23-.74-.48-1.04-.75l.86-1.41c.11-.17.24-.3.39-.39.15-.09.34-.135.57-.135.23 0 .44.065.64.195.21.13.45.27.72.42.27.15.59.29.95.42.37.13.83.195 1.39.195.44 0 .82-.05 1.13-.15.32-.11.58-.25.78-.42.21-.17.36-.365.45-.585.1-.23.15-.465.15-.705 0-.36-.11-.655-.33-.885-.21-.23-.5-.43-.86-.6a7.32 7.32 0 0 0-1.21-.45c-.45-.14-.92-.29-1.4-.45a14.9 14.9 0 0 1-1.39-.555c-.45-.22-.86-.495-1.22-.825-.35-.33-.63-.735-.85-1.215-.21-.48-.32-1.06-.32-1.74 0-.63.13-1.23.38-1.8.25-.57.61-1.065 1.09-1.485.49-.43 1.1-.77 1.82-1.02.73-.26 1.57-.39 2.52-.39 1.06 0 2.02.175 2.89.525.87.35 1.6.81 2.18 1.38l-.84 1.335Zm7.63-3v15.39h-3.72v-15.39h3.72Zm.51-4.485c0 .32-.06.62-.19.9s-.31.525-.53.735c-.21.21-.46.38-.75.51-.29.12-.6.18-.93.18-.32 0-.62-.06-.91-.18-.28-.13-.53-.3-.74-.51-.21-.21-.38-.455-.51-.735a2.26 2.26 0 0 1-.18-.9c0-.33.06-.64.18-.93a2.344 2.344 0 0 1 1.25-1.245c.29-.13.59-.195.91-.195.33 0 .64.065.93.195.29.12.54.285.75.495.22.21.4.46.53.75s.19.6.19.93Zm12.66 7.485c-.1.16-.21.275-.32.345-.11.06-.25.09-.42.09-.18 0-.37-.05-.58-.15-.2-.1-.44-.21-.71-.33-.27-.13-.58-.245-.93-.345a4.3 4.3 0 0 0-1.21-.15c-.73 0-1.31.155-1.73.465-.41.31-.61.715-.61 1.215 0 .33.1.61.31.84.22.22.51.415.86.585.36.17.76.325 1.21.465.45.13.91.275 1.37.435.47.16.93.345 1.38.555.45.2.85.46 1.2.78.36.31.64.685.85 1.125.22.44.33.97.33 1.59 0 .74-.13 1.425-.4 2.055-.26.62-.65 1.16-1.17 1.62-.52.45-1.17.805-1.94 1.065-.76.25-1.64.375-2.64.375-.53 0-1.05-.05-1.56-.15a8.478 8.478 0 0 1-2.74-.99c-.39-.23-.74-.48-1.04-.75l.86-1.41c.11-.17.24-.3.39-.39.15-.09.34-.135.57-.135.23 0 .44.065.64.195.21.13.45.27.72.42.27.15.59.29.95.42.37.13.83.195 1.39.195.44 0 .82-.05 1.13-.15.32-.11.58-.25.78-.42.21-.17.36-.365.45-.585.1-.23.15-.465.15-.705 0-.36-.11-.655-.33-.885-.21-.23-.5-.43-.86-.6a7.32 7.32 0 0 0-1.21-.45c-.45-.14-.92-.29-1.4-.45a14.9 14.9 0 0 1-1.39-.555c-.45-.22-.86-.495-1.22-.825-.35-.33-.63-.735-.85-1.215-.21-.48-.32-1.06-.32-1.74 0-.63.13-1.23.38-1.8.25-.57.61-1.065 1.09-1.485.49-.43 1.1-.77 1.82-1.02.73-.26 1.57-.39 2.52-.39 1.06 0 2.02.175 2.89.525.87.35 1.6.81 2.18 1.38l-.84 1.335Z"/><g filter="url(#c)"><circle cx="818" cy="501" r="56.67" fill="#fff" stroke="#000" stroke-width="4" transform="rotate(-.377 818 501)"/><path fill="#000" d="M816.275 489.31 809.54 511h-3.645l-4.74-14.82c-.13-.36-.25-.8-.36-1.32-.06.25-.12.485-.18.705-.06.22-.125.425-.195.615L795.635 511h-3.66l-6.72-21.69h3.375c.35 0 .64.085.87.255.24.16.4.38.48.66l3.69 12.975c.08.32.155.67.225 1.05.08.37.16.76.24 1.17.08-.42.165-.815.255-1.185.1-.37.205-.715.315-1.035l4.26-12.975c.08-.23.235-.44.465-.63.24-.19.53-.285.87-.285h1.185c.35 0 .635.085.855.255.22.17.385.39.495.66l4.245 12.975c.21.62.4 1.335.57 2.145.13-.79.275-1.505.435-2.145l3.69-12.975c.06-.25.21-.465.45-.645.25-.18.545-.27.885-.27h3.165Zm8.363 15.12c-1.07.05-1.97.145-2.7.285-.73.13-1.315.3-1.755.51-.44.21-.755.455-.945.735-.19.28-.285.585-.285.915 0 .65.19 1.115.57 1.395.39.28.895.42 1.515.42.76 0 1.415-.135 1.965-.405.56-.28 1.105-.7 1.635-1.26v-2.595Zm-8.49-6.675c1.77-1.62 3.9-2.43 6.39-2.43.9 0 1.705.15 2.415.45.71.29 1.31.7 1.8 1.23.49.52.86 1.145 1.11 1.875.26.73.39 1.53.39 2.4V511h-1.68c-.35 0-.62-.05-.81-.15-.19-.11-.34-.325-.45-.645l-.33-1.11c-.39.35-.77.66-1.14.93-.37.26-.755.48-1.155.66-.4.18-.83.315-1.29.405-.45.1-.95.15-1.5.15a6.07 6.07 0 0 1-1.8-.255 4.046 4.046 0 0 1-1.425-.795c-.4-.35-.71-.785-.93-1.305-.22-.52-.33-1.125-.33-1.815 0-.39.065-.775.195-1.155.13-.39.34-.76.63-1.11.3-.35.685-.68 1.155-.99.47-.31 1.045-.58 1.725-.81.69-.23 1.49-.415 2.4-.555.91-.15 1.95-.24 3.12-.27v-.9c0-1.03-.22-1.79-.66-2.28-.44-.5-1.075-.75-1.905-.75-.6 0-1.1.07-1.5.21-.39.14-.735.3-1.035.48l-.825.465c-.24.14-.51.21-.81.21-.26 0-.48-.065-.66-.195a1.79 1.79 0 0 1-.435-.48l-.66-1.185Zm19.434-2.145V511h-3.72v-15.39h3.72Zm.51-4.485c0 .32-.065.62-.195.9s-.305.525-.525.735c-.21.21-.46.38-.75.51-.29.12-.6.18-.93.18-.32 0-.625-.06-.915-.18-.28-.13-.525-.3-.735-.51-.21-.21-.38-.455-.51-.735a2.26 2.26 0 0 1-.18-.9c0-.33.06-.64.18-.93.13-.29.3-.54.51-.75.21-.21.455-.375.735-.495.29-.13.595-.195.915-.195.33 0 .64.065.93.195.29.12.54.285.75.495.22.21.395.46.525.75s.195.6.195.93Zm8.397 20.115c-1.34 0-2.37-.375-3.09-1.125-.71-.76-1.065-1.805-1.065-3.135v-8.595h-1.575c-.2 0-.37-.065-.51-.195s-.21-.325-.21-.585v-1.47l2.475-.405.78-4.2c.05-.2.145-.355.285-.465.14-.11.32-.165.54-.165h1.92v4.845h4.11v2.64h-4.11v8.34c0 .48.115.855.345 1.125.24.27.565.405.975.405.23 0 .42-.025.57-.075.16-.06.295-.12.405-.18.12-.06.225-.115.315-.165.09-.06.18-.09.27-.09.11 0 .2.03.27.09.07.05.145.13.225.24l1.11 1.8c-.54.45-1.16.79-1.86 1.02-.7.23-1.425.345-2.175.345Z"/></g><path fill="#000" d="m944 500-20-11.547v23.094L944 500Zm-65 2h47v-4h-47v4ZM759.373 500l-20-11.547v23.094l20-11.547ZM358 502h383.373v-4H358v4Z"/><path stroke="#000" stroke-width="4" d="M1160 500h65"/><path fill="#000" d="M577.775 76v7h-3.35v-7l-6.588-11.075h2.963c.292 0 .521.07.688.213.175.141.32.32.437.537l3.3 6.038c.192.358.358.695.5 1.012.15.317.283.633.4.95a11 11 0 0 1 .375-.95c.142-.317.304-.654.488-1.012l3.287-6.038c.092-.183.229-.354.413-.513.183-.158.416-.237.7-.237h2.975L577.775 76Zm10.804-6.025c.95 0 1.812.154 2.587.463.784.308 1.45.745 2 1.312.559.567.988 1.258 1.288 2.075.3.817.45 1.73.45 2.737 0 1.017-.15 1.934-.45 2.75a5.837 5.837 0 0 1-1.288 2.088 5.522 5.522 0 0 1-2 1.325c-.775.308-1.637.463-2.587.463-.958 0-1.829-.155-2.613-.463a5.647 5.647 0 0 1-2.012-1.325c-.55-.575-.979-1.27-1.288-2.088-.3-.816-.45-1.733-.45-2.75 0-1.008.15-1.92.45-2.737.309-.817.738-1.508 1.288-2.075a5.73 5.73 0 0 1 2.012-1.313c.784-.308 1.655-.462 2.613-.462Zm0 10.838c1.067 0 1.854-.359 2.362-1.076.517-.716.775-1.766.775-3.15 0-1.383-.258-2.437-.775-3.162-.508-.725-1.295-1.087-2.362-1.087-1.083 0-1.888.366-2.413 1.1-.516.724-.775 1.775-.775 3.15s.259 2.425.775 3.15c.525.716 1.33 1.075 2.413 1.075Zm19.73-10.638V83h-1.887c-.408 0-.667-.188-.775-.563l-.213-1.025a7.02 7.02 0 0 1-1.737 1.3c-.633.325-1.379.488-2.238.488-.7 0-1.32-.117-1.862-.35a3.8 3.8 0 0 1-1.35-1.012 4.495 4.495 0 0 1-.838-1.538 6.746 6.746 0 0 1-.275-1.975v-8.15h3.088v8.15c0 .783.179 1.392.537 1.825.367.425.913.637 1.638.637a3.31 3.31 0 0 0 1.5-.35c.467-.241.908-.57 1.325-.987v-9.275h3.087Zm5.974 2.225c.4-.767.875-1.367 1.425-1.8.55-.442 1.2-.662 1.95-.662.592 0 1.067.129 1.425.387l-.2 2.313a.61.61 0 0 1-.187.325.498.498 0 0 1-.313.087 3.75 3.75 0 0 1-.562-.063 4.188 4.188 0 0 0-.713-.062c-.341 0-.646.05-.912.15-.267.1-.509.246-.725.438a3.02 3.02 0 0 0-.563.674c-.158.267-.308.571-.45.913V83h-3.087V70.175h1.812c.317 0 .538.058.663.175.125.108.208.308.25.6l.187 1.45Zm15.043 7.275c.35.425.73.725 1.138.9.417.175.854.263 1.312.263.475 0 .9-.084 1.275-.25.384-.175.709-.442.975-.8.267-.367.471-.83.613-1.388.142-.567.212-1.242.212-2.025 0-1.408-.233-2.425-.7-3.05-.466-.633-1.137-.95-2.012-.95-.592 0-1.108.138-1.55.412-.442.267-.863.646-1.263 1.138v5.75Zm0-7.925a6.298 6.298 0 0 1 1.713-1.287c.633-.325 1.354-.488 2.162-.488.742 0 1.409.146 2 .438a4.19 4.19 0 0 1 1.525 1.262c.425.542.75 1.2.975 1.975.225.775.338 1.646.338 2.612 0 1.042-.129 1.988-.388 2.838-.258.85-.629 1.58-1.112 2.188a5.001 5.001 0 0 1-1.725 1.4c-.675.333-1.425.5-2.25.5-.4 0-.763-.042-1.088-.126a3.842 3.842 0 0 1-1.662-.837 7.284 7.284 0 0 1-.65-.688l-.138.863c-.05.217-.137.37-.262.462-.117.092-.279.138-.488.138h-2.037V64.425h3.087v7.325Zm22.147-1.575V83h-1.887c-.408 0-.667-.188-.775-.563l-.213-1.025a7.02 7.02 0 0 1-1.737 1.3c-.633.325-1.379.488-2.238.488-.7 0-1.32-.117-1.862-.35a3.8 3.8 0 0 1-1.35-1.012 4.495 4.495 0 0 1-.838-1.538 6.746 6.746 0 0 1-.275-1.975v-8.15h3.088v8.15c0 .783.179 1.392.537 1.825.367.425.913.637 1.638.637a3.31 3.31 0 0 0 1.5-.35c.467-.241.908-.57 1.325-.987v-9.275h3.087Zm6.262 0V83h-3.1V70.175h3.1Zm.425-3.737c0 .266-.054.516-.163.75a2.006 2.006 0 0 1-.437.612 2.08 2.08 0 0 1-.625.425c-.242.1-.5.15-.775.15-.267 0-.521-.05-.763-.15a2.115 2.115 0 0 1-1.037-1.037c-.1-.234-.15-.484-.15-.75 0-.276.05-.534.15-.776.108-.241.25-.45.425-.625s.379-.312.612-.412c.242-.108.496-.162.763-.162.275 0 .533.054.775.162.241.1.45.237.625.412.183.175.329.384.437.625.109.242.163.5.163.775Zm5.847-2.013V83h-3.087V64.425h3.087Zm11.127 9.025c-.35-.425-.734-.725-1.15-.9a3.33 3.33 0 0 0-1.325-.263c-.467 0-.888.088-1.263.263a2.516 2.516 0 0 0-.962.8c-.267.35-.471.8-.613 1.35-.142.542-.212 1.183-.212 1.925 0 .75.058 1.388.175 1.912.125.517.3.942.525 1.275.225.326.5.563.825.713a2.69 2.69 0 0 0 1.087.212c.642 0 1.188-.133 1.638-.4.45-.266.875-.645 1.275-1.137v-5.75Zm3.087-9.025V83h-1.887c-.409 0-.667-.188-.775-.563l-.263-1.237a6.442 6.442 0 0 1-1.787 1.438c-.667.366-1.446.55-2.338.55-.7 0-1.342-.146-1.925-.438a4.373 4.373 0 0 1-1.512-1.263c-.417-.558-.742-1.245-.975-2.062-.225-.817-.338-1.75-.338-2.8 0-.95.129-1.833.388-2.65a6.446 6.446 0 0 1 1.112-2.125 5.12 5.12 0 0 1 1.738-1.4c.675-.342 1.433-.513 2.275-.513.716 0 1.329.113 1.837.338.508.225.963.53 1.363.912v-6.762h3.087Zm16.951 8.25a.896.896 0 0 1-.262.288.729.729 0 0 1-.35.075c-.15 0-.313-.042-.488-.126a14.07 14.07 0 0 0-.587-.275 4.907 4.907 0 0 0-.775-.287 3.62 3.62 0 0 0-1.013-.125c-.608 0-1.087.13-1.437.388a1.21 1.21 0 0 0-.513 1.012c0 .275.088.508.263.7.183.183.421.346.712.487.3.142.638.271 1.013.388.375.108.754.23 1.137.362.392.134.775.288 1.15.463.375.167.709.383 1 .65.3.258.538.57.713.938.183.366.275.808.275 1.325 0 .616-.113 1.187-.338 1.712a3.675 3.675 0 0 1-.975 1.35c-.433.375-.971.67-1.612.888-.634.208-1.367.312-2.2.312a6.74 6.74 0 0 1-1.3-.125 7.428 7.428 0 0 1-1.213-.325 7.11 7.11 0 0 1-1.075-.5 5.332 5.332 0 0 1-.862-.625l.712-1.175c.092-.142.2-.25.325-.325a.913.913 0 0 1 .475-.112.97.97 0 0 1 .538.162c.175.108.375.225.6.35a5.4 5.4 0 0 0 .787.35c.309.108.696.162 1.163.162.366 0 .679-.041.937-.125.267-.091.484-.208.65-.35.175-.141.3-.304.375-.487a1.45 1.45 0 0 0 .125-.588c0-.3-.091-.545-.275-.737a2.25 2.25 0 0 0-.712-.5 6.143 6.143 0 0 0-1.013-.375 61.186 61.186 0 0 1-1.162-.375 12.528 12.528 0 0 1-1.163-.463 4.25 4.25 0 0 1-1.012-.687 3.218 3.218 0 0 1-.713-1.012c-.175-.4-.262-.884-.262-1.45a3.7 3.7 0 0 1 .312-1.5c.209-.476.513-.888.913-1.238.408-.358.912-.642 1.512-.85.609-.217 1.309-.325 2.1-.325.884 0 1.688.146 2.413.438.725.291 1.329.675 1.812 1.15l-.7 1.112Zm11.424 2.438c0-.4-.058-.775-.175-1.126a2.598 2.598 0 0 0-.5-.937 2.282 2.282 0 0 0-.862-.625c-.342-.158-.742-.237-1.2-.237-.892 0-1.596.254-2.113.762-.508.508-.833 1.23-.975 2.162h5.825Zm-5.887 1.862c.05.658.166 1.23.35 1.713.183.474.425.87.725 1.187.3.308.654.542 1.062.7.417.15.875.225 1.375.225s.929-.058 1.288-.175c.366-.117.683-.246.95-.388.275-.141.512-.27.712-.387.208-.117.408-.175.6-.175.258 0 .45.096.575.288l.888 1.125c-.342.4-.725.737-1.15 1.012a6.83 6.83 0 0 1-1.338.65 7.42 7.42 0 0 1-1.412.338c-.475.066-.938.1-1.388.1a6.93 6.93 0 0 1-2.487-.438 5.67 5.67 0 0 1-2-1.313c-.567-.583-1.013-1.3-1.338-2.15-.325-.858-.487-1.85-.487-2.975 0-.874.141-1.695.425-2.462a5.902 5.902 0 0 1 1.212-2.012 5.769 5.769 0 0 1 1.938-1.363c.766-.333 1.629-.5 2.587-.5.808 0 1.554.13 2.238.388.683.258 1.27.637 1.762 1.137.492.492.875 1.1 1.15 1.825.283.717.425 1.537.425 2.462 0 .467-.05.784-.15.95-.1.159-.292.238-.575.238h-7.937Zm13.892-4.575c.4-.767.875-1.367 1.425-1.8.55-.442 1.2-.662 1.95-.662.591 0 1.066.129 1.425.387l-.2 2.313a.617.617 0 0 1-.188.325.497.497 0 0 1-.312.087 3.76 3.76 0 0 1-.563-.063 4.185 4.185 0 0 0-.712-.062c-.342 0-.646.05-.913.15a2.31 2.31 0 0 0-.725.438 3.016 3.016 0 0 0-.562.674c-.159.267-.309.571-.45.913V83h-3.088V70.175h1.813c.316 0 .537.058.662.175.125.108.208.308.25.6l.188 1.45Zm17.976-2.225L727.489 83h-2.8l-5.087-12.825h2.55c.233 0 .425.054.575.163a.757.757 0 0 1 .312.412l2.475 6.85a18.012 18.012 0 0 1 .613 2.325c.083-.383.175-.767.275-1.15.1-.383.221-.775.362-1.175l2.525-6.85a.85.85 0 0 1 .313-.412.893.893 0 0 1 .537-.163h2.438Zm9.517 4.938c0-.4-.058-.775-.175-1.126a2.598 2.598 0 0 0-.5-.937 2.282 2.282 0 0 0-.862-.625c-.342-.158-.742-.237-1.2-.237-.892 0-1.596.254-2.113.762-.508.508-.833 1.23-.975 2.162h5.825Zm-5.887 1.862c.05.658.166 1.23.35 1.713.183.474.425.87.725 1.187.3.308.654.542 1.062.7.417.15.875.225 1.375.225s.929-.058 1.288-.175c.366-.117.683-.246.95-.388.275-.141.512-.27.712-.387.208-.117.408-.175.6-.175.258 0 .45.096.575.288l.888 1.125c-.342.4-.725.737-1.15 1.012a6.83 6.83 0 0 1-1.338.65 7.42 7.42 0 0 1-1.412.338c-.475.066-.938.1-1.388.1a6.93 6.93 0 0 1-2.487-.438 5.67 5.67 0 0 1-2-1.313c-.567-.583-1.013-1.3-1.338-2.15-.325-.858-.487-1.85-.487-2.975 0-.874.141-1.695.425-2.462a5.902 5.902 0 0 1 1.212-2.012 5.769 5.769 0 0 1 1.938-1.363c.766-.333 1.629-.5 2.587-.5.808 0 1.554.13 2.238.388.683.258 1.27.637 1.762 1.137.492.492.875 1.1 1.15 1.825.283.717.425 1.537.425 2.462 0 .467-.05.784-.15.95-.1.159-.292.238-.575.238h-7.937Zm13.892-4.575c.4-.767.875-1.367 1.425-1.8.55-.442 1.2-.662 1.95-.662.591 0 1.066.129 1.425.387l-.2 2.313a.617.617 0 0 1-.188.325.497.497 0 0 1-.312.087 3.76 3.76 0 0 1-.563-.063 4.185 4.185 0 0 0-.712-.062c-.342 0-.646.05-.913.15a2.31 2.31 0 0 0-.725.438 3.016 3.016 0 0 0-.562.674c-.159.267-.309.571-.45.913V83h-3.088V70.175h1.813c.316 0 .537.058.662.175.125.108.208.308.25.6l.188 1.45Z"/><g filter="url(#d)"><path fill="#fff" d="M419.748 123h212.505v115.473H419.748z"/><path stroke="#000" stroke-width="4" d="M421.748 125h208.505v111.473H421.748z"/></g><path fill="#000" d="M471.386 169.414c.22 0 .415.085.585.255l1.59 1.725a8.718 8.718 0 0 1-3.255 2.505c-1.28.58-2.82.87-4.62.87-1.61 0-3.06-.275-4.35-.825a9.589 9.589 0 0 1-3.285-2.295c-.91-.98-1.61-2.15-2.1-3.51-.48-1.36-.72-2.845-.72-4.455 0-1.63.26-3.12.78-4.47.52-1.36 1.25-2.53 2.19-3.51.95-.98 2.08-1.74 3.39-2.28 1.31-.55 2.76-.825 4.35-.825 1.58 0 2.98.26 4.2.78 1.23.52 2.275 1.2 3.135 2.04l-1.35 1.875a1.18 1.18 0 0 1-.315.315c-.12.09-.29.135-.51.135-.15 0-.305-.04-.465-.12-.16-.09-.335-.195-.525-.315-.19-.13-.41-.27-.66-.42-.25-.15-.54-.285-.87-.405a6.184 6.184 0 0 0-1.155-.315c-.43-.09-.93-.135-1.5-.135-.97 0-1.86.175-2.67.525-.8.34-1.49.84-2.07 1.5-.58.65-1.03 1.45-1.35 2.4-.32.94-.48 2.015-.48 3.225 0 1.22.17 2.305.51 3.255.35.95.82 1.75 1.41 2.4.59.65 1.285 1.15 2.085 1.5.8.34 1.66.51 2.58.51.55 0 1.045-.03 1.485-.09.45-.06.86-.155 1.23-.285.38-.13.735-.295 1.065-.495.34-.21.675-.465 1.005-.765.1-.09.205-.16.315-.21a.71.71 0 0 1 .345-.09Zm8.104-17.175v22.29h-3.705v-22.29h3.705Zm7.532 6.9v15.39h-3.72v-15.39h3.72Zm.51-4.485c0 .32-.065.62-.195.9s-.305.525-.525.735c-.21.21-.46.38-.75.51-.29.12-.6.18-.93.18-.32 0-.625-.06-.915-.18-.28-.13-.525-.3-.735-.51-.21-.21-.38-.455-.51-.735a2.26 2.26 0 0 1-.18-.9c0-.33.06-.64.18-.93.13-.29.3-.54.51-.75.21-.21.455-.375.735-.495.29-.13.595-.195.915-.195.33 0 .64.065.93.195.29.12.54.285.75.495.22.21.395.46.525.75s.195.6.195.93Zm13.182 10.41c0-.48-.07-.93-.21-1.35-.13-.43-.33-.805-.6-1.125a2.74 2.74 0 0 0-1.035-.75c-.41-.19-.89-.285-1.44-.285-1.07 0-1.915.305-2.535.915-.61.61-1 1.475-1.17 2.595h6.99Zm-7.065 2.235c.06.79.2 1.475.42 2.055.22.57.51 1.045.87 1.425.36.37.785.65 1.275.84.5.18 1.05.27 1.65.27.6 0 1.115-.07 1.545-.21a6.9 6.9 0 0 0 1.14-.465c.33-.17.615-.325.855-.465.25-.14.49-.21.72-.21.31 0 .54.115.69.345l1.065 1.35c-.41.48-.87.885-1.38 1.215-.51.32-1.045.58-1.605.78-.55.19-1.115.325-1.695.405-.57.08-1.125.12-1.665.12a8.326 8.326 0 0 1-2.985-.525 6.816 6.816 0 0 1-2.4-1.575c-.68-.7-1.215-1.56-1.605-2.58-.39-1.03-.585-2.22-.585-3.57 0-1.05.17-2.035.51-2.955a7.09 7.09 0 0 1 1.455-2.415 6.933 6.933 0 0 1 2.325-1.635c.92-.4 1.955-.6 3.105-.6.97 0 1.865.155 2.685.465.82.31 1.525.765 2.115 1.365.59.59 1.05 1.32 1.38 2.19.34.86.51 1.845.51 2.955 0 .56-.06.94-.18 1.14-.12.19-.35.285-.69.285h-9.525Zm16.64-6.27c.31-.31.635-.595.975-.855.35-.27.715-.495 1.095-.675.39-.19.805-.335 1.245-.435.44-.11.92-.165 1.44-.165.84 0 1.585.145 2.235.435.65.28 1.19.68 1.62 1.2.44.51.77 1.125.99 1.845.23.71.345 1.495.345 2.355v9.795h-3.705v-9.795c0-.94-.215-1.665-.645-2.175-.43-.52-1.085-.78-1.965-.78-.64 0-1.24.145-1.8.435a6.45 6.45 0 0 0-1.59 1.185v11.13h-3.705v-15.39h2.265c.48 0 .795.225.945.675l.255 1.215Zm18.394 13.74c-1.34 0-2.37-.375-3.09-1.125-.71-.76-1.065-1.805-1.065-3.135v-8.595h-1.575c-.2 0-.37-.065-.51-.195s-.21-.325-.21-.585v-1.47l2.475-.405.78-4.2c.05-.2.145-.355.285-.465.14-.11.32-.165.54-.165h1.92v4.845h4.11v2.64h-4.11v8.34c0 .48.115.855.345 1.125.24.27.565.405.975.405.23 0 .42-.025.57-.075.16-.06.295-.12.405-.18.12-.06.225-.115.315-.165.09-.06.18-.09.27-.09.11 0 .2.03.27.09.07.05.145.13.225.24l1.11 1.8c-.54.45-1.16.79-1.86 1.02-.7.23-1.425.345-2.175.345Zm5.912-10.845h7.77v3.09h-7.77v-3.09Zm20.701-1.785c-.1.16-.205.275-.315.345-.11.06-.25.09-.42.09-.18 0-.375-.05-.585-.15-.2-.1-.435-.21-.705-.33-.27-.13-.58-.245-.93-.345-.34-.1-.745-.15-1.215-.15-.73 0-1.305.155-1.725.465-.41.31-.615.715-.615 1.215 0 .33.105.61.315.84.22.22.505.415.855.585.36.17.765.325 1.215.465.45.13.905.275 1.365.435.47.16.93.345 1.38.555.45.2.85.46 1.2.78.36.31.645.685.855 1.125.22.44.33.97.33 1.59 0 .74-.135 1.425-.405 2.055-.26.62-.65 1.16-1.17 1.62-.52.45-1.165.805-1.935 1.065-.76.25-1.64.375-2.64.375-.53 0-1.05-.05-1.56-.15a8.478 8.478 0 0 1-2.745-.99c-.39-.23-.735-.48-1.035-.75l.855-1.41c.11-.17.24-.3.39-.39.15-.09.34-.135.57-.135.23 0 .445.065.645.195.21.13.45.27.72.42.27.15.585.29.945.42.37.13.835.195 1.395.195.44 0 .815-.05 1.125-.15.32-.11.58-.25.78-.42.21-.17.36-.365.45-.585.1-.23.15-.465.15-.705 0-.36-.11-.655-.33-.885-.21-.23-.495-.43-.855-.6-.35-.17-.755-.32-1.215-.45-.45-.14-.915-.29-1.395-.45a14.99 14.99 0 0 1-1.395-.555 5.105 5.105 0 0 1-1.215-.825 3.853 3.853 0 0 1-.855-1.215c-.21-.48-.315-1.06-.315-1.74 0-.63.125-1.23.375-1.8a4.19 4.19 0 0 1 1.095-1.485c.49-.43 1.095-.77 1.815-1.02.73-.26 1.57-.39 2.52-.39 1.06 0 2.025.175 2.895.525.87.35 1.595.81 2.175 1.38l-.84 1.335Zm7.634-3v15.39h-3.72v-15.39h3.72Zm.51-4.485c0 .32-.065.62-.195.9s-.305.525-.525.735c-.21.21-.46.38-.75.51-.29.12-.6.18-.93.18-.32 0-.625-.06-.915-.18-.28-.13-.525-.3-.735-.51-.21-.21-.38-.455-.51-.735a2.26 2.26 0 0 1-.18-.9c0-.33.06-.64.18-.93.13-.29.3-.54.51-.75.21-.21.455-.375.735-.495.29-.13.595-.195.915-.195.33 0 .64.065.93.195.29.12.54.285.75.495.22.21.395.46.525.75s.195.6.195.93Zm12.927 8.415c-.42-.51-.88-.87-1.38-1.08a3.993 3.993 0 0 0-1.59-.315 3.54 3.54 0 0 0-1.515.315c-.45.21-.835.53-1.155.96-.32.42-.565.96-.735 1.62-.17.65-.255 1.42-.255 2.31 0 .9.07 1.665.21 2.295.15.62.36 1.13.63 1.53.27.39.6.675.99.855.39.17.825.255 1.305.255.77 0 1.425-.16 1.965-.48.54-.32 1.05-.775 1.53-1.365v-6.9Zm3.705-10.83v22.29h-2.265c-.49 0-.8-.225-.93-.675l-.315-1.485a7.727 7.727 0 0 1-2.145 1.725c-.8.44-1.735.66-2.805.66-.84 0-1.61-.175-2.31-.525a5.245 5.245 0 0 1-1.815-1.515c-.5-.67-.89-1.495-1.17-2.475-.27-.98-.405-2.1-.405-3.36 0-1.14.155-2.2.465-3.18.31-.98.755-1.83 1.335-2.55a6.147 6.147 0 0 1 2.085-1.68c.81-.41 1.72-.615 2.73-.615.86 0 1.595.135 2.205.405a5.65 5.65 0 0 1 1.635 1.095v-8.115h3.705Zm13.571 12.825c0-.48-.07-.93-.21-1.35-.13-.43-.33-.805-.6-1.125a2.74 2.74 0 0 0-1.035-.75c-.41-.19-.89-.285-1.44-.285-1.07 0-1.915.305-2.535.915-.61.61-1 1.475-1.17 2.595h6.99Zm-7.065 2.235c.06.79.2 1.475.42 2.055.22.57.51 1.045.87 1.425.36.37.785.65 1.275.84.5.18 1.05.27 1.65.27.6 0 1.115-.07 1.545-.21a6.9 6.9 0 0 0 1.14-.465c.33-.17.615-.325.855-.465.25-.14.49-.21.72-.21.31 0 .54.115.69.345l1.065 1.35c-.41.48-.87.885-1.38 1.215-.51.32-1.045.58-1.605.78-.55.19-1.115.325-1.695.405-.57.08-1.125.12-1.665.12a8.326 8.326 0 0 1-2.985-.525 6.816 6.816 0 0 1-2.4-1.575c-.68-.7-1.215-1.56-1.605-2.58-.39-1.03-.585-2.22-.585-3.57 0-1.05.17-2.035.51-2.955a7.09 7.09 0 0 1 1.455-2.415 6.933 6.933 0 0 1 2.325-1.635c.92-.4 1.955-.6 3.105-.6.97 0 1.865.155 2.685.465.82.31 1.525.765 2.115 1.365.59.59 1.05 1.32 1.38 2.19.34.86.51 1.845.51 2.955 0 .56-.06.94-.18 1.14-.12.19-.35.285-.69.285h-9.525Zm-102.781 36.66c-1.07.05-1.97.145-2.7.285-.73.13-1.315.3-1.755.51-.44.21-.755.455-.945.735-.19.28-.285.585-.285.915 0 .65.19 1.115.57 1.395.39.28.895.42 1.515.42.76 0 1.415-.135 1.965-.405.56-.28 1.105-.7 1.635-1.26v-2.595Zm-8.49-6.675c1.77-1.62 3.9-2.43 6.39-2.43.9 0 1.705.15 2.415.45.71.29 1.31.7 1.8 1.23.49.52.86 1.145 1.11 1.875.26.73.39 1.53.39 2.4v9.72h-1.68c-.35 0-.62-.05-.81-.15-.19-.11-.34-.325-.45-.645l-.33-1.11c-.39.35-.77.66-1.14.93-.37.26-.755.48-1.155.66-.4.18-.83.315-1.29.405-.45.1-.95.15-1.5.15a6.07 6.07 0 0 1-1.8-.255 4.046 4.046 0 0 1-1.425-.795c-.4-.35-.71-.785-.93-1.305-.22-.52-.33-1.125-.33-1.815 0-.39.065-.775.195-1.155.13-.39.34-.76.63-1.11.3-.35.685-.68 1.155-.99.47-.31 1.045-.58 1.725-.81.69-.23 1.49-.415 2.4-.555.91-.15 1.95-.24 3.12-.27v-.9c0-1.03-.22-1.79-.66-2.28-.44-.5-1.075-.75-1.905-.75-.6 0-1.1.07-1.5.21-.39.14-.735.3-1.035.48l-.825.465c-.24.14-.51.21-.81.21-.26 0-.48-.065-.66-.195a1.79 1.79 0 0 1-.435-.48l-.66-1.185Zm19.059-.255c.31-.31.635-.595.975-.855.35-.27.715-.495 1.095-.675.39-.19.805-.335 1.245-.435.44-.11.92-.165 1.44-.165.84 0 1.585.145 2.235.435.65.28 1.19.68 1.62 1.2.44.51.77 1.125.99 1.845.23.71.345 1.495.345 2.355v9.795h-3.705v-9.795c0-.94-.215-1.665-.645-2.175-.43-.52-1.085-.78-1.965-.78-.64 0-1.24.145-1.8.435a6.45 6.45 0 0 0-1.59 1.185v11.13h-3.705v-15.39h2.265c.48 0 .795.225.945.675l.255 1.215Zm21.599 6.93c-1.07.05-1.97.145-2.7.285-.73.13-1.315.3-1.755.51-.44.21-.755.455-.945.735-.19.28-.285.585-.285.915 0 .65.19 1.115.57 1.395.39.28.895.42 1.515.42.76 0 1.415-.135 1.965-.405.56-.28 1.105-.7 1.635-1.26v-2.595Zm-8.49-6.675c1.77-1.62 3.9-2.43 6.39-2.43.9 0 1.705.15 2.415.45.71.29 1.31.7 1.8 1.23.49.52.86 1.145 1.11 1.875.26.73.39 1.53.39 2.4v9.72h-1.68c-.35 0-.62-.05-.81-.15-.19-.11-.34-.325-.45-.645l-.33-1.11c-.39.35-.77.66-1.14.93-.37.26-.755.48-1.155.66-.4.18-.83.315-1.29.405-.45.1-.95.15-1.5.15a6.07 6.07 0 0 1-1.8-.255 4.046 4.046 0 0 1-1.425-.795c-.4-.35-.71-.785-.93-1.305-.22-.52-.33-1.125-.33-1.815 0-.39.065-.775.195-1.155.13-.39.34-.76.63-1.11.3-.35.685-.68 1.155-.99.47-.31 1.045-.58 1.725-.81.69-.23 1.49-.415 2.4-.555.91-.15 1.95-.24 3.12-.27v-.9c0-1.03-.22-1.79-.66-2.28-.44-.5-1.075-.75-1.905-.75-.6 0-1.1.07-1.5.21-.39.14-.735.3-1.035.48l-.825.465c-.24.14-.51.21-.81.21-.26 0-.48-.065-.66-.195a1.79 1.79 0 0 1-.435-.48l-.66-1.185Zm19.344-9.045v22.29h-3.705v-22.29h3.705Zm17.672 6.9-8.385 19.62c-.11.26-.255.455-.435.585-.17.14-.435.21-.795.21h-2.76l2.88-6.18-6.225-14.235h3.255c.29 0 .515.07.675.21.17.14.295.3.375.48l3.27 7.98c.11.27.2.54.27.81.08.27.155.545.225.825.09-.28.18-.555.27-.825.09-.28.19-.555.3-.825l3.09-7.965a1.091 1.091 0 0 1 1.02-.69h2.97Zm10.908 3c-.1.16-.205.275-.315.345-.11.06-.25.09-.42.09-.18 0-.375-.05-.585-.15-.2-.1-.435-.21-.705-.33-.27-.13-.58-.245-.93-.345-.34-.1-.745-.15-1.215-.15-.73 0-1.305.155-1.725.465-.41.31-.615.715-.615 1.215 0 .33.105.61.315.84.22.22.505.415.855.585.36.17.765.325 1.215.465.45.13.905.275 1.365.435.47.16.93.345 1.38.555.45.2.85.46 1.2.78.36.31.645.685.855 1.125.22.44.33.97.33 1.59 0 .74-.135 1.425-.405 2.055-.26.62-.65 1.16-1.17 1.62-.52.45-1.165.805-1.935 1.065-.76.25-1.64.375-2.64.375-.53 0-1.05-.05-1.56-.15a8.478 8.478 0 0 1-2.745-.99c-.39-.23-.735-.48-1.035-.75l.855-1.41c.11-.17.24-.3.39-.39.15-.09.34-.135.57-.135.23 0 .445.065.645.195.21.13.45.27.72.42.27.15.585.29.945.42.37.13.835.195 1.395.195.44 0 .815-.05 1.125-.15.32-.11.58-.25.78-.42.21-.17.36-.365.45-.585.1-.23.15-.465.15-.705 0-.36-.11-.655-.33-.885-.21-.23-.495-.43-.855-.6-.35-.17-.755-.32-1.215-.45-.45-.14-.915-.29-1.395-.45a14.99 14.99 0 0 1-1.395-.555 5.105 5.105 0 0 1-1.215-.825 3.853 3.853 0 0 1-.855-1.215c-.21-.48-.315-1.06-.315-1.74 0-.63.125-1.23.375-1.8a4.19 4.19 0 0 1 1.095-1.485c.49-.43 1.095-.77 1.815-1.02.73-.26 1.57-.39 2.52-.39 1.06 0 2.025.175 2.895.525.87.35 1.595.81 2.175 1.38l-.84 1.335Zm7.633-3v15.39h-3.72v-15.39h3.72Zm.51-4.485c0 .32-.065.62-.195.9s-.305.525-.525.735c-.21.21-.46.38-.75.51-.29.12-.6.18-.93.18-.32 0-.625-.06-.915-.18-.28-.13-.525-.3-.735-.51-.21-.21-.38-.455-.51-.735a2.26 2.26 0 0 1-.18-.9c0-.33.06-.64.18-.93.13-.29.3-.54.51-.75.21-.21.455-.375.735-.495.29-.13.595-.195.915-.195.33 0 .64.065.93.195.29.12.54.285.75.495.22.21.395.46.525.75s.195.6.195.93Zm12.657 7.485c-.1.16-.205.275-.315.345-.11.06-.25.09-.42.09-.18 0-.375-.05-.585-.15-.2-.1-.435-.21-.705-.33-.27-.13-.58-.245-.93-.345-.34-.1-.745-.15-1.215-.15-.73 0-1.305.155-1.725.465-.41.31-.615.715-.615 1.215 0 .33.105.61.315.84.22.22.505.415.855.585.36.17.765.325 1.215.465.45.13.905.275 1.365.435.47.16.93.345 1.38.555.45.2.85.46 1.2.78.36.31.645.685.855 1.125.22.44.33.97.33 1.59 0 .74-.135 1.425-.405 2.055-.26.62-.65 1.16-1.17 1.62-.52.45-1.165.805-1.935 1.065-.76.25-1.64.375-2.64.375-.53 0-1.05-.05-1.56-.15a8.478 8.478 0 0 1-2.745-.99c-.39-.23-.735-.48-1.035-.75l.855-1.41c.11-.17.24-.3.39-.39.15-.09.34-.135.57-.135.23 0 .445.065.645.195.21.13.45.27.72.42.27.15.585.29.945.42.37.13.835.195 1.395.195.44 0 .815-.05 1.125-.15.32-.11.58-.25.78-.42.21-.17.36-.365.45-.585.1-.23.15-.465.15-.705 0-.36-.11-.655-.33-.885-.21-.23-.495-.43-.855-.6-.35-.17-.755-.32-1.215-.45-.45-.14-.915-.29-1.395-.45a14.99 14.99 0 0 1-1.395-.555 5.105 5.105 0 0 1-1.215-.825 3.853 3.853 0 0 1-.855-1.215c-.21-.48-.315-1.06-.315-1.74 0-.63.125-1.23.375-1.8a4.19 4.19 0 0 1 1.095-1.485c.49-.43 1.095-.77 1.815-1.02.73-.26 1.57-.39 2.52-.39 1.06 0 2.025.175 2.895.525.87.35 1.595.81 2.175 1.38l-.84 1.335Z"/><g filter="url(#e)"><path fill="#fff" d="M697 141h242v83H697z"/><path stroke="#000" stroke-width="4" d="M699 143h238v79H699z"/></g><path fill="#000" d="M728.398 165.215c.74 0 1.385-.09 1.935-.27.55-.19 1.005-.455 1.365-.795.37-.35.645-.77.825-1.26.18-.5.27-1.055.27-1.665 0-.58-.09-1.105-.27-1.575-.18-.47-.45-.87-.81-1.2-.36-.33-.815-.58-1.365-.75-.55-.18-1.2-.27-1.95-.27h-3.015v7.785h3.015Zm0-10.905c1.45 0 2.705.17 3.765.51 1.06.34 1.935.815 2.625 1.425.69.61 1.2 1.34 1.53 2.19.34.85.51 1.78.51 2.79 0 1.05-.175 2.015-.525 2.895-.35.87-.875 1.62-1.575 2.25-.7.63-1.58 1.12-2.64 1.47-1.05.35-2.28.525-3.69.525h-3.015V176h-4.035v-21.69h7.05Zm18.6 15.12c-1.07.05-1.97.145-2.7.285-.73.13-1.315.3-1.755.51-.44.21-.755.455-.945.735-.19.28-.285.585-.285.915 0 .65.19 1.115.57 1.395.39.28.895.42 1.515.42.76 0 1.415-.135 1.965-.405.56-.28 1.105-.7 1.635-1.26v-2.595Zm-8.49-6.675c1.77-1.62 3.9-2.43 6.39-2.43.9 0 1.705.15 2.415.45.71.29 1.31.7 1.8 1.23.49.52.86 1.145 1.11 1.875.26.73.39 1.53.39 2.4V176h-1.68c-.35 0-.62-.05-.81-.15-.19-.11-.34-.325-.45-.645l-.33-1.11c-.39.35-.77.66-1.14.93-.37.26-.755.48-1.155.66-.4.18-.83.315-1.29.405-.45.1-.95.15-1.5.15a6.07 6.07 0 0 1-1.8-.255 4.046 4.046 0 0 1-1.425-.795c-.4-.35-.71-.785-.93-1.305-.22-.52-.33-1.125-.33-1.815 0-.39.065-.775.195-1.155.13-.39.34-.76.63-1.11.3-.35.685-.68 1.155-.99.47-.31 1.045-.58 1.725-.81.69-.23 1.49-.415 2.4-.555.91-.15 1.95-.24 3.12-.27v-.9c0-1.03-.22-1.79-.66-2.28-.44-.5-1.075-.75-1.905-.75-.6 0-1.1.07-1.5.21-.39.14-.735.3-1.035.48l-.825.465c-.24.14-.51.21-.81.21-.26 0-.48-.065-.66-.195a1.79 1.79 0 0 1-.435-.48l-.66-1.185Zm19.089.525c.48-.92 1.05-1.64 1.71-2.16.66-.53 1.44-.795 2.34-.795.71 0 1.28.155 1.71.465l-.24 2.775c-.05.18-.125.31-.225.39a.597.597 0 0 1-.375.105c-.15 0-.375-.025-.675-.075a5.026 5.026 0 0 0-.855-.075c-.41 0-.775.06-1.095.18-.32.12-.61.295-.87.525-.25.22-.475.49-.675.81-.19.32-.37.685-.54 1.095V176h-3.705v-15.39h2.175c.38 0 .645.07.795.21.15.13.25.37.3.72l.225 1.74ZM780.819 176h-3.705v-12.615h-7.14v8.34c0 .48.115.855.345 1.125.24.27.565.405.975.405.23 0 .42-.025.57-.075.16-.06.295-.12.405-.18.12-.06.225-.115.315-.165.09-.06.18-.09.27-.09.11 0 .2.03.27.09.07.05.145.13.225.24l1.11 1.8c-.54.45-1.16.79-1.86 1.02-.7.23-1.425.345-2.175.345-1.34 0-2.37-.375-3.09-1.125-.71-.76-1.065-1.805-1.065-3.135v-8.595h-1.575c-.2 0-.37-.065-.51-.195s-.21-.325-.21-.585v-1.47l2.475-.42.78-4.185c.05-.2.145-.355.285-.465.14-.11.32-.165.54-.165h1.92v4.845h10.845V176Zm.645-19.935c0 .32-.065.625-.195.915-.13.28-.305.525-.525.735-.21.21-.465.38-.765.51-.29.12-.6.18-.93.18-.32 0-.62-.06-.9-.18-.28-.13-.525-.3-.735-.51-.21-.21-.38-.455-.51-.735a2.37 2.37 0 0 1-.18-.915c0-.33.06-.635.18-.915.13-.29.3-.54.51-.75.21-.22.455-.39.735-.51.28-.13.58-.195.9-.195.33 0 .64.065.93.195.3.12.555.29.765.51.22.21.395.46.525.75.13.28.195.585.195.915Zm11.267 13.365c-1.07.05-1.97.145-2.7.285-.73.13-1.315.3-1.755.51-.44.21-.755.455-.945.735-.19.28-.285.585-.285.915 0 .65.19 1.115.57 1.395.39.28.895.42 1.515.42.76 0 1.415-.135 1.965-.405.56-.28 1.105-.7 1.635-1.26v-2.595Zm-8.49-6.675c1.77-1.62 3.9-2.43 6.39-2.43.9 0 1.705.15 2.415.45.71.29 1.31.7 1.8 1.23.49.52.86 1.145 1.11 1.875.26.73.39 1.53.39 2.4V176h-1.68c-.35 0-.62-.05-.81-.15-.19-.11-.34-.325-.45-.645l-.33-1.11c-.39.35-.77.66-1.14.93-.37.26-.755.48-1.155.66-.4.18-.83.315-1.29.405-.45.1-.95.15-1.5.15a6.07 6.07 0 0 1-1.8-.255 4.046 4.046 0 0 1-1.425-.795c-.4-.35-.71-.785-.93-1.305-.22-.52-.33-1.125-.33-1.815 0-.39.065-.775.195-1.155.13-.39.34-.76.63-1.11.3-.35.685-.68 1.155-.99.47-.31 1.045-.58 1.725-.81.69-.23 1.49-.415 2.4-.555.91-.15 1.95-.24 3.12-.27v-.9c0-1.03-.22-1.79-.66-2.28-.44-.5-1.075-.75-1.905-.75-.6 0-1.1.07-1.5.21-.39.14-.735.3-1.035.48l-.825.465c-.24.14-.51.21-.81.21-.26 0-.48-.065-.66-.195a1.79 1.79 0 0 1-.435-.48l-.66-1.185Zm19.344-9.045V176h-3.705v-22.29h3.705Zm19.116 15.72c-1.07.05-1.97.145-2.7.285-.73.13-1.315.3-1.755.51-.44.21-.755.455-.945.735-.19.28-.285.585-.285.915 0 .65.19 1.115.57 1.395.39.28.895.42 1.515.42.76 0 1.415-.135 1.965-.405.56-.28 1.105-.7 1.635-1.26v-2.595Zm-8.49-6.675c1.77-1.62 3.9-2.43 6.39-2.43.9 0 1.705.15 2.415.45.71.29 1.31.7 1.8 1.23.49.52.86 1.145 1.11 1.875.26.73.39 1.53.39 2.4V176h-1.68c-.35 0-.62-.05-.81-.15-.19-.11-.34-.325-.45-.645l-.33-1.11c-.39.35-.77.66-1.14.93-.37.26-.755.48-1.155.66-.4.18-.83.315-1.29.405-.45.1-.95.15-1.5.15a6.07 6.07 0 0 1-1.8-.255 4.046 4.046 0 0 1-1.425-.795c-.4-.35-.71-.785-.93-1.305-.22-.52-.33-1.125-.33-1.815 0-.39.065-.775.195-1.155.13-.39.34-.76.63-1.11.3-.35.685-.68 1.155-.99.47-.31 1.045-.58 1.725-.81.69-.23 1.49-.415 2.4-.555.91-.15 1.95-.24 3.12-.27v-.9c0-1.03-.22-1.79-.66-2.28-.44-.5-1.075-.75-1.905-.75-.6 0-1.1.07-1.5.21-.39.14-.735.3-1.035.48l-.825.465c-.24.14-.51.21-.81.21-.26 0-.48-.065-.66-.195a1.79 1.79 0 0 1-.435-.48l-.66-1.185Zm19.06-.255c.31-.31.635-.595.975-.855.35-.27.715-.495 1.095-.675.39-.19.805-.335 1.245-.435.44-.11.92-.165 1.44-.165.84 0 1.585.145 2.235.435.65.28 1.19.68 1.62 1.2.44.51.77 1.125.99 1.845.23.71.345 1.495.345 2.355V176h-3.705v-9.795c0-.94-.215-1.665-.645-2.175-.43-.52-1.085-.78-1.965-.78-.64 0-1.24.145-1.8.435a6.45 6.45 0 0 0-1.59 1.185V176h-3.705v-15.39h2.265c.48 0 .795.225.945.675l.255 1.215Zm21.598 6.93c-1.07.05-1.97.145-2.7.285-.73.13-1.315.3-1.755.51-.44.21-.755.455-.945.735-.19.28-.285.585-.285.915 0 .65.19 1.115.57 1.395.39.28.895.42 1.515.42.76 0 1.415-.135 1.965-.405.56-.28 1.105-.7 1.635-1.26v-2.595Zm-8.49-6.675c1.77-1.62 3.9-2.43 6.39-2.43.9 0 1.705.15 2.415.45.71.29 1.31.7 1.8 1.23.49.52.86 1.145 1.11 1.875.26.73.39 1.53.39 2.4V176h-1.68c-.35 0-.62-.05-.81-.15-.19-.11-.34-.325-.45-.645l-.33-1.11c-.39.35-.77.66-1.14.93-.37.26-.755.48-1.155.66-.4.18-.83.315-1.29.405-.45.1-.95.15-1.5.15a6.07 6.07 0 0 1-1.8-.255 4.046 4.046 0 0 1-1.425-.795c-.4-.35-.71-.785-.93-1.305-.22-.52-.33-1.125-.33-1.815 0-.39.065-.775.195-1.155.13-.39.34-.76.63-1.11.3-.35.685-.68 1.155-.99.47-.31 1.045-.58 1.725-.81.69-.23 1.49-.415 2.4-.555.91-.15 1.95-.24 3.12-.27v-.9c0-1.03-.22-1.79-.66-2.28-.44-.5-1.075-.75-1.905-.75-.6 0-1.1.07-1.5.21-.39.14-.735.3-1.035.48l-.825.465c-.24.14-.51.21-.81.21-.26 0-.48-.065-.66-.195a1.79 1.79 0 0 1-.435-.48l-.66-1.185Zm19.345-9.045V176h-3.705v-22.29h3.705Zm17.671 6.9-8.385 19.62c-.11.26-.255.455-.435.585-.17.14-.435.21-.795.21h-2.76l2.88-6.18-6.225-14.235h3.255c.29 0 .515.07.675.21.17.14.295.3.375.48l3.27 7.98c.11.27.2.54.27.81.08.27.155.545.225.825.09-.28.18-.555.27-.825.09-.28.19-.555.3-.825l3.09-7.965a1.091 1.091 0 0 1 1.02-.69h2.97Zm10.908 3c-.1.16-.205.275-.315.345-.11.06-.25.09-.42.09-.18 0-.375-.05-.585-.15-.2-.1-.435-.21-.705-.33-.27-.13-.58-.245-.93-.345-.34-.1-.745-.15-1.215-.15-.73 0-1.305.155-1.725.465-.41.31-.615.715-.615 1.215 0 .33.105.61.315.84.22.22.505.415.855.585.36.17.765.325 1.215.465.45.13.905.275 1.365.435.47.16.93.345 1.38.555.45.2.85.46 1.2.78.36.31.645.685.855 1.125.22.44.33.97.33 1.59 0 .74-.135 1.425-.405 2.055-.26.62-.65 1.16-1.17 1.62-.52.45-1.165.805-1.935 1.065-.76.25-1.64.375-2.64.375-.53 0-1.05-.05-1.56-.15a8.478 8.478 0 0 1-2.745-.99c-.39-.23-.735-.48-1.035-.75l.855-1.41c.11-.17.24-.3.39-.39.15-.09.34-.135.57-.135.23 0 .445.065.645.195.21.13.45.27.72.42.27.15.585.29.945.42.37.13.835.195 1.395.195.44 0 .815-.05 1.125-.15.32-.11.58-.25.78-.42.21-.17.36-.365.45-.585.1-.23.15-.465.15-.705 0-.36-.11-.655-.33-.885-.21-.23-.495-.43-.855-.6-.35-.17-.755-.32-1.215-.45-.45-.14-.915-.29-1.395-.45a14.99 14.99 0 0 1-1.395-.555 5.105 5.105 0 0 1-1.215-.825 3.853 3.853 0 0 1-.855-1.215c-.21-.48-.315-1.06-.315-1.74 0-.63.125-1.23.375-1.8a4.19 4.19 0 0 1 1.095-1.485c.49-.43 1.095-.77 1.815-1.02.73-.26 1.57-.39 2.52-.39 1.06 0 2.025.175 2.895.525.87.35 1.595.81 2.175 1.38l-.84 1.335Zm7.634-3V176h-3.72v-15.39h3.72Zm.51-4.485c0 .32-.065.62-.195.9s-.305.525-.525.735c-.21.21-.46.38-.75.51-.29.12-.6.18-.93.18-.32 0-.625-.06-.915-.18-.28-.13-.525-.3-.735-.51-.21-.21-.38-.455-.51-.735a2.26 2.26 0 0 1-.18-.9c0-.33.06-.64.18-.93.13-.29.3-.54.51-.75.21-.21.455-.375.735-.495.29-.13.595-.195.915-.195.33 0 .64.065.93.195.29.12.54.285.75.495.22.21.395.46.525.75s.195.6.195.93Zm12.657 7.485c-.1.16-.205.275-.315.345-.11.06-.25.09-.42.09-.18 0-.375-.05-.585-.15-.2-.1-.435-.21-.705-.33-.27-.13-.58-.245-.93-.345-.34-.1-.745-.15-1.215-.15-.73 0-1.305.155-1.725.465-.41.31-.615.715-.615 1.215 0 .33.105.61.315.84.22.22.505.415.855.585.36.17.765.325 1.215.465.45.13.905.275 1.365.435.47.16.93.345 1.38.555.45.2.85.46 1.2.78.36.31.645.685.855 1.125.22.44.33.97.33 1.59 0 .74-.135 1.425-.405 2.055-.26.62-.65 1.16-1.17 1.62-.52.45-1.165.805-1.935 1.065-.76.25-1.64.375-2.64.375-.53 0-1.05-.05-1.56-.15a8.478 8.478 0 0 1-2.745-.99c-.39-.23-.735-.48-1.035-.75l.855-1.41c.11-.17.24-.3.39-.39.15-.09.34-.135.57-.135.23 0 .445.065.645.195.21.13.45.27.72.42.27.15.585.29.945.42.37.13.835.195 1.395.195.44 0 .815-.05 1.125-.15.32-.11.58-.25.78-.42.21-.17.36-.365.45-.585.1-.23.15-.465.15-.705 0-.36-.11-.655-.33-.885-.21-.23-.495-.43-.855-.6-.35-.17-.755-.32-1.215-.45-.45-.14-.915-.29-1.395-.45a14.99 14.99 0 0 1-1.395-.555 5.105 5.105 0 0 1-1.215-.825 3.853 3.853 0 0 1-.855-1.215c-.21-.48-.315-1.06-.315-1.74 0-.63.125-1.23.375-1.8a4.19 4.19 0 0 1 1.095-1.485c.49-.43 1.095-.77 1.815-1.02.73-.26 1.57-.39 2.52-.39 1.06 0 2.025.175 2.895.525.87.35 1.595.81 2.175 1.38l-.84 1.335Zm-136.12 35.67c.48-.92 1.05-1.64 1.71-2.16.66-.53 1.44-.795 2.34-.795.71 0 1.28.155 1.71.465l-.24 2.775c-.05.18-.125.31-.225.39a.597.597 0 0 1-.375.105c-.15 0-.375-.025-.675-.075a5.026 5.026 0 0 0-.855-.075c-.41 0-.775.06-1.095.18-.32.12-.61.295-.87.525-.25.22-.475.49-.675.81-.19.32-.37.685-.54 1.095V212h-3.705v-15.39h2.175c.38 0 .645.07.795.21.15.13.25.37.3.72l.225 1.74Zm17.172 3.255c0-.48-.07-.93-.21-1.35-.13-.43-.33-.805-.6-1.125a2.74 2.74 0 0 0-1.035-.75c-.41-.19-.89-.285-1.44-.285-1.07 0-1.915.305-2.535.915-.61.61-1 1.475-1.17 2.595h6.99Zm-7.065 2.235c.06.79.2 1.475.42 2.055.22.57.51 1.045.87 1.425.36.37.785.65 1.275.84.5.18 1.05.27 1.65.27.6 0 1.115-.07 1.545-.21a6.9 6.9 0 0 0 1.14-.465c.33-.17.615-.325.855-.465.25-.14.49-.21.72-.21.31 0 .54.115.69.345l1.065 1.35c-.41.48-.87.885-1.38 1.215-.51.32-1.045.58-1.605.78-.55.19-1.115.325-1.695.405-.57.08-1.125.12-1.665.12a8.326 8.326 0 0 1-2.985-.525 6.816 6.816 0 0 1-2.4-1.575c-.68-.7-1.215-1.56-1.605-2.58-.39-1.03-.585-2.22-.585-3.57 0-1.05.17-2.035.51-2.955a7.09 7.09 0 0 1 1.455-2.415 6.933 6.933 0 0 1 2.325-1.635c.92-.4 1.955-.6 3.105-.6.97 0 1.865.155 2.685.465.82.31 1.525.765 2.115 1.365.59.59 1.05 1.32 1.38 2.19.34.86.51 1.845.51 2.955 0 .56-.06.94-.18 1.14-.12.19-.35.285-.69.285h-9.525Zm22.566-5.16c-.1.16-.205.275-.315.345-.11.06-.25.09-.42.09-.18 0-.375-.05-.585-.15-.2-.1-.435-.21-.705-.33-.27-.13-.58-.245-.93-.345-.34-.1-.745-.15-1.215-.15-.73 0-1.305.155-1.725.465-.41.31-.615.715-.615 1.215 0 .33.105.61.315.84.22.22.505.415.855.585.36.17.765.325 1.215.465.45.13.905.275 1.365.435.47.16.93.345 1.38.555.45.2.85.46 1.2.78.36.31.645.685.855 1.125.22.44.33.97.33 1.59 0 .74-.135 1.425-.405 2.055-.26.62-.65 1.16-1.17 1.62-.52.45-1.165.805-1.935 1.065-.76.25-1.64.375-2.64.375-.53 0-1.05-.05-1.56-.15a8.478 8.478 0 0 1-2.745-.99c-.39-.23-.735-.48-1.035-.75l.855-1.41c.11-.17.24-.3.39-.39.15-.09.34-.135.57-.135.23 0 .445.065.645.195.21.13.45.27.72.42.27.15.585.29.945.42.37.13.835.195 1.395.195.44 0 .815-.05 1.125-.15.32-.11.58-.25.78-.42.21-.17.36-.365.45-.585.1-.23.15-.465.15-.705 0-.36-.11-.655-.33-.885-.21-.23-.495-.43-.855-.6-.35-.17-.755-.32-1.215-.45-.45-.14-.915-.29-1.395-.45a14.99 14.99 0 0 1-1.395-.555 5.105 5.105 0 0 1-1.215-.825 3.853 3.853 0 0 1-.855-1.215c-.21-.48-.315-1.06-.315-1.74 0-.63.125-1.23.375-1.8a4.19 4.19 0 0 1 1.095-1.485c.49-.43 1.095-.77 1.815-1.02.73-.26 1.57-.39 2.52-.39 1.06 0 2.025.175 2.895.525.87.35 1.595.81 2.175 1.38l-.84 1.335Zm17.053-3V212h-2.265c-.49 0-.8-.225-.93-.675l-.255-1.23a8.42 8.42 0 0 1-2.085 1.56c-.76.39-1.655.585-2.685.585-.84 0-1.585-.14-2.235-.42a4.553 4.553 0 0 1-1.62-1.215 5.393 5.393 0 0 1-1.005-1.845c-.22-.72-.33-1.51-.33-2.37v-9.78h3.705v9.78c0 .94.215 1.67.645 2.19.44.51 1.095.765 1.965.765.64 0 1.24-.14 1.8-.42a6.45 6.45 0 0 0 1.59-1.185v-11.13h3.705Zm7.424-6.9V212h-3.705v-22.29h3.705Zm8.821 22.53c-1.34 0-2.37-.375-3.09-1.125-.71-.76-1.065-1.805-1.065-3.135v-8.595h-1.575c-.2 0-.37-.065-.51-.195s-.21-.325-.21-.585v-1.47l2.475-.405.78-4.2c.05-.2.145-.355.285-.465.14-.11.32-.165.54-.165h1.92v4.845h4.11v2.64h-4.11v8.34c0 .48.115.855.345 1.125.24.27.565.405.975.405.23 0 .42-.025.57-.075.16-.06.295-.12.405-.18.12-.06.225-.115.315-.165.09-.06.18-.09.27-.09.11 0 .2.03.27.09.07.05.145.13.225.24l1.11 1.8c-.54.45-1.16.79-1.86 1.02-.7.23-1.425.345-2.175.345Zm15.422-12.63c-.1.16-.205.275-.315.345-.11.06-.25.09-.42.09-.18 0-.375-.05-.585-.15-.2-.1-.435-.21-.705-.33-.27-.13-.58-.245-.93-.345-.34-.1-.745-.15-1.215-.15-.73 0-1.305.155-1.725.465-.41.31-.615.715-.615 1.215 0 .33.105.61.315.84.22.22.505.415.855.585.36.17.765.325 1.215.465.45.13.905.275 1.365.435.47.16.93.345 1.38.555.45.2.85.46 1.2.78.36.31.645.685.855 1.125.22.44.33.97.33 1.59 0 .74-.135 1.425-.405 2.055-.26.62-.65 1.16-1.17 1.62-.52.45-1.165.805-1.935 1.065-.76.25-1.64.375-2.64.375-.53 0-1.05-.05-1.56-.15a8.478 8.478 0 0 1-2.745-.99c-.39-.23-.735-.48-1.035-.75l.855-1.41c.11-.17.24-.3.39-.39.15-.09.34-.135.57-.135.23 0 .445.065.645.195.21.13.45.27.72.42.27.15.585.29.945.42.37.13.835.195 1.395.195.44 0 .815-.05 1.125-.15.32-.11.58-.25.78-.42.21-.17.36-.365.45-.585.1-.23.15-.465.15-.705 0-.36-.11-.655-.33-.885-.21-.23-.495-.43-.855-.6-.35-.17-.755-.32-1.215-.45-.45-.14-.915-.29-1.395-.45a14.99 14.99 0 0 1-1.395-.555 5.105 5.105 0 0 1-1.215-.825 3.853 3.853 0 0 1-.855-1.215c-.21-.48-.315-1.06-.315-1.74 0-.63.125-1.23.375-1.8a4.19 4.19 0 0 1 1.095-1.485c.49-.43 1.095-.77 1.815-1.02.73-.26 1.57-.39 2.52-.39 1.06 0 2.025.175 2.895.525.87.35 1.595.81 2.175 1.38l-.84 1.335ZM697 183l-20-11.547v23.094L697 183Zm-65 2h47v-4h-47v4ZM421 183l-20-11.547v23.094L421 183Zm-65 2h47v-4h-47v4ZM817 442.422l11.547-20h-23.094l11.547 20Zm2-18v-89.211h-4v89.211h4Zm0-89.211V228h-4v107.211h4Z"/><g filter="url(#f)"><path fill="#fff" d="M33 297h201v83H33z"/><path stroke="#000" stroke-width="4" d="M35 299h197v79H35z"/></g><path fill="#000" d="M97.31 345.885c.22 0 .415.085.585.255l1.59 1.725a8.718 8.718 0 0 1-3.255 2.505c-1.28.58-2.82.87-4.62.87-1.61 0-3.06-.275-4.35-.825a9.589 9.589 0 0 1-3.285-2.295c-.91-.98-1.61-2.15-2.1-3.51-.48-1.36-.72-2.845-.72-4.455 0-1.63.26-3.12.78-4.47.52-1.36 1.25-2.53 2.19-3.51.95-.98 2.08-1.74 3.39-2.28 1.31-.55 2.76-.825 4.35-.825 1.58 0 2.98.26 4.2.78 1.23.52 2.275 1.2 3.135 2.04l-1.35 1.875a1.18 1.18 0 0 1-.315.315c-.12.09-.29.135-.51.135-.15 0-.305-.04-.465-.12-.16-.09-.335-.195-.525-.315-.19-.13-.41-.27-.66-.42-.25-.15-.54-.285-.87-.405a6.184 6.184 0 0 0-1.155-.315c-.43-.09-.93-.135-1.5-.135-.97 0-1.86.175-2.67.525-.8.34-1.49.84-2.07 1.5-.58.65-1.03 1.45-1.35 2.4-.32.94-.48 2.015-.48 3.225 0 1.22.17 2.305.51 3.255.35.95.82 1.75 1.41 2.4.59.65 1.285 1.15 2.085 1.5.8.34 1.66.51 2.58.51.55 0 1.045-.03 1.485-.09.45-.06.86-.155 1.23-.285.38-.13.735-.295 1.065-.495.34-.21.675-.465 1.005-.765.1-.09.205-.16.315-.21a.71.71 0 0 1 .345-.09Zm10.842-10.515c1.14 0 2.175.185 3.105.555.94.37 1.74.895 2.4 1.575.67.68 1.185 1.51 1.545 2.49.36.98.54 2.075.54 3.285 0 1.22-.18 2.32-.54 3.3-.36.98-.875 1.815-1.545 2.505-.66.69-1.46 1.22-2.4 1.59-.93.37-1.965.555-3.105.555-1.15 0-2.195-.185-3.135-.555a6.78 6.78 0 0 1-2.415-1.59c-.66-.69-1.175-1.525-1.545-2.505-.36-.98-.54-2.08-.54-3.3 0-1.21.18-2.305.54-3.285.37-.98.885-1.81 1.545-2.49a6.88 6.88 0 0 1 2.415-1.575c.94-.37 1.985-.555 3.135-.555Zm0 13.005c1.28 0 2.225-.43 2.835-1.29.62-.86.93-2.12.93-3.78 0-1.66-.31-2.925-.93-3.795-.61-.87-1.555-1.305-2.835-1.305-1.3 0-2.265.44-2.895 1.32-.62.87-.93 2.13-.93 3.78s.31 2.91.93 3.78c.63.86 1.595 1.29 2.895 1.29ZM118.568 351v-15.39h2.265c.48 0 .795.225.945.675l.24 1.14c.27-.3.55-.575.84-.825.3-.25.615-.465.945-.645.34-.18.7-.32 1.08-.42.39-.11.815-.165 1.275-.165.97 0 1.765.265 2.385.795.63.52 1.1 1.215 1.41 2.085.24-.51.54-.945.9-1.305.36-.37.755-.67 1.185-.9.43-.23.885-.4 1.365-.51.49-.11.98-.165 1.47-.165.85 0 1.605.13 2.265.39.66.26 1.215.64 1.665 1.14.45.5.79 1.11 1.02 1.83.24.72.36 1.545.36 2.475V351h-3.705v-9.795c0-.98-.215-1.715-.645-2.205-.43-.5-1.06-.75-1.89-.75-.38 0-.735.065-1.065.195-.32.13-.605.32-.855.57-.24.24-.43.545-.57.915-.14.37-.21.795-.21 1.275V351h-3.72v-9.795c0-1.03-.21-1.78-.63-2.25-.41-.47-1.015-.705-1.815-.705-.54 0-1.045.135-1.515.405-.46.26-.89.62-1.29 1.08V351h-3.705Zm25.137 0v-15.39h2.265c.48 0 .795.225.945.675l.24 1.14c.27-.3.55-.575.84-.825.3-.25.615-.465.945-.645.34-.18.7-.32 1.08-.42.39-.11.815-.165 1.275-.165.97 0 1.765.265 2.385.795.63.52 1.1 1.215 1.41 2.085.24-.51.54-.945.9-1.305.36-.37.755-.67 1.185-.9.43-.23.885-.4 1.365-.51.49-.11.98-.165 1.47-.165.85 0 1.605.13 2.265.39.66.26 1.215.64 1.665 1.14.45.5.79 1.11 1.02 1.83.24.72.36 1.545.36 2.475V351h-3.705v-9.795c0-.98-.215-1.715-.645-2.205-.43-.5-1.06-.75-1.89-.75-.38 0-.735.065-1.065.195-.32.13-.605.32-.855.57-.24.24-.43.545-.57.915-.14.37-.21.795-.21 1.275V351h-3.72v-9.795c0-1.03-.21-1.78-.63-2.25-.41-.47-1.015-.705-1.815-.705-.54 0-1.045.135-1.515.405-.46.26-.89.62-1.29 1.08V351h-3.705Zm28.977-15.39V351h-3.72v-15.39h3.72Zm.51-4.485c0 .32-.065.62-.195.9s-.305.525-.525.735c-.21.21-.46.38-.75.51-.29.12-.6.18-.93.18-.32 0-.625-.06-.915-.18-.28-.13-.525-.3-.735-.51-.21-.21-.38-.455-.51-.735a2.26 2.26 0 0 1-.18-.9c0-.33.06-.64.18-.93.13-.29.3-.54.51-.75.21-.21.455-.375.735-.495.29-.13.595-.195.915-.195.33 0 .64.065.93.195.29.12.54.285.75.495.22.21.395.46.525.75s.195.6.195.93Zm8.397 20.115c-1.34 0-2.37-.375-3.09-1.125-.71-.76-1.065-1.805-1.065-3.135v-8.595h-1.575c-.2 0-.37-.065-.51-.195s-.21-.325-.21-.585v-1.47l2.475-.405.78-4.2c.05-.2.145-.355.285-.465.14-.11.32-.165.54-.165h1.92v4.845h4.11v2.64h-4.11v8.34c0 .48.115.855.345 1.125.24.27.565.405.975.405.23 0 .42-.025.57-.075.16-.06.295-.12.405-.18.12-.06.225-.115.315-.165.09-.06.18-.09.27-.09.11 0 .2.03.27.09.07.05.145.13.225.24l1.11 1.8c-.54.45-1.16.79-1.86 1.02-.7.23-1.425.345-2.175.345Z"/><path stroke="#000" stroke-width="4" d="M358 502V183M237 340h121"/><defs><filter id="a" width="205" height="87" x="1289" y="297" color-interpolation-filters="sRGB" filterUnits="userSpaceOnUse"><feFlood flood-opacity="0" result="BackgroundImageFix"/><feColorMatrix in="SourceAlpha" result="hardAlpha" values="0 0 0 0 0 0 0 0 0 0 0 0 0 0 0 0 0 0 127 0"/><feOffset dx="4" dy="4"/><feComposite in2="hardAlpha" operator="out"/><feColorMatrix values="0 0 0 0 0 0 0 0 0 0 0 0 0 0 0 0 0 0 1 0"/><feBlend in2="BackgroundImageFix" result="effect1_dropShadow_11_40"/><feBlend in="SourceGraphic" in2="effect1_dropShadow_11_40" result="shape"/></filter><filter id="b" width="216.505" height="119.473" x="943.748" y="443" color-interpolation-filters="sRGB" filterUnits="userSpaceOnUse"><feFlood flood-opacity="0" result="BackgroundImageFix"/><feColorMatrix in="SourceAlpha" result="hardAlpha" values="0 0 0 0 0 0 0 0 0 0 0 0 0 0 0 0 0 0 127 0"/><feOffset dx="4" dy="4"/><feComposite in2="hardAlpha" operator="out"/><feColorMatrix values="0 0 0 0 0 0 0 0 0 0 0 0 0 0 0 0 0 0 1 0"/><feBlend in2="BackgroundImageFix" result="effect1_dropShadow_11_40"/><feBlend in="SourceGraphic" in2="effect1_dropShadow_11_40" result="shape"/></filter><filter id="c" width="121.34" height="121.34" x="759.33" y="442.33" color-interpolation-filters="sRGB" filterUnits="userSpaceOnUse"><feFlood flood-opacity="0" result="BackgroundImageFix"/><feColorMatrix in="SourceAlpha" result="hardAlpha" values="0 0 0 0 0 0 0 0 0 0 0 0 0 0 0 0 0 0 127 0"/><feOffset dx="4" dy="4"/><feComposite in2="hardAlpha" operator="out"/><feColorMatrix values="0 0 0 0 0 0 0 0 0 0 0 0 0 0 0 0 0 0 1 0"/><feBlend in2="BackgroundImageFix" result="effect1_dropShadow_11_40"/><feBlend in="SourceGraphic" in2="effect1_dropShadow_11_40" result="shape"/></filter><filter id="d" width="216.505" height="119.473" x="419.748" y="123" color-interpolation-filters="sRGB" filterUnits="userSpaceOnUse"><feFlood flood-opacity="0" result="BackgroundImageFix"/><feColorMatrix in="SourceAlpha" result="hardAlpha" values="0 0 0 0 0 0 0 0 0 0 0 0 0 0 0 0 0 0 127 0"/><feOffset dx="4" dy="4"/><feComposite in2="hardAlpha" operator="out"/><feColorMatrix values="0 0 0 0 0 0 0 0 0 0 0 0 0 0 0 0 0 0 1 0"/><feBlend in2="BackgroundImageFix" result="effect1_dropShadow_11_40"/><feBlend in="SourceGraphic" in2="effect1_dropShadow_11_40" result="shape"/></filter><filter id="e" width="246" height="87" x="697" y="141" color-interpolation-filters="sRGB" filterUnits="userSpaceOnUse"><feFlood flood-opacity="0" result="BackgroundImageFix"/><feColorMatrix in="SourceAlpha" result="hardAlpha" values="0 0 0 0 0 0 0 0 0 0 0 0 0 0 0 0 0 0 127 0"/><feOffset dx="4" dy="4"/><feComposite in2="hardAlpha" operator="out"/><feColorMatrix values="0 0 0 0 0 0 0 0 0 0 0 0 0 0 0 0 0 0 1 0"/><feBlend in2="BackgroundImageFix" result="effect1_dropShadow_11_40"/><feBlend in="SourceGraphic" in2="effect1_dropShadow_11_40" result="shape"/></filter><filter id="f" width="205" height="87" x="33" y="297" color-interpolation-filters="sRGB" filterUnits="userSpaceOnUse"><feFlood flood-opacity="0" result="BackgroundImageFix"/><feColorMatrix in="SourceAlpha" result="hardAlpha" values="0 0 0 0 0 0 0 0 0 0 0 0 0 0 0 0 0 0 127 0"/><feOffset dx="4" dy="4"/><feComposite in2="hardAlpha" operator="out"/><feColorMatrix values="0 0 0 0 0 0 0 0 0 0 0 0 0 0 0 0 0 0 1 0"/><feBlend in2="BackgroundImageFix" result="effect1_dropShadow_11_40"/><feBlend in="SourceGraphic" in2="effect1_dropShadow_11_40" result="shape"/></filter></defs></svg>