<?xml version="1.0" encoding="UTF-8" standalone="no"?>
<svg
   xmlns:dc="http://purl.org/dc/elements/1.1/"
   xmlns:cc="http://creativecommons.org/ns#"
   xmlns:rdf="http://www.w3.org/1999/02/22-rdf-syntax-ns#"
   xmlns:svg="http://www.w3.org/2000/svg"
   xmlns="http://www.w3.org/2000/svg"
   xmlns:sodipodi="http://sodipodi.sourceforge.net/DTD/sodipodi-0.dtd"
   xmlns:inkscape="http://www.inkscape.org/namespaces/inkscape"
   width="592"
   height="192"
   viewBox="0 0 592 192"
   fill="none"
   version="1.1"
   id="svg30"
   sodipodi:docname="codacy-quality-docs-logo.svg"
   inkscape:version="0.92.5 (2060ec1f9f, 2020-04-08)">
  <metadata
     id="metadata36">
    <rdf:RDF>
      <cc:Work
         rdf:about="">
        <dc:format>image/svg+xml</dc:format>
        <dc:type
           rdf:resource="http://purl.org/dc/dcmitype/StillImage" />
      </cc:Work>
    </rdf:RDF>
  </metadata>
  <defs
     id="defs34" />
  <sodipodi:namedview
     pagecolor="#ffffff"
     bordercolor="#666666"
     borderopacity="1"
     objecttolerance="10"
     gridtolerance="10"
     guidetolerance="10"
     inkscape:pageopacity="0"
     inkscape:pageshadow="2"
     inkscape:window-width="1728"
     inkscape:window-height="1156"
     id="namedview32"
     showgrid="false"
     inkscape:zoom="0.46959459"
     inkscape:cx="296"
     inkscape:cy="96"
     inkscape:window-x="0"
     inkscape:window-y="0"
     inkscape:window-maximized="0"
     inkscape:current-layer="svg30" />
  <path
     d="M54 94.6832C54 90.3789 54.8739 86.5414 56.6216 83.1706C58.4208 79.7998 60.8111 77.1809 63.7925 75.314C66.8254 73.3952 70.1152 72.4358 73.6621 72.4358C76.3866 72.4358 78.8283 72.9285 80.9873 73.9138C83.1462 74.8472 84.894 76.1696 86.2305 77.881V72.9025H99.4157V137H86.2305V110.863C84.7398 112.678 82.9149 114.13 80.7559 115.219C78.6484 116.308 76.2324 116.853 73.5079 116.853C70.0124 116.853 66.774 115.919 63.7925 114.052C60.8111 112.186 58.4208 109.567 56.6216 106.196C54.8739 102.825 54 98.9875 54 94.6832ZM86.2305 94.6054C86.2305 92.2718 85.7679 90.3271 84.8426 88.7713C83.9687 87.1637 82.8121 85.971 81.3728 85.1931C79.9335 84.3633 78.417 83.9485 76.8235 83.9485C75.2814 83.9485 73.7907 84.3633 72.3513 85.1931C70.912 85.971 69.7297 87.1637 68.8044 88.7713C67.8792 90.3789 67.4165 92.3496 67.4165 94.6832C67.4165 97.0169 67.8792 98.9875 68.8044 100.595C69.7297 102.151 70.912 103.344 72.3513 104.173C73.7907 104.951 75.2814 105.34 76.8235 105.34C78.3656 105.34 79.8564 104.951 81.2957 104.173C82.7864 103.344 83.9687 102.125 84.8426 100.517C85.7679 98.9097 86.2305 96.9391 86.2305 94.6054Z"
     fill="white"
     id="path2" />
  <path
     d="M146.44 72.9025V116.308H133.255V110.396C131.919 112.315 130.094 113.871 127.78 115.064C125.519 116.205 123 116.775 120.224 116.775C116.934 116.775 114.03 116.049 111.511 114.597C108.992 113.093 107.039 110.941 105.651 108.141C104.263 105.34 103.569 102.047 103.569 98.2615V72.9025H116.677V96.4724C116.677 99.3764 117.423 101.632 118.913 103.24C120.404 104.848 122.409 105.651 124.928 105.651C127.498 105.651 129.528 104.848 131.019 103.24C132.51 101.632 133.255 99.3764 133.255 96.4724V72.9025H146.44Z"
     fill="white"
     id="path4" />
  <path
     d="M148.289 94.5277C148.289 90.0678 149.112 86.1525 150.757 82.7816C152.453 79.4108 154.741 76.8179 157.619 75.0028C160.498 73.1878 163.711 72.2802 167.258 72.2802C170.291 72.2802 172.938 72.9025 175.2 74.1471C177.513 75.3918 179.286 77.0253 180.52 79.0478V72.9025H193.705V116.308H180.52V110.163C179.235 112.186 177.436 113.819 175.123 115.064C172.861 116.308 170.213 116.931 167.181 116.931C163.685 116.931 160.498 116.023 157.619 114.208C154.741 112.341 152.453 109.722 150.757 106.351C149.112 102.929 148.289 98.9875 148.289 94.5277ZM180.52 94.6054C180.52 91.2865 179.595 88.6676 177.744 86.7488C175.945 84.8301 173.735 83.8707 171.113 83.8707C168.491 83.8707 166.255 84.8301 164.405 86.7488C162.606 88.6157 161.706 91.2087 161.706 94.5277C161.706 97.8466 162.606 100.491 164.405 102.462C166.255 104.381 168.491 105.34 171.113 105.34C173.735 105.34 175.945 104.381 177.744 102.462C179.595 100.543 180.52 97.9244 180.52 94.6054Z"
     fill="white"
     id="path6" />
  <path
     d="M210.929 58.7451V116.308H197.744V58.7451H210.929Z"
     fill="white"
     id="path8" />
  <path
     d="M223.116 68.3908C220.802 68.3908 218.9 67.7167 217.41 66.3683C215.97 64.9681 215.251 63.2568 215.251 61.2343C215.251 59.16 215.97 57.4486 217.41 56.1003C218.9 54.7001 220.802 54 223.116 54C225.377 54 227.228 54.7001 228.667 56.1003C230.158 57.4486 230.903 59.16 230.903 61.2343C230.903 63.2568 230.158 64.9681 228.667 66.3683C227.228 67.7167 225.377 68.3908 223.116 68.3908ZM229.67 72.9025V116.308H216.484V72.9025H229.67Z"
     fill="white"
     id="path10" />
  <path
     d="M262.205 105.029V116.308H255.497C250.716 116.308 246.989 115.142 244.316 112.808C241.643 110.422 240.307 106.559 240.307 101.217V83.9485H235.063V72.9025H240.307V62.3233H253.492V72.9025H262.128V83.9485H253.492V101.373C253.492 102.669 253.8 103.603 254.417 104.173C255.034 104.744 256.062 105.029 257.501 105.029H262.205Z"
     fill="white"
     id="path12" />
  <path
     d="M315.5 72.9025L286.513 136.922H272.325L282.195 114.83L264.692 72.9025H279.419L289.366 100.051L299.235 72.9025H315.5Z"
     fill="white"
     id="path14" />
  <path
     d="M120.743 137.506C116.967 137.506 114 134.694 114 131.24C114 127.786 116.997 125.001 120.743 125.001C122.72 124.974 124.578 125.751 125.807 127.143L123.799 128.75C122.96 127.947 121.941 127.384 120.713 127.384C118.465 127.384 116.727 129.071 116.727 131.24C116.727 133.409 118.465 135.123 120.713 135.123C121.971 135.123 122.99 134.534 123.859 133.677L125.927 135.203C124.698 136.595 123.02 137.506 120.743 137.506Z"
     fill="white"
     id="path16" />
  <path
     d="M141.57 131.24C141.57 127.813 144.627 125.001 148.373 125.001C152.119 125.001 155.175 127.813 155.175 131.24C155.175 134.667 152.119 137.506 148.373 137.506C144.627 137.506 141.57 134.694 141.57 131.24ZM152.359 131.24C152.359 128.937 150.65 127.331 148.373 127.331C146.095 127.331 144.357 128.964 144.357 131.24C144.357 133.516 146.065 135.176 148.373 135.176C150.68 135.176 152.359 133.543 152.359 131.24Z"
     fill="white"
     id="path18" />
  <path
     d="M171.688 137.346V125.162H175.853C180.048 125.162 182.686 126.929 182.686 131.107C182.686 135.096 180.078 137.346 176.392 137.346H171.688ZM179.958 131.08C179.958 128.375 178.55 127.465 175.853 127.465H174.415V135.069H176.302C178.7 135.069 179.958 133.543 179.958 131.08Z"
     fill="white"
     id="path20" />
  <path
     d="M205.698 134.454H201.712L200.783 137.346H197.906L202.192 125.162H205.188L209.474 137.346H206.597L205.698 134.454ZM202.341 132.499H205.068L204.679 131.187C204.319 129.982 203.87 128.563 203.72 127.786C203.48 128.938 203.151 130.089 202.761 131.187L202.341 132.499Z"
     fill="white"
     id="path22" />
  <path
     d="M231.235 137.505C227.459 137.505 224.492 134.694 224.492 131.24C224.492 127.785 227.489 125.001 231.235 125.001C233.213 124.974 235.071 125.777 236.299 127.143L234.291 128.749C233.452 127.946 232.433 127.384 231.205 127.384C228.957 127.384 227.219 129.071 227.219 131.24C227.219 133.409 228.957 135.122 231.205 135.122C232.463 135.122 233.482 134.533 234.351 133.676L236.449 135.203C235.19 136.595 233.512 137.505 231.235 137.505Z"
     fill="white"
     id="path24" />
  <path
     d="M255.625 137.346V132.204L251.879 125.162H254.876L256.524 128.831C256.704 129.179 256.824 129.527 256.973 129.902C257.093 129.527 257.243 129.179 257.423 128.831L259.251 125.162H262.278L258.292 132.231V137.346H255.625Z"
     fill="white"
     id="path26" />
  <path
     d="M359.864 118.753H344.091V72.2075H360.182C364.803 72.2075 368.773 73.1393 372.091 75.0029C375.424 76.8514 377.985 79.5105 379.773 82.9802C381.561 86.4499 382.455 90.6014 382.455 95.4347C382.455 100.283 381.553 104.45 379.75 107.935C377.962 111.42 375.379 114.094 372 115.957C368.636 117.821 364.591 118.753 359.864 118.753ZM352.523 111.457H359.455C362.697 111.457 365.402 110.867 367.568 109.685C369.735 108.488 371.364 106.707 372.455 104.344C373.545 101.965 374.091 98.9954 374.091 95.4347C374.091 91.8741 373.545 88.9196 372.455 86.5711C371.364 84.2075 369.75 82.4423 367.614 81.2757C365.492 80.0938 362.856 79.5029 359.705 79.5029H352.523V111.457ZM436.057 95.4802C436.057 100.495 435.117 104.791 433.239 108.367C431.375 111.927 428.83 114.654 425.602 116.548C422.39 118.442 418.746 119.389 414.67 119.389C410.595 119.389 406.943 118.442 403.716 116.548C400.504 114.639 397.958 111.904 396.08 108.344C394.216 104.768 393.284 100.48 393.284 95.4802C393.284 90.465 394.216 86.1772 396.08 82.6166C397.958 79.0408 400.504 76.306 403.716 74.412C406.943 72.5181 410.595 71.5711 414.67 71.5711C418.746 71.5711 422.39 72.5181 425.602 74.412C428.83 76.306 431.375 79.0408 433.239 82.6166C435.117 86.1772 436.057 90.465 436.057 95.4802ZM427.58 95.4802C427.58 91.9499 427.027 88.9726 425.92 86.5484C424.83 84.109 423.314 82.2681 421.375 81.0257C419.436 79.7681 417.201 79.1393 414.67 79.1393C412.14 79.1393 409.905 79.7681 407.966 81.0257C406.027 82.2681 404.504 84.109 403.398 86.5484C402.307 88.9726 401.761 91.9499 401.761 95.4802C401.761 99.0105 402.307 101.995 403.398 104.435C404.504 106.859 406.027 108.7 407.966 109.957C409.905 111.2 412.14 111.821 414.67 111.821C417.201 111.821 419.436 111.2 421.375 109.957C423.314 108.7 424.83 106.859 425.92 104.435C427.027 101.995 427.58 99.0105 427.58 95.4802ZM487.869 87.912H479.369C479.127 86.5181 478.68 85.2832 478.028 84.2075C477.377 83.1166 476.566 82.1923 475.597 81.4347C474.627 80.6772 473.521 80.109 472.278 79.7302C471.051 79.3363 469.725 79.1393 468.301 79.1393C465.771 79.1393 463.528 79.7757 461.574 81.0484C459.619 82.306 458.089 84.1544 456.983 86.5938C455.877 89.0181 455.324 91.9802 455.324 95.4802C455.324 99.0408 455.877 102.041 456.983 104.48C458.104 106.904 459.634 108.738 461.574 109.98C463.528 111.207 465.763 111.821 468.278 111.821C469.672 111.821 470.975 111.639 472.188 111.276C473.415 110.897 474.513 110.344 475.483 109.617C476.468 108.889 477.294 107.995 477.96 106.935C478.642 105.874 479.112 104.662 479.369 103.298L487.869 103.344C487.551 105.556 486.862 107.632 485.801 109.571C484.756 111.511 483.384 113.223 481.688 114.707C479.991 116.177 478.006 117.329 475.733 118.162C473.46 118.98 470.938 119.389 468.165 119.389C464.074 119.389 460.422 118.442 457.21 116.548C453.998 114.654 451.468 111.92 449.619 108.344C447.771 104.768 446.847 100.48 446.847 95.4802C446.847 90.465 447.778 86.1772 449.642 82.6166C451.506 79.0408 454.044 76.306 457.256 74.412C460.468 72.5181 464.104 71.5711 468.165 71.5711C470.756 71.5711 473.165 71.9347 475.392 72.662C477.619 73.3893 479.604 74.4575 481.347 75.8666C483.089 77.2605 484.521 78.9726 485.642 81.0029C486.778 83.0181 487.521 85.3211 487.869 87.912ZM524.886 85.0029C524.674 83.0181 523.78 81.4726 522.205 80.3666C520.644 79.2605 518.614 78.7075 516.114 78.7075C514.356 78.7075 512.848 78.9726 511.591 79.5029C510.333 80.0332 509.371 80.7529 508.705 81.662C508.038 82.5711 507.697 83.609 507.682 84.7757C507.682 85.7454 507.902 86.5863 508.341 87.2984C508.795 88.0105 509.409 88.6166 510.182 89.1166C510.955 89.6014 511.811 90.0105 512.75 90.3438C513.689 90.6772 514.636 90.9575 515.591 91.1847L519.955 92.2757C521.712 92.6847 523.402 93.2378 525.023 93.9347C526.659 94.6317 528.121 95.5105 529.409 96.5711C530.712 97.6317 531.742 98.912 532.5 100.412C533.258 101.912 533.636 103.67 533.636 105.685C533.636 108.412 532.939 110.814 531.545 112.889C530.152 114.95 528.136 116.564 525.5 117.73C522.879 118.882 519.705 119.457 515.977 119.457C512.356 119.457 509.212 118.897 506.545 117.776C503.894 116.654 501.818 115.018 500.318 112.867C498.833 110.715 498.03 108.094 497.909 105.003H506.205C506.326 106.624 506.826 107.973 507.705 109.048C508.583 110.124 509.727 110.927 511.136 111.457C512.561 111.988 514.152 112.253 515.909 112.253C517.742 112.253 519.348 111.98 520.727 111.435C522.121 110.874 523.212 110.101 524 109.117C524.788 108.117 525.189 106.95 525.205 105.617C525.189 104.404 524.833 103.404 524.136 102.617C523.439 101.814 522.462 101.147 521.205 100.617C519.962 100.071 518.508 99.5863 516.841 99.162L511.545 97.7984C507.712 96.8135 504.682 95.3211 502.455 93.3211C500.242 91.306 499.136 88.6317 499.136 85.2984C499.136 82.556 499.879 80.1544 501.364 78.0938C502.864 76.0332 504.902 74.4347 507.477 73.2984C510.053 72.1469 512.97 71.5711 516.227 71.5711C519.53 71.5711 522.424 72.1469 524.909 73.2984C527.409 74.4347 529.371 76.0181 530.795 78.0484C532.22 80.0635 532.955 82.3817 533 85.0029H524.886Z"
     fill="#286CFC"
     id="path28"
     style="fill:#6695ff;fill-opacity:1" />
</svg>
