<svg width="48" height="48" viewBox="0 0 48 48" fill="none" xmlns="http://www.w3.org/2000/svg">
<circle cx="24" cy="24" r="24" fill="white"/>
<path d="M10.1318 20.2883C11.1134 16.6254 13.4992 13.5002 16.7627 11.602L13.7106 6.28992C9.04998 9.00371 5.64678 13.4678 4.24609 18.7005L10.1318 20.2883Z" fill="#191F2F"/>
<path d="M20.1907 10.173C21.3872 9.8518 22.6231 9.68941 23.8626 9.68941V3.55811C22.0893 3.55811 20.3268 3.78546 18.6145 4.24377L20.1907 10.173Z" fill="#191F2F"/>
<path d="M27.563 10.1765C31.1955 11.1689 34.2906 13.5687 36.1713 16.8563L41.448 13.7889C38.7577 9.09748 34.33 5.66915 29.1392 4.25812L27.563 10.1801V10.1765Z" fill="#191F2F"/>
<path d="M3.55811 23.9982C3.55811 25.781 3.78737 27.5601 4.24233 29.2815L10.1281 27.6972C9.80567 26.4919 9.64446 25.2469 9.64804 23.9982H3.55811Z" fill="#191F2F"/>
<path d="M6.27686 34.2255C7.16169 35.7664 8.24355 37.1883 9.49736 38.4477L13.8212 34.1172C12.9435 33.2331 12.1841 32.237 11.5608 31.158L6.27686 34.2255Z" fill="#191F2F"/>
<path d="M13.7104 41.7065C16.7912 43.5036 20.2876 44.4491 23.8484 44.4419V38.3106C21.3587 38.3106 18.912 37.6502 16.759 36.3943L13.714 41.7065H13.7104Z" fill="#191F2F"/>
<path d="M36.168 31.1724C34.2802 34.4491 31.1779 36.8417 27.5454 37.8233L29.1216 43.7525C34.316 42.3451 38.7437 38.924 41.4448 34.2398L36.1716 31.1724H36.168Z" fill="#191F2F"/>
<path d="M43.7266 29.2741C44.6651 25.8061 44.6795 22.1468 43.7731 18.6716L37.8695 20.2594C38.5036 22.6953 38.4892 25.254 37.8301 27.6827L43.7266 29.2741Z" fill="#191F2F"/>
</svg>
