<svg width="106" height="30" viewBox="0 0 106 30" fill="none" xmlns="http://www.w3.org/2000/svg">
<path d="M4.74165 12.0714C5.44978 9.42906 7.171 7.17463 9.5254 5.80531L7.32348 1.9733C3.96116 3.92835 1.50855 7.1486 0.498047 10.9233L4.74424 12.0688L4.74165 12.0714Z" fill="#475776"/>
<path d="M11.9985 4.77179C12.8617 4.5401 13.7533 4.42295 14.6475 4.42295V0C13.3682 0 12.0967 0.164005 10.8613 0.494621L11.9985 4.77179Z" fill="#475776"/>
<path d="M17.3184 4.77699C19.939 5.49289 22.1719 7.22406 23.5287 9.59564L27.3355 7.38286C25.3946 3.99861 22.2003 1.52551 18.4555 0.507629L17.3184 4.77959V4.77699Z" fill="#475776"/>
<path d="M0 14.7475C0 16.0335 0.165402 17.317 0.493623 18.5587L4.73981 17.4159C4.50721 16.5464 4.39091 15.6483 4.3935 14.7475H0Z" fill="#475776"/>
<path d="M1.95898 22.1252C2.59733 23.2368 3.37783 24.2625 4.28237 25.171L7.40176 22.0471C6.76857 21.4093 6.22068 20.6908 5.77099 19.9124L1.95898 22.1252Z" fill="#475776"/>
<path d="M7.32227 27.5192C9.54486 28.8156 12.0672 29.4977 14.6361 29.4925V25.0695C12.84 25.0695 11.0748 24.5931 9.5216 23.6872L7.32485 27.5192H7.32227Z" fill="#475776"/>
<path d="M23.5254 19.9202C22.1634 22.284 19.9253 24.01 17.3047 24.7181L18.4418 28.9952C22.1892 27.9799 25.3836 25.512 27.3322 22.133L23.528 19.9202H23.5254Z" fill="#475776"/>
<path d="M28.9766 18.5509C29.6537 16.0492 29.6641 13.4094 29.0102 10.9025L24.7511 12.0479C25.2085 13.8051 25.1982 15.6509 24.7227 17.4029L28.9766 18.5509Z" fill="#475776"/>
<path d="M47.5045 13.3781C46.9748 12.0355 45.815 11.2411 44.5386 11.2411C42.5843 11.2411 41.2577 12.9146 41.2577 14.8213C41.2577 16.7279 42.6161 18.4676 44.5545 18.4676C45.7965 18.4676 46.8583 17.7712 47.5045 16.3969H50.7854C50.0228 19.3468 47.4886 21.219 44.5863 21.219C42.8783 21.219 41.2709 20.6232 40.0131 19.3786C38.6864 18.0863 38.125 16.5293 38.125 14.673C38.125 11.4238 40.9267 8.49237 44.4406 8.49237C46.1301 8.49237 47.4912 8.95578 48.7173 10.0018C49.8771 10.9974 50.5736 12.1229 50.7881 13.3834H47.5071L47.5045 13.3781Z" fill="#475776"/>
<path d="M56.8198 21.2666C54.0181 21.2666 51.8652 19.1958 51.8652 16.3783C51.8652 13.5607 54.0684 11.49 56.8198 11.49C59.5711 11.49 61.7743 13.5608 61.7743 16.3465C61.7743 19.1323 59.587 21.2693 56.8198 21.2693V21.2666ZM59.023 16.3783C59.023 15.1522 58.0961 14.0586 56.8012 14.0586C55.5911 14.0586 54.6139 15.1205 54.6139 16.3783C54.6139 17.6361 55.5752 18.698 56.8171 18.698C58.0591 18.698 59.0203 17.6043 59.0203 16.3783H59.023Z" fill="#475776"/>
<path d="M70.297 20.9833V19.9876H70.2652C69.7515 20.8324 68.822 21.2799 67.5139 21.2799C64.7308 21.2799 62.9062 19.1429 62.9062 16.3571C62.9062 13.5713 64.7784 11.4688 67.4636 11.4688C68.5254 11.4688 69.3861 11.7839 70.1646 12.5624V8.71744H72.9159V20.9806H70.297V20.9833ZM70.3129 16.3439C70.3129 15.0675 69.3358 14.0401 67.9746 14.0401C66.6135 14.0401 65.6549 15.0013 65.6549 16.3439C65.6549 17.6864 66.6321 18.7139 67.9588 18.7139C69.2854 18.7139 70.3129 17.7023 70.3129 16.3439Z" fill="#475776"/>
<path d="M81.8151 20.9833V19.9876H81.7833C81.3861 20.8006 80.2924 21.2958 79.0822 21.2958C76.3653 21.2958 74.4746 19.1588 74.4746 16.373C74.4746 13.5872 76.4474 11.4688 79.0822 11.4688C80.2103 11.4688 81.2537 11.9163 81.7833 12.761H81.8151V11.7839H84.5664V20.9806H81.8151V20.9833ZM81.8151 16.3757C81.8151 15.0834 80.7717 14.0401 79.4795 14.0401C78.1872 14.0401 77.2259 15.0834 77.2259 16.4101C77.2259 17.7368 78.2375 18.7298 79.5112 18.7298C80.785 18.7298 81.8151 17.7023 81.8151 16.3757Z" fill="#475776"/>
<path d="M93.0689 15.3323C92.6717 14.4717 91.9567 14.0401 91.014 14.0401C89.7535 14.0401 88.8929 15.0834 88.8929 16.3757C88.8929 17.6679 89.8039 18.7112 91.0802 18.7112C92.0071 18.7112 92.6532 18.2796 93.0689 17.4852H95.8679C95.3224 19.789 93.3496 21.2799 90.9955 21.2799C88.2786 21.2799 86.123 19.0767 86.123 16.3571C86.123 13.6375 88.2945 11.4688 90.9452 11.4688C93.3655 11.4688 95.3357 12.9941 95.8494 15.3297H93.0663L93.0689 15.3323Z" fill="#475776"/>
<path d="M98.0265 24.0497L99.4856 20.5199L96.0723 11.7865H99.0063L100.847 17.1224H100.879L102.637 11.7865H105.552L100.945 24.0497H98.0292H98.0265Z" fill="#475776"/>
</svg>
