<svg width="340" height="97" viewBox="0 0 340 97" fill="none" xmlns="http://www.w3.org/2000/svg">
<path d="M15.276 38.8839C17.557 30.3725 23.1013 23.1107 30.6852 18.6999L23.5925 6.35632C12.7619 12.6539 4.86169 23.0268 1.60669 35.1858L15.2843 38.8755L15.276 38.8839Z" fill="white"/>
<path d="M38.6519 15.3707C41.4324 14.6244 44.3045 14.247 47.1849 14.247V0C43.0641 0 38.9683 0.528288 34.989 1.59325L38.6519 15.3707Z" fill="white"/>
<path d="M55.7844 15.3874C64.2258 17.6935 71.4184 23.2699 75.7889 30.9091L88.0514 23.7814C81.7994 12.8802 71.51 4.91388 59.4473 1.63513L55.7844 15.3958V15.3874Z" fill="white"/>
<path d="M0 47.5042C0 51.6466 0.532787 55.7807 1.59004 59.7806L15.2677 56.0993C14.5185 53.2986 14.1438 50.4056 14.1522 47.5042H0Z" fill="white"/>
<path d="M6.3103 71.2688C8.36653 74.8495 10.8806 78.1534 13.7943 81.0799L23.8423 71.0173C21.8028 68.9628 20.0379 66.6484 18.5894 64.1411L6.3103 71.2688Z" fill="white"/>
<path d="M23.5842 88.6437C30.7436 92.8197 38.8686 95.0167 47.1434 94.9999V80.7529C41.3577 80.7529 35.6718 79.2183 30.6686 76.3002L23.5926 88.6437H23.5842Z" fill="white"/>
<path d="M75.7807 64.1663C71.3936 71.7803 64.1843 77.34 55.7429 79.6208L59.4058 93.3983C71.4768 90.1279 81.7663 82.1784 88.0432 71.294L75.7891 64.1663H75.7807Z" fill="white"/>
<path d="M93.3376 59.7554C95.5187 51.6969 95.552 43.1939 93.4459 35.1187L79.7266 38.8083C81.2001 44.4685 81.1668 50.4139 79.635 56.0574L93.3376 59.7554Z" fill="white"/>
<path d="M153.017 43.0929C151.311 38.7683 147.575 36.2093 143.464 36.2093C137.168 36.2093 132.895 41.6002 132.895 47.7417C132.895 53.8832 137.271 59.4873 143.515 59.4873C147.515 59.4873 150.936 57.244 153.017 52.817H163.585C161.129 62.3192 152.966 68.3498 143.617 68.3498C138.115 68.3498 132.938 66.4306 128.886 62.4216C124.613 58.259 122.804 53.2435 122.804 47.264C122.804 36.7979 131.829 27.3553 143.148 27.3553C148.59 27.3553 152.974 28.8481 156.924 32.2174C160.66 35.4246 162.903 39.0498 163.594 43.11H153.025L153.017 43.0929Z" fill="white"/>
<path d="M183.025 68.5033C174 68.5033 167.066 61.833 167.066 52.7572C167.066 43.6815 174.163 37.0111 183.025 37.0111C191.888 37.0111 198.984 43.6815 198.984 52.6549C198.984 61.6283 191.939 68.5119 183.025 68.5119V68.5033ZM190.122 52.7572C190.122 48.8079 187.136 45.2851 182.965 45.2851C179.067 45.2851 175.92 48.7055 175.92 52.7572C175.92 56.8089 179.016 60.2294 183.017 60.2294C187.017 60.2294 190.113 56.7065 190.113 52.7572H190.122Z" fill="white"/>
<path d="M226.434 67.5906V64.3834H226.331C224.676 67.1044 221.682 68.546 217.469 68.546C208.504 68.546 202.627 61.6624 202.627 52.689C202.627 43.7155 208.657 36.9428 217.307 36.9428C220.727 36.9428 223.499 37.9579 226.007 40.4657V28.0803H234.87V67.5821H226.434V67.5906ZM226.485 52.6463C226.485 48.5349 223.337 45.2253 218.953 45.2253C214.568 45.2253 211.481 48.3217 211.481 52.6463C211.481 56.9709 214.628 60.2805 218.902 60.2805C223.175 60.2805 226.485 57.0221 226.485 52.6463Z" fill="white"/>
<path d="M263.538 67.5906V64.3834H263.436C262.156 67.0021 258.634 68.5972 254.735 68.5972C245.984 68.5972 239.894 61.7136 239.894 52.7402C239.894 43.7668 246.248 36.9429 254.735 36.9429C258.369 36.9429 261.73 38.3844 263.436 41.1054H263.538V37.9579H272.401V67.5821H263.538V67.5906ZM263.538 52.7487C263.538 48.5861 260.178 45.2254 256.015 45.2254C251.852 45.2254 248.756 48.5861 248.756 52.8596C248.756 57.133 252.014 60.3317 256.117 60.3317C260.22 60.3317 263.538 57.0221 263.538 52.7487Z" fill="white"/>
<path d="M299.79 49.3879C298.511 46.6157 296.208 45.2254 293.171 45.2254C289.111 45.2254 286.339 48.5861 286.339 52.7487C286.339 56.9113 289.273 60.272 293.384 60.272C296.37 60.272 298.451 58.8817 299.79 56.3227H308.806C307.049 63.7437 300.694 68.546 293.111 68.546C284.36 68.546 277.417 61.4491 277.417 52.689C277.417 43.9288 284.411 36.9429 292.949 36.9429C300.746 36.9429 307.092 41.8561 308.747 49.3794H299.782L299.79 49.3879Z" fill="white"/>
<path d="M315.758 77.4682L320.458 66.0979L309.463 37.9664H318.914L324.842 55.1541H324.945L330.609 37.9664H340L325.158 77.4682H315.767H315.758Z" fill="white"/>
</svg>
