<svg xmlns="http://www.w3.org/2000/svg" width="35" height="35" viewBox="0 0 35 35"><defs><style>.a{fill:#cbd9ff;}.b{fill:#4e7fff;}</style></defs><g transform="translate(0 0)"><circle class="a" cx="17.5" cy="17.5" r="17.5" transform="translate(0 0)"/><path class="b" d="M10.813,17.275a.583.583,0,0,1-.412-.165L6.809,13.518a.593.593,0,0,1,0-.839l0,0a.611.611,0,0,1,.857,0l3.147,3.164L18.772,7.9a.594.594,0,1,1,.84.84L11.241,17.11A.576.576,0,0,1,10.813,17.275Z" transform="translate(4.298 5.005)"/><path class="b" d="M10.947,17.759h0a.969.969,0,0,1-.659-.264L6.712,13.9a.922.922,0,0,1-.03-1.305l.03-.03a.974.974,0,0,1,1.318,0L10.947,15.5l7.7-7.712a.944.944,0,0,1,1.335,1.335h0l-8.355,8.371A.986.986,0,0,1,10.947,17.759ZM7.372,12.98a.269.269,0,0,0-.181.082.265.265,0,0,0,0,.363L10.766,17a.265.265,0,0,0,.363,0L19.5,8.646a.263.263,0,0,0-.155-.339.268.268,0,0,0-.208.01l-8.24,8.24L7.553,13.062A.269.269,0,0,0,7.372,12.98Z" transform="translate(4.164 4.867)"/><path class="b" d="M11.1,18.355a1.415,1.415,0,0,1-.989-.4L6.539,14.384a1.4,1.4,0,0,1,1.977-1.977L11.1,15.059l7.383-7.366a1.385,1.385,0,0,1,1.958-.02l.02.02a1.4,1.4,0,0,1,0,1.977L12.092,17.96A1.384,1.384,0,0,1,11.1,18.355Z" transform="translate(4.008 4.715)"/><path class="b" d="M11.263,18.879h0a1.653,1.653,0,0,1-1.219-.511L6.451,14.792a1.747,1.747,0,0,1-.511-1.219,1.647,1.647,0,0,1,.511-1.236,1.8,1.8,0,0,1,2.472,0l2.34,2.357L18.4,7.541a1.748,1.748,0,0,1,2.472,2.472L12.5,18.368A1.647,1.647,0,0,1,11.263,18.879ZM7.687,12.5a1.022,1.022,0,0,0-1.055.987v.068a1.038,1.038,0,0,0,.3.742l3.592,3.592a1.1,1.1,0,0,0,1.5,0l8.355-8.371a1.06,1.06,0,0,0-1.5-1.5l-7.613,7.613L8.429,12.8A1.038,1.038,0,0,0,7.687,12.5Z" transform="translate(3.848 4.554)"/></g></svg>